<svg width="31" height="31" viewBox="0 0 31 31" fill="none" xmlns="http://www.w3.org/2000/svg">
<g clip-path="url(#clip0)">
<path d="M24.3833 4.97559H2.27406C1.30943 4.97559 0.545441 5.78587 0.545441 6.74279V20.317C0.545441 20.3248 0.545441 20.3325 0.545441 20.3402C0.553158 21.2817 1.33258 22.0379 2.27406 22.0302H3.16923V10.9409C3.16923 9.12735 4.6509 7.67655 6.4644 7.67655H26.0965V6.74279C26.0965 5.78587 25.348 4.97559 24.3833 4.97559Z" fill="#3179FF"/>
<path d="M26.7908 20.9496C26.2661 20.5098 25.4867 20.5792 25.0468 21.104C25.0082 21.1503 24.9696 21.1889 24.931 21.2197C24.5992 21.4898 24.113 21.4358 23.8429 21.104C23.6114 20.8185 23.2564 20.6487 22.886 20.6487C22.1915 20.6487 21.6359 21.2043 21.6436 21.8988C21.6436 22.5857 22.2069 23.1413 22.8937 23.1413C23.2642 23.149 23.6191 22.9792 23.8506 22.6937C23.9973 22.5162 24.2133 22.4159 24.4449 22.4159C24.6687 22.4082 24.8924 22.5085 25.0391 22.686C25.0931 22.7477 25.1394 22.8017 25.2011 22.848C25.7259 23.2879 26.5053 23.2184 26.9452 22.6937C27.385 22.1689 27.3156 21.3895 26.7908 20.9496Z" fill="#3179FF"/>
<path d="M28.5815 9.22003H6.47225H6.46453C5.49991 9.21231 4.72049 9.98401 4.71277 10.9409V12.0753H30.3333H30.341V10.9409C30.341 9.9763 29.5462 9.22003 28.5815 9.22003Z" fill="#3179FF"/>
<path d="M30.3333 13.6187H4.71277V15.6251H30.3333V13.6187Z" fill="#3179FF"/>
<path d="M4.71277 17.1685V24.5074C4.71277 25.4797 5.49219 26.2668 6.46453 26.2746H28.5738C29.5462 26.2668 30.3256 25.4797 30.3333 24.5074V17.1685H4.71277ZM28.3192 23.4501C27.4549 24.7234 25.7185 25.063 24.4452 24.1987C23.9822 24.5151 23.442 24.6771 22.8864 24.6771C21.343 24.6771 20.1005 23.4193 20.1005 21.8836C20.1005 20.3479 21.343 19.0977 22.8864 19.0977C23.442 19.0977 23.9822 19.2598 24.4452 19.5762C25.3944 18.9357 26.6291 18.9357 27.5706 19.5762C28.8439 20.4405 29.1835 22.1768 28.3192 23.4501Z" fill="#3179FF"/>
</g>
<defs>
<clipPath id="clip0">
<rect width="29.7955" height="29.7955" fill="white" transform="translate(0.545441 0.727295)"/>
</clipPath>
</defs>
</svg>
