<svg width="15" height="15" viewBox="0 0 15 15" fill="none" xmlns="http://www.w3.org/2000/svg">
<path d="M13.8176 4.10788L12.1642 3.15323L11.2098 1.50006H9.3008L7.64738 0.54541L5.99395 1.50006H4.08495L3.1303 3.15348L1.47717 4.10788V6.01688L0.522522 7.67031L1.47717 9.32373V11.2327L3.13059 12.1874L4.08524 13.8408H5.99424L7.64742 14.7952L9.30084 13.8406H11.2098L12.1645 12.1871L13.8179 11.2325V9.32348L14.7726 7.67006L13.8179 6.01663V4.10788H13.8176ZM7.00432 10.5865C6.87147 10.7193 6.69645 10.7839 6.52221 10.7814C6.34793 10.7839 6.17294 10.7193 6.04009 10.5865L3.95631 8.50268C3.69528 8.24165 3.69528 7.81819 3.95631 7.55716L4.50795 7.00552C4.76898 6.74449 5.19244 6.74449 5.45347 7.00552L6.52221 8.07426L9.84112 4.75511C10.1022 4.49407 10.5256 4.49407 10.7866 4.75511L11.3383 5.30674C11.5993 5.56777 11.5993 5.99123 11.3383 6.25226L7.00432 10.5865Z" fill="#21AD36"/>
</svg>
