<svg width="31" height="31" viewBox="0 0 31 31" fill="none" xmlns="http://www.w3.org/2000/svg">
<path d="M1.41774 30.273H17.2466C17.7287 30.273 18.1195 29.8823 18.1195 29.4001V28.469C18.1195 27.5047 17.3379 26.7232 16.3736 26.7232V25.6796C16.3736 24.2977 15.2493 23.1733 13.8674 23.1733H4.79687C3.41499 23.1733 2.29066 24.2977 2.29066 25.6796V26.7232C1.32636 26.7232 0.54483 27.5047 0.54483 28.469V29.4001C0.54483 29.882 0.935822 30.273 1.41774 30.273Z" fill="#3179FF"/>
<path d="M11.4696 19.7017C12.0497 20.4717 13.1445 20.6256 13.9144 20.0452C14.6846 19.4651 14.8383 18.3703 14.2582 17.6001L9.00477 10.6289C8.42442 9.85873 7.32986 9.70506 6.55993 10.2852C5.78976 10.8655 5.63587 11.9601 6.21622 12.7302L11.4696 19.7017Z" fill="#3179FF"/>
<path d="M24.0191 10.2455C24.5995 11.0155 25.694 11.1694 26.4642 10.589C27.2341 10.0089 27.388 8.91435 26.8077 8.14419L21.5543 1.17293C20.9741 0.402771 19.8794 0.248874 19.1094 0.829225C18.3395 1.40958 18.1856 2.50413 18.7659 3.27429L24.0191 10.2455Z" fill="#3179FF"/>
<path d="M20.1879 15.3173C21.4782 14.3451 22.4468 13.1378 23.0526 11.8666L16.94 3.75488C15.5511 3.98698 14.1237 4.58506 12.8332 5.55754C11.5429 6.52979 10.5743 7.73709 9.96851 9.00804L16.0812 17.1202C17.4701 16.8881 18.8974 16.2898 20.1879 15.3173Z" fill="#3179FF"/>
<path d="M22.5461 15.5442C22.1397 15.9584 21.7116 16.3555 21.2397 16.7113C20.7676 17.0668 20.2677 17.3689 19.7578 17.6455L20.896 19.1561L23.6846 17.055L22.5461 15.5442Z" fill="#3179FF"/>
<path d="M24.735 18.4495L21.9464 20.5506L27.1998 27.5221C27.7801 28.2922 28.8747 28.4459 29.6446 27.8658C30.4148 27.2854 30.5685 26.1909 29.9883 25.4207L24.735 18.4495Z" fill="#3179FF"/>
</svg>
