<svg width="97" height="97" viewBox="0 0 97 97" fill="none" xmlns="http://www.w3.org/2000/svg">
<g clip-path="url(#clip0)">
<path d="M49.5101 8.08333H45.0643C43.7306 3.43542 39.4464 0 34.3539 0C29.2614 0 24.9772 3.43542 23.6435 8.08333H19.1976C17.5406 8.08333 16.1664 9.4575 16.1664 11.1146V17.1771C16.1664 21.0571 19.3593 24.25 23.2393 24.25H45.4685C49.3485 24.25 52.5414 21.0571 52.5414 17.1771V11.1146C52.5414 9.4575 51.1672 8.08333 49.5101 8.08333Z" fill="#3179FF"/>
<path d="M57.594 12.125H56.5836V17.1771C56.5836 23.3204 51.6123 28.2917 45.469 28.2917H23.2398C17.0965 28.2917 12.1252 23.3204 12.1252 17.1771V12.125H11.1148C4.97149 12.125 0.000244141 17.0963 0.000244141 23.2396V73.7604C0.000244141 79.9037 4.97149 84.875 11.1148 84.875H40.9423L41.8315 79.9037C42.2357 77.6404 43.2865 75.6196 44.9032 73.9625L48.1365 70.7292H15.1565C13.4994 70.7292 12.1252 69.355 12.1252 67.6979C12.1252 66.0408 13.4994 64.6667 15.1565 64.6667H53.5523C53.7544 64.6667 53.9161 64.6667 54.1182 64.7475H54.1586L68.7086 50.1975V23.2396C68.7086 17.0963 63.7373 12.125 57.594 12.125ZM53.5523 57.5938H15.1565C13.4994 57.5938 12.1252 56.2196 12.1252 54.5625C12.1252 52.9054 13.4994 51.5312 15.1565 51.5312H53.5523C55.2094 51.5312 56.5836 52.9054 56.5836 54.5625C56.5836 56.2196 55.2094 57.5938 53.5523 57.5938ZM53.5523 44.4583H15.1565C13.4994 44.4583 12.1252 43.0842 12.1252 41.4271C12.1252 39.77 13.4994 38.3958 15.1565 38.3958H53.5523C55.2094 38.3958 56.5836 39.77 56.5836 41.4271C56.5836 43.0842 55.2094 44.4583 53.5523 44.4583Z" fill="#3179FF"/>
<path d="M50.6308 96.9999C49.8346 96.9999 49.0586 96.6847 48.4887 96.1107C47.7895 95.4115 47.4743 94.4173 47.6481 93.4392L49.7902 81.294C49.8952 80.6837 50.1943 80.1179 50.6308 79.6773L80.6402 49.672C84.3262 45.9779 87.9475 46.9762 89.928 48.9566L94.9275 53.9562C97.688 56.7126 97.688 61.1988 94.9275 63.9593L64.9181 93.9687C64.4816 94.4092 63.9158 94.7042 63.3015 94.8093L51.1562 96.9514C50.9825 96.9837 50.8046 96.9999 50.6308 96.9999ZM62.776 91.8266H62.8165H62.776Z" fill="#3179FF"/>
</g>
<defs>
<clipPath id="clip0">
<rect width="97" height="97" fill="white" transform="translate(0.000244141)"/>
</clipPath>
</defs>
</svg>
