<svg width="96" height="96" viewBox="0 0 96 96" fill="none" xmlns="http://www.w3.org/2000/svg">
<g clip-path="url(#clip0)">
<path d="M49.0005 8H44.6005C43.2805 3.4 39.0405 0 34.0005 0C28.9605 0 24.7205 3.4 23.4005 8H19.0005C17.3605 8 16.0005 9.36 16.0005 11V17C16.0005 20.84 19.1605 24 23.0005 24H45.0005C48.8405 24 52.0005 20.84 52.0005 17V11C52.0005 9.36 50.6405 8 49.0005 8Z" fill="#00B4FF"/>
<path d="M57.0002 12H56.0002V17C56.0002 23.08 51.0802 28 45.0002 28H23.0002C16.9202 28 12.0002 23.08 12.0002 17V12H11.0002C4.92024 12 0.000236511 16.92 0.000236511 23V73C0.000236511 79.08 4.92024 84 11.0002 84H37.3602C35.3602 79.72 34.1602 75 34.0402 70H15.0002C13.3602 70 12.0002 68.64 12.0002 67C12.0002 65.36 13.3602 64 15.0002 64H34.3602C34.7202 61.56 35.3202 59.24 36.1202 57H15.0002C13.3602 57 12.0002 55.64 12.0002 54C12.0002 52.36 13.3602 51 15.0002 51H39.0002C40.5602 48.44 42.4002 46.08 44.5602 44H15.0002C13.3602 44 12.0002 42.64 12.0002 41C12.0002 39.36 13.3602 38 15.0002 38H52.7602C57.3602 35.6 62.5202 34.16 68.0002 34.04V23C68.0002 16.92 63.0802 12 57.0002 12Z" fill="#00B4FF"/>
<path d="M69.0002 42C54.1122 42 42.0002 54.112 42.0002 69C42.0002 83.888 54.1122 96 69.0002 96C83.8882 96 96.0002 83.888 96.0002 69C96.0002 54.112 83.8882 42 69.0002 42ZM82.0082 63.636L68.0082 79.636C67.2802 80.468 66.2402 80.964 65.1322 81C65.0882 81 65.0442 81 65.0002 81C63.9402 81 62.9242 80.58 62.1722 79.828L54.1722 71.828C52.6082 70.264 52.6082 67.736 54.1722 66.172C55.7362 64.608 58.2642 64.608 59.8282 66.172L64.8042 71.148L75.9882 58.364C77.4442 56.708 79.9682 56.532 81.6322 57.988C83.2962 59.444 83.4642 61.972 82.0082 63.636Z" fill="#00B4FF"/>
</g>
<defs>
<clipPath id="clip0">
<rect width="96" height="96" fill="white" transform="translate(0.000244141)"/>
</clipPath>
</defs>
</svg>
