<svg width="96" height="96" viewBox="0 0 96 96" fill="none" xmlns="http://www.w3.org/2000/svg">
<g clip-path="url(#clip0)">
<path d="M49 8H44.6C43.28 3.4 39.04 0 34 0C28.96 0 24.72 3.4 23.4 8H19C17.36 8 16 9.36 16 11V17C16 20.84 19.16 24 23 24H45C48.84 24 52 20.84 52 17V11C52 9.36 50.64 8 49 8Z" fill="#3179FF"/>
<path d="M57.0002 12H56.0002V17C56.0002 23.08 51.0802 28 45.0002 28H23.0002C16.9202 28 12.0002 23.08 12.0002 17V12H11.0002C4.92024 12 0.000244141 16.92 0.000244141 23V73C0.000244141 79.08 4.92024 84 11.0002 84H39.0402C37.0802 79.72 36.0002 75 36.0002 70H15.0002C13.3602 70 12.0002 68.64 12.0002 67C12.0002 65.36 13.3602 64 15.0002 64H36.5602C36.9602 61.56 37.6802 59.2 38.6002 57H15.0002C13.3602 57 12.0002 55.64 12.0002 54C12.0002 52.36 13.3602 51 15.0002 51H41.8002C43.5602 48.4 45.6802 46.04 48.0802 44H15.0002C13.3602 44 12.0002 42.64 12.0002 41C12.0002 39.36 13.3602 38 15.0002 38H53.0002C54.0002 38 54.9202 38.52 55.4402 39.28C59.2802 37.44 63.5202 36.32 68.0002 36.04V23C68.0002 16.92 63.0802 12 57.0002 12Z" fill="#3179FF"/>
<path d="M70.0005 44C55.6645 44 44.0005 55.664 44.0005 70C44.0005 84.336 55.6645 96 70.0005 96C84.3365 96 96.0005 84.336 96.0005 70C96.0005 55.664 84.3365 44 70.0005 44ZM69.2085 66.008L70.8365 66C75.3365 66 79.0045 69.812 79.0045 74.5C79.0045 78.02 76.9405 81.044 74.0045 82.332V84C74.0045 86.208 72.2125 88 70.0045 88C67.7965 88 66.0045 86.208 66.0045 84V83H65.0045C62.7965 83 61.0045 81.208 61.0045 79C61.0045 76.792 62.7965 75 65.0045 75H70.8365C70.8485 74.98 71.0045 74.812 71.0045 74.5C71.0045 74.188 70.8525 74.02 70.7965 73.992L69.1685 74C64.6685 74 61.0005 70.188 61.0005 65.5C61.0005 61.98 63.0645 58.956 66.0005 57.668V56C66.0005 53.792 67.7925 52 70.0005 52C72.2085 52 74.0005 53.792 74.0005 56V57H75.0005C77.2085 57 79.0005 58.792 79.0005 61C79.0005 63.208 77.2085 65 75.0005 65H69.1685C69.1565 65.02 69.0005 65.188 69.0005 65.5C69.0005 65.812 69.1525 65.98 69.2085 66.008Z" fill="#3179FF"/>
</g>
<defs>
<clipPath id="clip0">
<rect width="96" height="96" fill="white" transform="translate(0.000244141)"/>
</clipPath>
</defs>
</svg>
