<svg width="98" height="98" viewBox="0 0 98 98" fill="none" xmlns="http://www.w3.org/2000/svg">
<g clip-path="url(#clip0)">
<path d="M50.0212 8.16667H45.5296C44.1821 3.47083 39.8537 0 34.7087 0C29.5637 0 25.2354 3.47083 23.8879 8.16667H19.3962C17.7221 8.16667 16.3337 9.555 16.3337 11.2292V17.3542C16.3337 21.2742 19.5596 24.5 23.4796 24.5H45.9379C49.8579 24.5 53.0837 21.2742 53.0837 17.3542V11.2292C53.0837 9.555 51.6954 8.16667 50.0212 8.16667Z" fill="#00B4FF"/>
<path d="M58.1877 12.25H57.1669V17.3542C57.1669 23.5608 52.1444 28.5833 45.9377 28.5833H23.4794C17.2727 28.5833 12.2502 23.5608 12.2502 17.3542V12.25H11.2294C5.02274 12.25 0.000244141 17.2725 0.000244141 23.4792V74.5208C0.000244141 80.7275 5.02274 85.75 11.2294 85.75H40.8336V71.4583H15.3127C13.6386 71.4583 12.2502 70.07 12.2502 68.3958C12.2502 66.7217 13.6386 65.3333 15.3127 65.3333H41.5686C42.6711 62.1075 45.1211 59.535 48.2652 58.1875H15.3127C13.6386 58.1875 12.2502 56.7992 12.2502 55.125C12.2502 53.4508 13.6386 52.0625 15.3127 52.0625H54.1044C55.7786 52.0625 57.1669 53.4508 57.1669 55.125C57.1669 55.9008 56.8811 56.6358 56.3502 57.1667H57.1669C58.3919 57.1667 59.5352 57.4117 60.6377 57.7383C60.7602 57.575 60.9236 57.4117 61.0052 57.2892C61.1686 47.775 65.6194 44.1 69.4169 42.7525V23.4792C69.4169 17.2725 64.3944 12.25 58.1877 12.25ZM54.1044 44.9167H15.3127C13.6386 44.9167 12.2502 43.5283 12.2502 41.8542C12.2502 40.18 13.6386 38.7917 15.3127 38.7917H54.1044C55.7786 38.7917 57.1669 40.18 57.1669 41.8542C57.1669 43.5283 55.7786 44.9167 54.1044 44.9167Z" fill="#00B4FF"/>
<path d="M57.1669 97.9999H53.0836C50.8296 97.9999 49.0002 96.1706 49.0002 93.9166V69.4166C49.0002 67.1626 50.8296 65.3333 53.0836 65.3333H57.1669C59.4209 65.3333 61.2502 67.1626 61.2502 69.4166V93.9166C61.2502 96.1706 59.4209 97.9999 57.1669 97.9999Z" fill="#00B4FF"/>
<path d="M98.0002 75.1742C98.0002 69.7434 93.5902 65.3334 88.1594 65.3334H80.0336C80.4827 63.9042 80.8911 61.985 80.8911 59.7392C80.8911 53.1242 77.3386 50.1025 74.0719 50.1025C69.1719 50.1025 69.1719 55.3292 69.1719 57.8609C69.1719 60.9642 66.4769 63.7409 64.3127 65.4559C64.9661 66.64 65.3336 67.9875 65.3336 69.4167V93.9167C65.3336 94.2842 65.2927 94.6517 65.2519 95.0192C68.8044 96.4892 74.4802 98 82.6469 98H85.7502C90.6502 98 94.9377 94.4475 95.6727 89.7517L95.5094 89.7109C97.5102 85.5459 98.0002 75.2967 98.0002 75.1742Z" fill="#00B4FF"/>
</g>
<defs>
<clipPath id="clip0">
<rect width="98" height="98" fill="white" transform="translate(0.000244141)"/>
</clipPath>
</defs>
</svg>
