<svg width="63" height="39" viewBox="0 0 63 39" fill="none" xmlns="http://www.w3.org/2000/svg">
<path d="M0.853073 33.0858H62.9843V38.6443H0.853073V33.0858Z" fill="#ADC9FF"/>
<path d="M0.852722 5.59521H62.9839V0.0372749H0.852722V5.59521Z" fill="#ADC9FF"/>
<path d="M30.6845 10.6131L27.5707 25.1365H23.8047L26.9185 10.6131H30.6845ZM46.5269 19.9909L48.5099 14.5369L49.649 19.9909H46.5269ZM50.7306 25.1365H54.2124L51.1704 10.6131H47.9579C47.2333 10.6131 46.6245 11.0326 46.3543 11.6778L40.7035 25.1365H44.6582L45.4426 22.967H50.2741L50.7306 25.1365ZM40.8999 20.3947C40.9157 16.5624 35.589 16.3498 35.6238 14.6373C35.6366 14.1168 36.1335 13.5625 37.2214 13.4209C37.7603 13.3514 39.249 13.2959 40.9353 14.0711L41.595 10.9896C40.6889 10.6627 39.5231 10.348 38.0727 10.348C34.3499 10.348 31.731 12.3209 31.7102 15.1482C31.6858 17.2396 33.5807 18.4052 35.0057 19.1017C36.4736 19.8131 36.9658 20.2703 36.9589 20.906C36.9485 21.8804 35.7868 22.3118 34.7067 22.3278C32.8127 22.3578 31.7146 21.8172 30.8389 21.4101L30.1554 24.5938C31.0365 24.9966 32.6603 25.3467 34.3422 25.3645C38.2998 25.3645 40.8883 23.4142 40.8999 20.3947ZM25.303 10.6131L19.2017 25.1365H15.2208L12.2181 13.5456C12.0363 12.8333 11.878 12.5712 11.3239 12.2701C10.4184 11.7793 8.92316 11.3203 7.60881 11.0347L7.69748 10.6131H14.1062C14.9218 10.6131 15.6562 11.1549 15.8428 12.0931L17.4294 20.498L21.3462 10.6131H25.303Z" fill="#ADC9FF"/>
<path d="M35.5044 29.1342H33.9743V30.5552H35.6859V30.9824H33.4586V27.0402H35.5981V27.4674H33.9743V28.7129H35.5044V29.1342Z" fill="#ADC9FF"/>
<path d="M36.4763 26.8298H36.992V30.9822H36.4763V26.8298Z" fill="#ADC9FF"/>
<path d="M39.8046 29.2917C39.8105 28.9702 39.6698 28.4613 39.0895 28.4613C38.5619 28.4613 38.339 28.9351 38.298 29.2917H39.8046ZM38.2923 29.6602C38.3039 30.3564 38.7437 30.6429 39.2651 30.6429C39.6346 30.6429 39.8632 30.5785 40.0509 30.4968L40.1447 30.8653C39.9629 30.9469 39.6466 31.0464 39.1948 31.0464C38.3218 31.0464 37.8002 30.4674 37.8002 29.6136C37.8002 28.7597 38.3039 28.0928 39.1306 28.0928C40.0625 28.0928 40.303 28.9001 40.303 29.4206C40.303 29.5257 40.297 29.6017 40.2851 29.6602H38.2923Z" fill="#ADC9FF"/>
<path d="M43.1102 30.8827C42.9754 30.9472 42.6763 31.0466 42.2954 31.0466C41.4396 31.0466 40.8829 30.4677 40.8829 29.6019C40.8829 28.7305 41.4804 28.0931 42.4067 28.0931C42.7114 28.0931 42.981 28.1688 43.1218 28.2451L43.0048 28.637C42.8813 28.5726 42.6879 28.5022 42.4067 28.5022C41.7559 28.5022 41.4045 28.9876 41.4045 29.5728C41.4045 30.2278 41.8265 30.6313 42.3892 30.6313C42.6823 30.6313 42.8757 30.5612 43.0221 30.4968L43.1102 30.8827Z" fill="#ADC9FF"/>
<path d="M44.5566 27.4729V28.1513H45.2949V28.5429H44.5566V30.0696C44.5566 30.4208 44.6563 30.6194 44.9435 30.6194C45.0839 30.6194 45.1664 30.6079 45.2425 30.5841L45.266 30.9763C45.1664 31.0114 45.008 31.0464 44.8087 31.0464C44.5682 31.0464 44.3748 30.9644 44.2519 30.8302C44.1112 30.672 44.0526 30.4208 44.0526 30.0874V28.5429H43.6128V28.1513H44.0526V27.6249L44.5566 27.4729Z" fill="#ADC9FF"/>
<path d="M46.0152 29.0348C46.0152 28.7013 46.009 28.4148 45.9917 28.1515H46.4431L46.4667 28.7129H46.4839C46.6131 28.3329 46.9294 28.093 47.2751 28.093C47.3281 28.093 47.3692 28.0989 47.4162 28.1046V28.5903C47.3632 28.5784 47.3109 28.5784 47.24 28.5784C46.877 28.5784 46.6187 28.8474 46.5485 29.2337C46.5369 29.3038 46.5309 29.3913 46.5309 29.4736V30.9824H46.0152V29.0348Z" fill="#ADC9FF"/>
<path d="M48.342 29.5728C48.342 30.1928 48.6937 30.6607 49.1978 30.6607C49.6903 30.6607 50.0592 30.1984 50.0592 29.561C50.0592 29.0815 49.8191 28.4788 49.2094 28.4788C48.6059 28.4788 48.342 29.0405 48.342 29.5728ZM50.5871 29.5434C50.5871 30.5903 49.8542 31.0466 49.1743 31.0466C48.4122 31.0466 47.8147 30.4849 47.8147 29.5903C47.8147 28.6486 48.4417 28.0931 49.2213 28.0931C50.036 28.0931 50.5871 28.6836 50.5871 29.5434Z" fill="#ADC9FF"/>
<path d="M51.3775 28.9175C51.3775 28.6195 51.3712 28.3855 51.354 28.1516H51.8111L51.8405 28.6195H51.8521C51.9929 28.3561 52.3211 28.0931 52.79 28.0931C53.1825 28.0931 53.7922 28.327 53.7922 29.2976V30.9822H53.2766V29.3504C53.2766 28.8944 53.1067 28.5141 52.6201 28.5141C52.286 28.5141 52.022 28.754 51.9286 29.0405C51.9048 29.1049 51.8932 29.1925 51.8932 29.2804V30.9822H51.3775V28.9175Z" fill="#ADC9FF"/>
</svg>
