<svg width="132" height="24" viewBox="0 0 132 24" fill="none" xmlns="http://www.w3.org/2000/svg">
<path d="M128.712 2.6463C127.051 1.50294 124.537 0.9263 121.241 0.9263H112.611L109.402 18.4262H98.0957L98.8224 14.4559H105.633L106.44 9.99652L99.6334 10.0064L100.362 6.05372H107.377L108.311 0.927322H94.0641L91.0181 17.5271H85.7899L88.8565 0.926449H81.4091L78.3631 17.5262H73.27L76.3395 0.926449H68.8961L65.6836 18.4264H54.296L55.0159 14.456H61.854L62.662 10.022L55.8304 10.0151L56.5552 6.0546H63.6493L64.5768 0.926025H20.1812L17.6543 14.7934L12.6221 0.926025H4.89533L0.736694 23.5576H8.11582L10.6329 9.30777L15.5162 23.5576H41.9623L45.1777 6.05242H49.3138L46.0984 23.5576H115.683L117.701 12.5077L120.964 23.5576H128.348L124.966 14.5285L125.739 14.3612C127.444 13.9942 128.773 13.206 129.698 12.0242C130.623 10.8317 131.094 9.30057 131.094 7.46144C131.094 5.32029 130.314 3.74496 128.71 2.64499L128.712 2.6463ZM35.5409 18.4262H24.2454L24.975 14.4559H32.06L32.8631 9.98386H25.8464L26.5222 6.05484H37.8012L35.5388 18.4262L35.5409 18.4262ZM122.629 10.8032C121.886 11.3247 120.81 11.5786 119.338 11.5786H117.878L118.998 5.50531H120.071C121.294 5.50531 122.185 5.7021 122.8 6.10355C123.28 6.41843 123.851 7.04131 123.851 8.21911C123.849 9.64392 123.185 10.4095 122.627 10.803L122.629 10.8032Z" fill="#ADC9FF"/>
</svg>
