<svg width="63" height="40" viewBox="0 0 63 40" fill="none" xmlns="http://www.w3.org/2000/svg">
<path d="M0.725906 33.9224H62.8571V39.481H0.725906V33.9224Z" fill="#ADC9FF"/>
<path d="M0.725815 6.43164H62.857V0.873701H0.725815V6.43164Z" fill="#ADC9FF"/>
<path d="M31.707 12.0247L28.2594 27.7843H24.0897L27.5372 12.0247H31.707ZM49.2479 22.2008L51.4435 16.2825L52.7047 22.2008H49.2479ZM53.9023 27.7843H57.7574L54.3892 12.0247H50.8323C50.03 12.0247 49.356 12.4799 49.0568 13.18L42.8002 27.7843H47.1788L48.0473 25.4302H53.3969L53.9023 27.7843ZM43.0176 22.6389C43.0351 18.4803 37.1373 18.2497 37.1758 16.3914C37.19 15.8266 37.7402 15.2251 38.9448 15.0715C39.5414 14.9961 41.1898 14.9358 43.0569 15.777L43.7873 12.4332C42.7841 12.0785 41.4932 11.737 39.8874 11.737C35.7654 11.737 32.8657 13.8778 32.8427 16.9459C32.8157 19.2152 34.9137 20.4801 36.4915 21.2359C38.1168 22.0078 38.6617 22.5039 38.6542 23.1937C38.6426 24.2511 37.3564 24.7192 36.1604 24.7366C34.0634 24.7691 32.8476 24.1824 31.878 23.7408L31.1212 27.1954C32.0968 27.6326 33.8947 28.0124 35.7568 28.0317C40.1387 28.0317 43.0048 25.9154 43.0176 22.6389ZM25.7486 12.0247L18.9931 27.7843H14.5855L11.2609 15.2068C11.0596 14.4339 10.8843 14.1494 10.2708 13.8227C9.26823 13.2902 7.61266 12.7921 6.15739 12.4822L6.25557 12.0247H13.3513C14.2544 12.0247 15.0675 12.6127 15.2741 13.6307L17.0308 22.751L21.3676 12.0247H25.7486Z" fill="#ADC9FF"/>
</svg>
