<svg width="74" height="26" viewBox="0 0 74 26" fill="none" xmlns="http://www.w3.org/2000/svg">
<path fill-rule="evenodd" clip-rule="evenodd" d="M52.6729 6.89505C54.3147 6.89505 55.6455 5.56493 55.6455 3.92472C55.6455 2.28354 54.3147 0.952148 52.6729 0.952148C51.033 0.952148 49.7029 2.28354 49.7029 3.92472C49.7029 5.56493 51.033 6.89505 52.6729 6.89505ZM29.907 8.49917C29.7728 8.83609 28.8074 11.5631 26.4726 14.3894V2.30462L20.2515 3.53414V25.4391H26.4726V18.6681C28.2744 21.3705 29.1641 25.4391 29.1641 25.4391H36.6157C35.8786 22.3749 32.6544 16.7248 32.6544 16.7248C35.5481 13.0561 36.8191 9.14683 37.0213 8.49917H29.907ZM46.2618 8.27051C40.6897 8.44935 37.8612 10.9493 37.8612 15.9188V25.4391H43.9401V17.6756C43.9401 14.6998 44.3297 13.4243 47.8608 13.3026V8.3577C47.2665 8.23155 46.2618 8.27051 46.2618 8.27051ZM9.81817 10.9113C9.05619 10.8611 7.29207 10.7471 7.29207 9.15896C7.29207 7.24251 9.83191 7.24251 10.7845 7.24251C12.4596 7.24251 14.629 7.73751 16.1782 8.2009C16.1782 8.2009 17.0423 8.50556 17.7778 8.81757L17.8462 8.8361V3.58748L17.7523 3.55969C15.9239 2.92002 13.798 2.30462 9.8565 2.30462C3.06059 2.30462 0.652649 6.26368 0.652649 9.65524C0.652649 11.6103 1.49064 16.2116 9.27367 16.7424C9.93346 16.783 11.6845 16.8839 11.6845 18.525C11.6845 19.8801 10.2509 20.6791 7.83976 20.6791C5.19741 20.6791 2.63425 20.0053 1.07739 19.3662V24.772C3.40805 25.3829 6.0354 25.6882 9.11463 25.6882C15.7595 25.6882 18.7356 21.9425 18.7356 18.23C18.7356 14.0205 15.4053 11.2856 9.81817 10.9113ZM49.6595 25.4391H55.6892V8.51834H49.6595V25.4391ZM67.043 3.38341V25.4391H73.0737V2.30462L67.043 3.38341ZM58.2434 3.38341L64.2684 2.30462V25.4391H58.2434V3.38341Z" fill="#ADC9FF"/>
</svg>
