<svg width="65" height="53" viewBox="0 0 65 53" fill="none" xmlns="http://www.w3.org/2000/svg">
<path d="M16.6697 45.6442V43.073C16.6848 42.8568 16.6533 42.6398 16.5773 42.4366C16.5013 42.2334 16.3826 42.0486 16.229 41.8945C16.0754 41.7404 15.8905 41.6206 15.6866 41.543C15.4828 41.4655 15.2646 41.4319 15.0466 41.4446C14.7613 41.426 14.4762 41.4838 14.2211 41.612C13.9659 41.7401 13.7502 41.9339 13.5962 42.1731C13.4559 41.9411 13.2551 41.7509 13.015 41.6227C12.775 41.4945 12.5045 41.433 12.2322 41.4446C11.9947 41.4327 11.7583 41.4826 11.5463 41.5893C11.3343 41.696 11.1541 41.8559 11.0235 42.0531V41.5474H10.1256V45.6442H11.0321V43.3901C11.0128 43.25 11.025 43.1074 11.0676 42.9725C11.1103 42.8376 11.1825 42.7138 11.279 42.6098C11.3755 42.5058 11.494 42.4242 11.6259 42.371C11.7578 42.3177 11.9 42.294 12.0422 42.3017C12.6379 42.3017 12.9401 42.6873 12.9401 43.3816V45.6614H13.8466V43.3901C13.8281 43.2502 13.8408 43.1079 13.8837 42.9733C13.9267 42.8388 13.9989 42.7152 14.0953 42.6114C14.1916 42.5076 14.3097 42.4261 14.4413 42.3725C14.5729 42.319 14.7147 42.2948 14.8567 42.3017C15.4696 42.3017 15.7632 42.6873 15.7632 43.3816V45.6614L16.6697 45.6442ZM30.0815 41.5474H28.6052V40.3047H27.6987V41.5474H26.8785V42.3616H27.716V44.2472C27.716 45.1986 28.0872 45.7642 29.1491 45.7642C29.5458 45.7655 29.9349 45.6556 30.2714 45.4471L30.0124 44.6843C29.7717 44.8269 29.4984 44.9065 29.2182 44.9157C28.7865 44.9157 28.6225 44.6415 28.6225 44.2301V42.3616H30.0901L30.0815 41.5474ZM37.7392 41.4446C37.5203 41.4382 37.3037 41.4906 37.1123 41.5961C36.9208 41.7017 36.7616 41.8566 36.6514 42.0445V41.5474H35.7622V45.6442H36.6601V43.3473C36.6601 42.6702 36.9536 42.2931 37.5234 42.2931C37.7154 42.2905 37.9061 42.3254 38.0846 42.3959L38.3608 41.5389C38.1558 41.466 37.9397 41.4284 37.722 41.4274L37.7392 41.4446ZM26.162 41.8731C25.6537 41.5731 25.0694 41.4244 24.4785 41.4446C23.4339 41.4446 22.7518 41.9417 22.7518 42.7559C22.7518 43.4244 23.2526 43.8358 24.1763 43.9644L24.608 44.0244C25.1001 44.0929 25.3332 44.2215 25.3332 44.4529C25.3332 44.77 25.0051 44.95 24.3922 44.95C23.8991 44.9642 23.4156 44.8132 23.0195 44.5215L22.5878 45.2157C23.1108 45.5782 23.7372 45.7645 24.3749 45.7471C25.5663 45.7471 26.2569 45.19 26.2569 44.41C26.2569 43.6301 25.713 43.313 24.8152 43.1844L24.3835 43.1244C23.995 43.073 23.6842 42.9959 23.6842 42.7216C23.6842 42.4474 23.9778 42.2417 24.4699 42.2417C24.9247 42.2469 25.3706 42.3679 25.7648 42.5931L26.162 41.8731ZM50.21 41.4446C49.9911 41.4382 49.7745 41.4906 49.5831 41.5961C49.3916 41.7017 49.2324 41.8566 49.1222 42.0445V41.5474H48.233V45.6442H49.1309V43.3473C49.1309 42.6702 49.4244 42.2931 49.9942 42.2931C50.1862 42.2905 50.3769 42.3254 50.5554 42.3959L50.8316 41.5389C50.6266 41.466 50.4105 41.4284 50.1928 41.4274L50.21 41.4446ZM38.6414 43.5873C38.6307 43.8752 38.6807 44.1621 38.7881 44.4297C38.8956 44.6973 39.0581 44.9398 39.2653 45.1414C39.4726 45.3431 39.7199 45.4996 39.9916 45.601C40.2632 45.7023 40.5532 45.7462 40.8429 45.7299C41.382 45.7572 41.9118 45.5829 42.3278 45.2414L41.8962 44.5215C41.5858 44.7564 41.2073 44.8857 40.817 44.89C40.4851 44.8634 40.1755 44.7136 39.9498 44.4707C39.724 44.2277 39.5987 43.9092 39.5987 43.5787C39.5987 43.2481 39.724 42.9297 39.9498 42.6867C40.1755 42.4437 40.4851 42.294 40.817 42.2674C41.2073 42.2717 41.5858 42.4009 41.8962 42.6359L42.3278 41.916C41.9118 41.5745 41.382 41.4002 40.8429 41.4274C40.5532 41.4111 40.2632 41.4551 39.9916 41.5564C39.7199 41.6577 39.4726 41.8143 39.2653 42.0159C39.0581 42.2176 38.8956 42.46 38.7881 42.7277C38.6807 42.9953 38.6307 43.2822 38.6414 43.5701V43.5873ZM47.0502 43.5873V41.5474H46.1524V42.0445C45.9999 41.8498 45.803 41.6938 45.5778 41.5895C45.3526 41.4852 45.1057 41.4355 44.8574 41.4446C44.285 41.4446 43.736 41.6703 43.3312 42.0722C42.9265 42.474 42.6991 43.019 42.6991 43.5873C42.6991 44.1555 42.9265 44.7005 43.3312 45.1024C43.736 45.5042 44.285 45.7299 44.8574 45.7299C45.1057 45.739 45.3526 45.6894 45.5778 45.5851C45.803 45.4807 45.9999 45.3248 46.1524 45.13V45.6271H47.0502V43.5873ZM43.7092 43.5873C43.7235 43.3461 43.8085 43.1144 43.9538 42.9206C44.0991 42.7268 44.2983 42.5795 44.5269 42.4967C44.7555 42.4139 45.0035 42.3993 45.2404 42.4546C45.4772 42.51 45.6926 42.6329 45.86 42.8082C46.0274 42.9836 46.1394 43.2037 46.1824 43.4414C46.2254 43.6792 46.1974 43.9243 46.1018 44.1464C46.0063 44.3686 45.8474 44.5582 45.6447 44.6918C45.442 44.8255 45.2043 44.8973 44.961 44.8986C44.7901 44.9007 44.6206 44.8677 44.4631 44.8017C44.3057 44.7356 44.1637 44.638 44.0461 44.5148C43.9285 44.3916 43.8379 44.2456 43.7799 44.086C43.7219 43.9264 43.6978 43.7566 43.7092 43.5873ZM32.8744 41.4446C32.3019 41.4525 31.7562 41.6859 31.3571 42.0934C30.958 42.5008 30.7382 43.049 30.7463 43.6173C30.7543 44.1855 30.9894 44.7274 31.3998 45.1236C31.8102 45.5198 32.3624 45.7379 32.9348 45.7299C33.5559 45.7616 34.1666 45.563 34.6485 45.1728L34.2168 44.5129C33.876 44.7843 33.4537 44.9351 33.0168 44.9414C32.72 44.9668 32.425 44.8762 32.1944 44.6889C31.9639 44.5016 31.816 44.2325 31.7823 43.9387H34.8471C34.8471 43.8272 34.8471 43.7158 34.8471 43.5958C34.8471 42.3102 34.0442 41.4532 32.8873 41.4532L32.8744 41.4446ZM32.8744 42.2417C33.0087 42.2388 33.1423 42.2623 33.2675 42.3107C33.3928 42.3591 33.5072 42.4316 33.6042 42.5239C33.7012 42.6162 33.7789 42.7266 33.8329 42.8488C33.8869 42.971 33.9162 43.1025 33.919 43.2359H31.7607C31.7763 42.9608 31.8998 42.7027 32.1047 42.5169C32.3097 42.331 32.5797 42.2323 32.8571 42.2417H32.8744ZM55.3684 43.5958V39.9019H54.5051V42.0445C54.3526 41.8498 54.1557 41.6938 53.9305 41.5895C53.7053 41.4852 53.4584 41.4355 53.2101 41.4446C52.6377 41.4446 52.0887 41.6703 51.6839 42.0722C51.2792 42.474 51.0518 43.019 51.0518 43.5873C51.0518 44.1555 51.2792 44.7005 51.6839 45.1024C52.0887 45.5042 52.6377 45.7299 53.2101 45.7299C53.4584 45.739 53.7053 45.6894 53.9305 45.5851C54.1557 45.4807 54.3526 45.3248 54.5051 45.13V45.6271H55.3684V43.5958ZM56.8663 45.0486C56.9224 45.0479 56.9781 45.0581 57.0303 45.0786C57.0799 45.0987 57.1253 45.1277 57.1642 45.1643C57.2021 45.2012 57.2328 45.2448 57.2548 45.2928C57.2767 45.3429 57.2879 45.3968 57.2879 45.4514C57.2879 45.5059 57.2767 45.5599 57.2548 45.61C57.2328 45.658 57.2021 45.7016 57.1642 45.7385C57.1253 45.7751 57.0799 45.8041 57.0303 45.8242C56.9787 45.8469 56.9228 45.8585 56.8663 45.8585C56.7845 45.8579 56.7045 45.8342 56.6357 45.7902C56.5669 45.7462 56.5122 45.6837 56.4778 45.61C56.4562 45.5598 56.4451 45.5059 56.4451 45.4514C56.4451 45.3969 56.4562 45.3429 56.4778 45.2928C56.4998 45.2448 56.5305 45.2012 56.5685 45.1643C56.6073 45.1277 56.6527 45.0987 56.7023 45.0786C56.7585 45.0564 56.8188 45.0461 56.8793 45.0486H56.8663ZM56.8663 45.7728C56.9094 45.7731 56.952 45.7643 56.9915 45.7471C57.0286 45.7306 57.0623 45.7074 57.0908 45.6785C57.1448 45.62 57.1747 45.5436 57.1747 45.4642C57.1747 45.3849 57.1448 45.3085 57.0908 45.25C57.0624 45.2211 57.0287 45.1978 56.9915 45.1814C56.952 45.1643 56.9094 45.1556 56.8663 45.1557C56.8233 45.1559 56.7807 45.1647 56.7411 45.1814C56.7023 45.1972 56.6671 45.2205 56.6375 45.25C56.5835 45.3085 56.5536 45.3849 56.5536 45.4642C56.5536 45.5436 56.5835 45.62 56.6375 45.6785C56.6672 45.7079 56.7024 45.7312 56.7411 45.7471C56.7847 45.7657 56.8319 45.7745 56.8793 45.7728H56.8663ZM56.8922 45.2628C56.9325 45.2609 56.9722 45.273 57.0044 45.2971C57.0177 45.308 57.0281 45.3218 57.0348 45.3375C57.0416 45.3531 57.0445 45.3701 57.0433 45.3871C57.0439 45.4013 57.0415 45.4156 57.0363 45.4288C57.0311 45.4421 57.0232 45.4542 57.0131 45.4642C56.9881 45.4868 56.9561 45.5004 56.9224 45.5028L57.0476 45.6442H56.9483L56.8318 45.5028H56.7929V45.6442H56.7109V45.2671L56.8922 45.2628ZM56.7972 45.3357V45.4385H56.8922C56.9091 45.4435 56.9271 45.4435 56.944 45.4385C56.947 45.4326 56.9486 45.426 56.9486 45.4193C56.9486 45.4126 56.947 45.406 56.944 45.4C56.947 45.394 56.9486 45.3874 56.9486 45.3807C56.9486 45.374 56.947 45.3674 56.944 45.3614C56.9271 45.3564 56.9091 45.3564 56.8922 45.3614L56.7972 45.3357ZM52.0489 43.5958C52.0632 43.3547 52.1483 43.123 52.2936 42.9292C52.4389 42.7354 52.6381 42.588 52.8667 42.5053C53.0953 42.4225 53.3433 42.4078 53.5801 42.4632C53.817 42.5185 54.0324 42.6415 54.1998 42.8168C54.3671 42.9921 54.4792 43.2122 54.5222 43.45C54.5652 43.6878 54.5371 43.9328 54.4416 44.155C54.346 44.3772 54.1871 44.5667 53.9844 44.7004C53.7817 44.834 53.5441 44.9059 53.3008 44.9072C53.1298 44.9093 52.9603 44.8763 52.8029 44.8103C52.6454 44.7442 52.5034 44.6465 52.3859 44.5234C52.2683 44.4002 52.1777 44.2542 52.1197 44.0946C52.0617 43.935 52.0376 43.7652 52.0489 43.5958ZM21.7331 43.5958V41.5474H20.8352V42.0445C20.6828 41.8498 20.4858 41.6938 20.2606 41.5895C20.0355 41.4852 19.7885 41.4355 19.5402 41.4446C18.9678 41.4446 18.4188 41.6703 18.0141 42.0722C17.6093 42.474 17.3819 43.019 17.3819 43.5873C17.3819 44.1555 17.6093 44.7005 18.0141 45.1024C18.4188 45.5042 18.9678 45.7299 19.5402 45.7299C19.7885 45.739 20.0355 45.6894 20.2606 45.5851C20.4858 45.4807 20.6828 45.3248 20.8352 45.13V45.6271H21.7331V43.5958ZM18.392 43.5958C18.4063 43.3547 18.4914 43.123 18.6367 42.9292C18.782 42.7354 18.9812 42.588 19.2098 42.5053C19.4384 42.4225 19.6864 42.4078 19.9232 42.4632C20.1601 42.5185 20.3755 42.6415 20.5428 42.8168C20.7102 42.9921 20.8223 43.2122 20.8653 43.45C20.9082 43.6878 20.8802 43.9328 20.7847 44.155C20.6891 44.3772 20.5302 44.5667 20.3275 44.7004C20.1248 44.834 19.8872 44.9059 19.6438 44.9072C19.4722 44.9105 19.3017 44.8784 19.1433 44.8129C18.9848 44.7474 18.8418 44.6499 18.7232 44.5266C18.6047 44.4033 18.5133 44.2569 18.4548 44.0966C18.3963 43.9364 18.372 43.7659 18.3834 43.5958H18.392Z" fill="#ADC9FF"/>
<path d="M39.4621 10.3289H25.8646V34.5883H39.4621V10.3289Z" fill="#ADC9FF"/>
<path d="M26.7283 22.4607C26.7258 20.124 27.2589 17.8174 28.2872 15.7155C29.3155 13.6136 30.8121 11.7716 32.6637 10.3288C30.3712 8.54023 27.618 7.42799 24.7189 7.11926C21.8197 6.81052 18.8916 7.31775 16.2691 8.58295C13.6466 9.84816 11.4356 11.8203 9.88867 14.274C8.34179 16.7277 7.52147 19.5639 7.52147 22.4585C7.52147 25.3532 8.34179 28.1894 9.88867 30.6431C11.4356 33.0968 13.6466 35.0689 16.2691 36.3341C18.8916 37.5993 21.8197 38.1066 24.7189 37.7978C27.618 37.4891 30.3712 36.3769 32.6637 34.5882C30.8127 33.146 29.3164 31.3046 28.2881 29.2035C27.2598 27.1024 26.7264 24.7967 26.7283 22.4607Z" fill="#A0BDF6"/>
<path d="M57.808 22.4605C57.808 25.3554 56.9874 28.1918 55.4403 30.6456C53.8931 33.0993 51.6818 35.0714 49.0589 36.3365C46.4361 37.6015 43.5077 38.1084 40.6084 37.7992C37.7091 37.49 34.9559 36.3773 32.6635 34.5881C34.5138 33.1445 36.0096 31.3027 37.0382 29.2015C38.0668 27.1002 38.6012 24.7946 38.6012 22.4584C38.6012 20.1222 38.0668 17.8165 37.0382 15.7153C36.0096 13.6141 34.5138 11.7722 32.6635 10.3287C34.9559 8.5395 37.7091 7.42672 40.6084 7.11755C43.5077 6.80837 46.4361 7.31526 49.0589 8.58029C51.6818 9.84532 53.8931 11.8174 55.4403 14.2712C56.9874 16.725 57.808 19.5614 57.808 22.4562V22.4605Z" fill="#ADC9FF"/>
<path d="M56.3223 32.0169V31.5198H56.5252V31.417H56.0115V31.5198H56.2317V32.0169H56.3223ZM57.3195 32.0169V31.417H57.1641L56.9828 31.8455L56.8015 31.417H56.6633V32.0169H56.7756V31.567L56.9439 31.9569H57.0605L57.2288 31.567V32.0212L57.3195 32.0169Z" fill="#ADC9FF"/>
</svg>
