<svg width="50" height="40" viewBox="0 0 50 40" fill="none" xmlns="http://www.w3.org/2000/svg">
<path d="M49.4598 25.8616V25.2614H49.3033L49.1223 25.6736L48.9422 25.2614H48.7848V25.8616H48.896V25.4089L49.0652 25.7996H49.1803L49.3496 25.408V25.8616H49.4598ZM48.467 25.8616V25.3637H48.6677V25.2623H48.156V25.3637H48.3568V25.8616H48.467Z" fill="#ADC9FF"/>
<path d="M31.7165 28.4359H18.2138V4.16919H31.7165V28.4359Z" fill="#ADC9FF"/>
<path d="M19.0791 16.3008C19.0791 11.3782 21.3839 6.99324 24.9731 4.16742C22.3484 2.10103 19.0359 0.867683 15.4359 0.867683C6.91333 0.867683 0.00479126 7.77721 0.00479126 16.3008C0.00479126 24.8244 6.91333 31.7339 15.4359 31.7339C19.0359 31.7339 22.3484 30.5005 24.9731 28.4342C21.3839 25.6083 19.0791 21.2234 19.0791 16.3008Z" fill="#A0BDF6"/>
<path d="M49.9275 16.3008C49.9275 24.8244 43.0189 31.7339 34.4963 31.7339C30.8963 31.7339 27.5838 30.5005 24.9582 28.4342C28.5484 25.6083 30.8532 21.2234 30.8532 16.3008C30.8532 11.3782 28.5484 6.99324 24.9582 4.16742C27.5838 2.10103 30.8963 0.867683 34.4963 0.867683C43.0189 0.867683 49.9275 7.77721 49.9275 16.3008Z" fill="#ADC9FF"/>
<path d="M36.2693 35.2887C36.4488 35.2887 36.7069 35.323 36.9041 35.4005L36.6294 36.2404C36.441 36.1629 36.2526 36.1374 36.0721 36.1374C35.4892 36.1374 35.1978 36.5142 35.1978 37.1912V39.4891H34.3059V35.3917H35.189V35.8892C35.4206 35.5291 35.7551 35.2887 36.2693 35.2887ZM32.9745 36.2061H31.5174V38.0576C31.5174 38.4687 31.6626 38.7434 32.1091 38.7434C32.3406 38.7434 32.632 38.6659 32.8969 38.5119L33.154 39.2743C32.8714 39.4715 32.426 39.5922 32.0404 39.5922C30.9856 39.5922 30.6176 39.026 30.6176 38.0743V36.2061H29.7856V35.3917H30.6176V34.1485H31.5174V35.3917H32.9745V36.2061ZM21.5642 37.0803C21.6594 36.4887 22.0185 36.0854 22.6533 36.0854C23.2273 36.0854 23.5963 36.4455 23.6905 37.0803H21.5642ZM24.6167 37.4404C24.6079 36.1629 23.819 35.2887 22.67 35.2887C21.47 35.2887 20.6301 36.1629 20.6301 37.4404C20.6301 38.7424 21.5044 39.5912 22.7309 39.5912C23.348 39.5912 23.9132 39.4371 24.4107 39.0172L23.973 38.3568C23.6306 38.6316 23.193 38.7856 22.7819 38.7856C22.2079 38.7856 21.6849 38.5197 21.5564 37.7828H24.599C24.6079 37.671 24.6167 37.5601 24.6167 37.4404ZM28.5336 36.4376C28.2854 36.2826 27.7801 36.0854 27.2571 36.0854C26.7684 36.0854 26.477 36.2659 26.477 36.5662C26.477 36.8399 26.7851 36.9174 27.1707 36.9685L27.5907 37.0283C28.4826 37.1578 29.0222 37.5346 29.0222 38.2548C29.0222 39.0348 28.3364 39.5922 27.1541 39.5922C26.4849 39.5922 25.8677 39.4204 25.3791 39.0604L25.799 38.3657C26.0993 38.5972 26.5457 38.7945 27.1629 38.7945C27.7712 38.7945 28.097 38.6149 28.097 38.297C28.097 38.0664 27.8654 37.9369 27.3768 37.8692L26.9568 37.8093C26.0394 37.6798 25.542 37.2687 25.542 36.6005C25.542 35.7861 26.2111 35.2887 27.2482 35.2887C27.8998 35.2887 28.4914 35.4349 28.9192 35.7174L28.5336 36.4376ZM39.5278 36.1354C39.3443 36.1354 39.1746 36.1678 39.0166 36.2316C38.8596 36.2963 38.7232 36.3866 38.6084 36.5024C38.4936 36.6182 38.4034 36.7575 38.3376 36.9194C38.2719 37.0813 38.2395 37.2599 38.2395 37.4541C38.2395 37.6494 38.2719 37.827 38.3376 37.9889C38.4034 38.1508 38.4936 38.2901 38.6084 38.4059C38.7232 38.5217 38.8596 38.6119 39.0166 38.6767C39.1746 38.7415 39.3443 38.7729 39.5278 38.7729C39.7113 38.7729 39.882 38.7415 40.039 38.6767C40.197 38.6119 40.3344 38.5217 40.4492 38.4059C40.5659 38.2901 40.6562 38.1508 40.7229 37.9889C40.7886 37.827 40.821 37.6494 40.821 37.4541C40.821 37.2599 40.7886 37.0813 40.7229 36.9194C40.6562 36.7575 40.5659 36.6182 40.4492 36.5024C40.3344 36.3866 40.197 36.2963 40.039 36.2316C39.882 36.1678 39.7113 36.1354 39.5278 36.1354ZM39.5278 35.2887C39.8457 35.2887 40.1401 35.3436 40.4109 35.4545C40.6817 35.5644 40.9162 35.7165 41.1134 35.9098C41.3116 36.1031 41.4657 36.3317 41.5775 36.5946C41.6894 36.8586 41.7453 37.1451 41.7453 37.4541C41.7453 37.7632 41.6894 38.0497 41.5775 38.3137C41.4657 38.5766 41.3116 38.8062 41.1134 38.9995C40.9162 39.1928 40.6817 39.3439 40.4109 39.4548C40.1401 39.5647 39.8457 39.6196 39.5278 39.6196C39.2099 39.6196 38.9156 39.5647 38.6447 39.4548C38.3739 39.3439 38.1414 39.1928 37.9452 38.9995C37.7489 38.8062 37.5949 38.5766 37.483 38.3137C37.3712 38.0497 37.3152 37.7632 37.3152 37.4541C37.3152 37.1451 37.3712 36.8586 37.483 36.5946C37.5949 36.3317 37.7489 36.1031 37.9452 35.9098C38.1414 35.7165 38.3739 35.5644 38.6447 35.4545C38.9156 35.3436 39.2099 35.2887 39.5278 35.2887ZM16.3561 37.4404C16.3561 36.7202 16.828 36.1286 17.5992 36.1286C18.3361 36.1286 18.8336 36.6947 18.8336 37.4404C18.8336 38.1861 18.3361 38.7513 17.5992 38.7513C16.828 38.7513 16.3561 38.1606 16.3561 37.4404ZM19.6735 37.4404V35.3917H18.7826V35.8892C18.499 35.5202 18.0712 35.2887 17.4884 35.2887C16.3394 35.2887 15.4397 36.1884 15.4397 37.4404C15.4397 38.6914 16.3394 39.5922 17.4884 39.5922C18.0712 39.5922 18.499 39.3606 18.7826 38.9917V39.4891H19.6735V37.4404ZM14.6508 39.4891V36.9174C14.6508 35.949 14.0336 35.2975 13.0397 35.2887C12.5167 35.2798 11.9761 35.4427 11.5993 36.0177C11.3167 35.5634 10.8703 35.2887 10.2443 35.2887C9.80763 35.2887 9.37886 35.4172 9.04427 35.897V35.3917H8.15335V39.4891H9.0531V37.2177C9.0531 36.5063 9.44754 36.1286 10.0559 36.1286C10.6475 36.1286 10.9478 36.5142 10.9478 37.2089V39.4891H11.8475V37.2177C11.8475 36.5063 12.2596 36.1286 12.8503 36.1286C13.4596 36.1286 13.751 36.5142 13.751 37.2089V39.4891H14.6508Z" fill="#ADC9FF"/>
<path d="M42.7071 39.1803V39.2817H42.8005C42.8212 39.2817 42.8389 39.2768 42.8507 39.2689C42.8635 39.261 42.8704 39.2473 42.8704 39.2305C42.8704 39.2138 42.8635 39.201 42.8507 39.1931C42.8389 39.1843 42.8212 39.1803 42.8005 39.1803H42.7071ZM42.8015 39.1095C42.8497 39.1095 42.8871 39.1203 42.9137 39.142C42.9403 39.1636 42.9531 39.1931 42.9531 39.2305C42.9531 39.262 42.9432 39.2876 42.9216 39.3083C42.9009 39.3279 42.8704 39.3407 42.832 39.3457L42.956 39.4883H42.8596L42.7445 39.3466H42.7071V39.4883H42.6264V39.1095H42.8015ZM42.7769 39.6182C42.8212 39.6182 42.8625 39.6103 42.8999 39.5936C42.9383 39.5769 42.9717 39.5543 43.0003 39.5257C43.0288 39.4972 43.0514 39.4637 43.0682 39.4244C43.0839 39.386 43.0928 39.3447 43.0928 39.3004C43.0928 39.2561 43.0839 39.2148 43.0682 39.1764C43.0514 39.138 43.0288 39.1036 43.0003 39.0751C42.9717 39.0465 42.9383 39.0239 42.8999 39.0082C42.8625 38.9914 42.8212 38.9836 42.7769 38.9836C42.7326 38.9836 42.6903 38.9914 42.652 39.0082C42.6126 39.0239 42.5782 39.0465 42.5496 39.0751C42.5211 39.1036 42.4985 39.138 42.4827 39.1764C42.466 39.2148 42.4581 39.2561 42.4581 39.3004C42.4581 39.3447 42.466 39.386 42.4827 39.4244C42.4985 39.4637 42.5211 39.4972 42.5496 39.5257C42.5782 39.5543 42.6126 39.5769 42.652 39.5936C42.6903 39.6103 42.7326 39.6182 42.7769 39.6182ZM42.7769 38.892C42.835 38.892 42.8881 38.9029 42.9383 38.9245C42.9895 38.9452 43.0328 38.9747 43.0711 39.0121C43.1085 39.0485 43.138 39.0918 43.1597 39.142C43.1813 39.1912 43.1922 39.2443 43.1922 39.3004C43.1922 39.3565 43.1813 39.4096 43.1597 39.4588C43.138 39.508 43.1085 39.5513 43.0711 39.5877C43.0328 39.6251 42.9895 39.6546 42.9383 39.6763C42.8881 39.6979 42.835 39.7087 42.7769 39.7087C42.7179 39.7087 42.6638 39.6979 42.6126 39.6763C42.5614 39.6546 42.5172 39.6251 42.4798 39.5877C42.4424 39.5513 42.4129 39.508 42.3912 39.4588C42.3696 39.4096 42.3587 39.3565 42.3587 39.3004C42.3587 39.2443 42.3696 39.1912 42.3912 39.142C42.4129 39.0918 42.4424 39.0485 42.4798 39.0121C42.5172 38.9747 42.5614 38.9452 42.6126 38.9245C42.6638 38.9029 42.7179 38.892 42.7769 38.892Z" fill="#ADC9FF"/>
</svg>
