<svg width="91" height="40" viewBox="0 0 91 40" fill="none" xmlns="http://www.w3.org/2000/svg">
<path fill-rule="evenodd" clip-rule="evenodd" d="M0.463318 7.85742C0.463318 4.0002 3.6065 0.872803 7.48179 0.872803H83.9711C87.848 0.872803 90.9895 4.0002 90.9895 7.85742V32.8179C90.9895 36.6729 87.848 39.8009 83.9711 39.8009H7.48179C3.6065 39.8009 0.463318 36.6729 0.463318 32.8179V7.85742Z" fill="#ADC9FF"/>
<path fill-rule="evenodd" clip-rule="evenodd" d="M3.34378 8.09642V32.5812C3.34378 34.9911 5.30846 36.9457 7.73192 36.9457H47.8054V3.73193H7.73192C5.30846 3.73193 3.34378 5.68647 3.34378 8.09642ZM58.1596 20.2165C58.1596 21.7754 57.3886 22.8468 56.1121 22.8468C54.9843 22.8468 54.0442 21.7754 54.0442 20.3478C54.0442 18.8825 54.871 17.7931 56.1121 17.7931C57.4281 17.7931 58.1596 18.9203 58.1596 20.2165ZM50.6644 29.1574H54.0442V23.841H54.082C54.7222 25.0059 56.0005 25.4376 57.1835 25.4376C60.0944 25.4376 61.6533 23.0339 61.6533 20.141C61.6533 17.775 60.17 15.2 57.4641 15.2C55.925 15.2 54.4974 15.8205 53.8194 17.1923H53.7816V15.4271H50.6644V29.1574ZM66.2697 22.113C66.2697 21.1746 67.1703 20.819 68.3178 20.819C68.8245 20.819 69.3137 20.8545 69.7454 20.8748C69.7454 22.02 68.9378 23.185 67.6595 23.185C66.8705 23.185 66.2697 22.791 66.2697 22.113ZM73.0875 25.2128C72.9382 24.4435 72.9004 23.6719 72.9004 22.9026V19.2584C72.9004 16.2719 70.7413 15.2 68.2423 15.2C66.7967 15.2 65.5382 15.4068 64.3355 15.896L64.393 18.1887C65.3291 17.6617 66.4207 17.4549 67.5102 17.4549C68.7292 17.4549 69.7251 17.8128 69.7454 19.1468C69.3137 19.0713 68.7112 19.0138 68.1668 19.0138C66.365 19.0138 63.1147 19.3717 63.1147 22.3576C63.1147 24.4813 64.8421 25.4376 66.7769 25.4376C68.1668 25.4376 69.1068 24.8949 69.8767 23.6719H69.9145C69.9145 24.1808 69.9697 24.6858 69.99 25.2128H73.0875ZM74.6086 29.1574C75.3041 29.3084 75.9985 29.3845 76.712 29.3845C79.8118 29.3845 80.5433 26.9982 81.5014 24.537L85.0904 15.4271H81.7083L79.6985 21.8132H79.6607L77.5568 15.4271H73.9143L77.8769 25.4376C77.6323 26.3022 76.9943 26.7914 76.167 26.7914C75.6958 26.7914 75.2844 26.7339 74.833 26.5846L74.6086 29.1574Z" fill="#F9FAFC"/>
<path fill-rule="evenodd" clip-rule="evenodd" d="M11.6011 20.2364C11.6011 18.9024 12.2594 17.7932 13.5179 17.7932C15.039 17.7932 15.677 19.0139 15.677 20.1034C15.677 21.6065 14.7189 22.6204 13.5179 22.6204C12.504 22.6204 11.6011 21.7575 11.6011 20.2364ZM18.9459 15.4272H15.8839V17.1924H15.8483C15.1326 15.9897 13.9671 15.2001 12.522 15.2001C9.4797 15.2001 8.10794 17.3812 8.10794 20.2922C8.10794 23.1851 9.78011 25.2129 12.464 25.2129C13.8183 25.2129 14.9455 24.686 15.7525 23.5408H15.7903V24.0677C15.7903 25.9828 14.7386 26.9032 12.7863 26.9032C11.3768 26.9032 10.5117 26.6028 9.4797 26.0961L9.31064 28.7641C10.098 29.0465 11.432 29.3847 13.049 29.3847C16.9936 29.3847 18.9459 28.0878 18.9459 24.0677V15.4272ZM24.6601 11.3513H21.2786V13.8306H24.6601V11.3513ZM21.2803 25.2129H24.6601V15.4272H21.2803V25.2129ZM34.0744 15.3134C33.7363 15.2581 33.3226 15.2001 32.9292 15.2001C31.4639 15.2001 30.619 15.9897 30.0363 17.2302H29.9985V15.4272H26.9185V25.2129H30.2989V21.0818C30.2989 19.165 31.1832 18.0198 32.7601 18.0198C33.1558 18.0198 33.5294 18.0198 33.9054 18.1308L34.0744 15.3134ZM39.8959 23.0718C38.337 23.0718 37.699 21.7756 37.699 20.3299C37.699 18.8646 38.337 17.5683 39.8959 17.5683C41.4565 17.5683 42.095 18.8646 42.095 20.3299C42.095 21.7756 41.4565 23.0718 39.8959 23.0718ZM39.8959 25.4378C43.1269 25.4378 45.5882 23.561 45.5882 20.3299C45.5882 17.0791 43.1269 15.2001 39.8959 15.2001C36.6653 15.2001 34.2058 17.0791 34.2058 20.3299C34.2058 23.561 36.6653 25.4378 39.8959 25.4378Z" fill="#ADC9FF"/>
</svg>
