<svg width="25" height="26" viewBox="0 0 25 26" fill="none" xmlns="http://www.w3.org/2000/svg">
<path d="M12.6107 15.2529C13.9583 15.2529 15.0569 14.1315 15.0569 12.7524C15.0569 12.2081 14.8828 11.7055 14.5945 11.2949C14.1502 10.665 13.4279 10.252 12.6122 10.252C11.7959 10.252 11.0741 10.6645 10.6289 11.2944C10.3396 11.705 10.1669 12.2076 10.1664 12.7519C10.1649 14.131 11.2626 15.2529 12.6107 15.2529Z" fill="#ADC9FF"/>
<path d="M17.9505 9.6941V7.59807V7.28613L17.644 7.28714L15.5952 7.29368L15.6031 9.70215L17.9505 9.6941Z" fill="#ADC9FF"/>
<path d="M12.6112 0.262695C5.87606 0.262695 0.396545 5.86584 0.396545 12.7529C0.396545 19.6395 5.87606 25.2432 12.6112 25.2432C19.3458 25.2432 24.8258 19.6395 24.8258 12.7529C24.8258 5.86584 19.3468 0.262695 12.6112 0.262695ZM19.5579 11.2954V17.1114C19.5579 18.6262 18.3534 19.8574 16.873 19.8574H8.34939C6.86844 19.8574 5.66449 18.6262 5.66449 17.1114V11.2954V8.39548C5.66449 6.88112 6.86844 5.65001 8.34939 5.65001H16.8725C18.3534 5.65001 19.5579 6.88112 19.5579 8.39548V11.2954Z" fill="#ADC9FF"/>
<path d="M16.4113 12.7535C16.4113 14.8953 14.707 16.6392 12.6115 16.6392C10.516 16.6392 8.81214 14.8953 8.81214 12.7535C8.81214 12.2383 8.91251 11.7457 9.09161 11.2959H7.01776V17.1122C7.01776 17.8639 7.61458 18.4727 8.34916 18.4727H16.8723C17.6059 18.4727 18.2037 17.8639 18.2037 17.1122V11.2959H16.1289C16.3095 11.7457 16.4113 12.2383 16.4113 12.7535Z" fill="#ADC9FF"/>
</svg>
