<svg width="21" height="25" viewBox="0 0 21 25" fill="none" xmlns="http://www.w3.org/2000/svg">
<path fill-rule="evenodd" clip-rule="evenodd" d="M2.27853 8.08203H2.21837C1.44709 8.08203 0.818237 8.7262 0.818237 9.51171V15.7363C0.818237 16.5249 1.44709 17.167 2.21837 17.167H2.27956C3.05083 17.167 3.67969 16.5228 3.67969 15.7363V9.51167C3.67866 8.7262 3.04883 8.08203 2.27853 8.08203Z" fill="#ADC9FF"/>
<path fill-rule="evenodd" clip-rule="evenodd" d="M4.34973 18.1386C4.34973 18.8616 4.92844 19.4504 5.63655 19.4504H7.01167V22.8125C7.01167 23.602 7.64255 24.2441 8.41186 24.2441H8.47203C9.24435 24.2441 9.87421 23.601 9.87421 22.8125V19.4504H11.796V22.8125C11.796 23.602 12.4288 24.2441 13.1981 24.2441H13.2573C14.0296 24.2441 14.6585 23.601 14.6585 22.8125V19.4504H16.0346C16.7417 19.4504 17.3204 18.8616 17.3204 18.1386V8.31055H4.34973V18.1386Z" fill="#ADC9FF"/>
<path d="M14.0656 2.35076L15.1579 0.62933C15.2281 0.520755 15.197 0.372302 15.0897 0.301612C14.9834 0.229926 14.8379 0.259645 14.7687 0.371258L13.6363 2.15213C12.7868 1.79678 11.838 1.5971 10.836 1.5971C9.83304 1.5971 8.88622 1.79678 8.03472 2.15213L6.90438 0.371258C6.83519 0.259645 6.68873 0.229926 6.58141 0.301612C6.4741 0.372254 6.44299 0.520755 6.5132 0.62933L7.60644 2.35076C5.63557 3.33695 4.30664 5.19563 4.30664 7.32772C4.30664 7.45879 4.31468 7.58783 4.3257 7.71582H17.3473C17.3583 7.58783 17.3654 7.45879 17.3654 7.32772C17.3654 5.19563 16.0355 3.33695 14.0656 2.35076ZM7.81707 5.43319C7.47104 5.43319 7.1902 5.14849 7.1902 4.79418C7.1902 4.43988 7.47104 4.15617 7.81707 4.15617C8.1651 4.15617 8.44394 4.43983 8.44394 4.79418C8.44394 5.14853 8.1631 5.43319 7.81707 5.43319ZM13.854 5.43319C13.508 5.43319 13.2271 5.14849 13.2271 4.79418C13.2271 4.43988 13.508 4.15617 13.854 4.15617C14.201 4.15617 14.4798 4.43983 14.4798 4.79418C14.4798 5.14849 14.201 5.43319 13.854 5.43319Z" fill="#ADC9FF"/>
<path fill-rule="evenodd" clip-rule="evenodd" d="M19.4516 8.08203H19.3934C18.6222 8.08203 17.9913 8.7262 17.9913 9.51171V15.7363C17.9913 16.5249 18.6232 17.167 19.3934 17.167H19.4526C20.2248 17.167 20.8527 16.5228 20.8527 15.7363V9.51167C20.8527 8.7262 20.2228 8.08203 19.4516 8.08203Z" fill="#ADC9FF"/>
</svg>
