<svg width="25" height="26" viewBox="0 0 25 26" fill="none" xmlns="http://www.w3.org/2000/svg">
<path d="M12.696 0.262695C5.96091 0.262695 0.481384 5.86584 0.481384 12.7529C0.481384 19.6395 5.96091 25.2432 12.696 25.2432C19.4307 25.2432 24.9107 19.6395 24.9107 12.7529C24.9107 5.86584 19.4317 0.262695 12.696 0.262695ZM15.7337 13.1926H13.7465C13.7465 16.4392 13.7465 20.4354 13.7465 20.4354H10.8018C10.8018 20.4354 10.8018 16.478 10.8018 13.1926H9.40203V10.6328H10.8018V8.97708C10.8018 7.79125 11.3529 5.93829 13.7735 5.93829L15.9556 5.94684V8.43171C15.9556 8.43171 14.6296 8.43171 14.3718 8.43171C14.114 8.43171 13.7475 8.56353 13.7475 9.12902V10.6333H15.991L15.7337 13.1926Z" fill="#ADC9FF"/>
</svg>
