<svg width="25" height="26" viewBox="0 0 25 26" fill="none" xmlns="http://www.w3.org/2000/svg">
<path d="M12.3577 0.262695C5.61212 0.262695 0.143005 5.8552 0.143005 12.7529C0.143005 19.6507 5.61212 25.2432 12.3577 25.2432C19.1032 25.2432 24.5723 19.6507 24.5723 12.7529C24.5723 5.85366 19.1032 0.262695 12.3577 0.262695ZM9.304 18.8029H6.25034V7.8739H9.304V18.8029ZM7.87182 7.20413C7.08092 7.20413 6.44119 6.54839 6.44119 5.73964C6.44119 4.93089 7.08247 4.27515 7.87182 4.27515C8.66272 4.27669 9.304 4.93244 9.304 5.73964C9.304 6.54839 8.66272 7.20413 7.87182 7.20413ZM19.9918 18.8029H16.9381V12.0457C16.9381 11.2541 16.7167 10.6999 15.7655 10.6999C14.1883 10.6999 13.8845 12.0457 13.8845 12.0457V18.8029H10.8308V7.8739H13.8845V8.91838C14.3211 8.57649 15.4113 7.87544 16.9381 7.87544C17.9275 7.87544 19.9918 8.48122 19.9918 12.1408V18.8029Z" fill="#ADC9FF"/>
</svg>
