<svg width="44" height="44" viewBox="0 0 44 44" fill="none" xmlns="http://www.w3.org/2000/svg">
<path d="M39.05 11.6875H32.175C31.7625 11.6875 31.4875 11.4125 31.4875 11C31.4875 10.5875 31.7625 10.3125 32.175 10.3125H39.05C39.4625 10.3125 39.7375 10.5875 39.7375 11C39.7375 11.4125 39.4625 11.6875 39.05 11.6875ZM36.3 14.4375H32.175C31.7625 14.4375 31.4875 14.1625 31.4875 13.75C31.4875 13.3375 31.7625 13.0625 32.175 13.0625H36.3C36.7125 13.0625 36.9875 13.3375 36.9875 13.75C36.9875 14.1625 36.7125 14.4375 36.3 14.4375ZM16.5 31.35H16.225C15.8125 31.2125 11.825 29.2875 11.825 26.675V23.7875C11.825 23.375 12.1 23.1 12.5125 23.1C12.925 23.1 13.2 23.375 13.2 23.7875V26.675C13.2 28.05 15.4 29.425 16.5 29.975C17.6 29.425 19.8 28.05 19.8 26.675V23.7875C19.8 23.375 20.075 23.1 20.4875 23.1C20.9 23.1 21.175 23.375 21.175 23.7875V26.675C21.175 29.2875 17.1875 31.075 16.775 31.35H16.5Z" fill="white"/>
<path d="M16.5 25.4375C11.9625 25.4375 8.25 21.725 8.25 17.1875V15.125C8.25 14.7125 8.525 14.4375 8.9375 14.4375C9.35 14.4375 9.625 14.7125 9.625 15.125V17.1875C9.625 21.0375 12.65 24.0625 16.5 24.0625C20.35 24.0625 23.375 21.0375 23.375 17.1875V15.125C23.375 14.7125 23.65 14.4375 24.0625 14.4375C24.475 14.4375 24.75 14.7125 24.75 15.125V17.1875C24.75 21.725 21.0375 25.4375 16.5 25.4375Z" fill="white"/>
<path d="M24.0625 15.5375H23.65C23.2375 15.5375 22.9625 15.2625 22.9625 14.85C22.9625 14.4375 23.2375 14.1625 23.5125 14.1625L24.75 10.725C24.8875 10.175 24.75 9.48752 24.3375 9.07502C23.925 8.52502 23.2375 8.25002 22.6875 8.25002C22.275 8.25002 22 7.97502 22 7.56252C22 6.73752 21.5875 5.91252 21.0375 5.36252C20.4875 4.81252 19.6625 4.67502 18.8375 4.81252L10.5875 6.18752C9.9 6.32502 9.2125 6.73752 8.8 7.28752C8.3875 7.97502 8.1125 8.66252 8.25 9.48752L9.4875 14.1625C9.7625 14.1625 10.0375 14.4375 10.0375 14.85C10.0375 15.2625 9.7625 15.5375 9.35 15.5375H8.9375C8.6625 15.5375 8.3875 15.2625 8.25 14.9875L6.875 9.76252C6.6 8.66252 6.875 7.56252 7.5625 6.60002C8.25 5.63752 9.2125 5.08752 10.3125 4.95002L18.5625 3.57502C19.8 3.43752 20.9 3.71252 21.8625 4.53752C22.6875 5.22502 23.1 6.18752 23.2375 7.15002C24.0625 7.15002 24.75 7.56252 25.3 8.25002C25.9875 9.07502 26.2625 10.175 25.9875 11.1375L24.6125 14.9875C24.6125 15.2625 24.3375 15.5375 24.0625 15.5375Z" fill="white"/>
<path d="M23.925 15.5374H23.5125C22.55 15.5374 21.5875 14.7124 21.5875 13.6124V11.5499C19.1125 13.3374 15.8125 14.0249 12.7875 13.4749L11.6875 13.1999C11.55 13.1999 11.275 13.4749 11.275 13.7499C11.275 14.7124 10.45 15.6749 9.35 15.6749H9.075C8.6625 15.6749 8.3875 15.3999 8.3875 14.9874C8.3875 14.5749 8.6625 14.2999 9.075 14.2999H9.4875C9.7625 14.2999 10.0375 14.0249 10.0375 13.7499C10.0375 12.7874 10.8625 11.8249 11.9625 11.8249L13.3375 12.0999C16.0875 12.6499 18.975 11.9624 21.175 10.3124C21.5875 10.0374 22.1375 10.0374 22.55 10.1749C22.9625 10.3124 23.2375 10.8624 23.2375 11.2749V13.6124C23.2375 13.8874 23.5125 14.1624 23.7875 14.1624H24.2C24.6125 14.1624 24.8875 14.4374 24.8875 14.8499C24.8875 15.2624 24.3375 15.5374 23.925 15.5374ZM30.9375 40.5624H2.0625C1.65 40.5624 1.375 40.2874 1.375 39.8749V34.7874C1.375 32.0374 3.1625 29.5624 5.775 28.5999L12.2375 26.3999C12.65 26.2624 12.925 26.5374 13.0625 26.8124C13.2 27.2249 12.925 27.4999 12.65 27.6374L6.1875 29.8374C4.125 30.6624 2.75 32.5874 2.75 34.7874V39.1874H30.25V34.7874C30.25 32.5874 28.875 30.6624 26.8125 29.9749L20.35 27.7749C19.9375 27.6374 19.8 27.2249 19.9375 26.9499C20.075 26.5374 20.4875 26.3999 20.7625 26.5374L27.225 28.7374C29.8375 29.5624 31.625 32.0374 31.625 34.9249V39.8749C31.625 40.2874 31.35 40.5624 30.9375 40.5624Z" fill="white"/>
<path d="M30.9375 40.5625H24.0625C23.65 40.5625 23.375 40.2875 23.375 39.875V38.775C23.375 34.925 26.2625 31.625 30.1125 31.2125C30.3875 31.2125 30.6625 31.35 30.8 31.4875C31.35 32.45 31.7625 33.6875 31.7625 34.7875V39.875C31.625 40.2875 31.35 40.5625 30.9375 40.5625ZM24.75 39.1875H30.25V34.7875C30.25 34.1 30.1125 33.275 29.7 32.5875C26.8125 33.1375 24.75 35.75 24.75 38.775V39.1875ZM8.9375 40.5625H2.0625C1.65 40.5625 1.375 40.2875 1.375 39.875V34.7875C1.375 33.6875 1.65 32.45 2.3375 31.4875C2.475 31.2125 2.75 31.075 3.025 31.2125C6.7375 31.625 9.625 34.925 9.625 38.775V39.875C9.625 40.2875 9.35 40.5625 8.9375 40.5625ZM2.75 39.1875H8.25V38.775C8.25 35.75 6.05 33.275 3.1625 32.5875C2.8875 33.275 2.75 34.1 2.75 34.7875V39.1875ZM23.375 22.1375H18.5625C18.15 22.1375 17.875 21.8625 17.875 21.45C17.875 21.0375 18.15 20.7625 18.5625 20.7625H23.375C24.8875 20.7625 26.125 19.525 26.125 18.0125V15.675C26.125 15.2625 26.4 14.9875 26.8125 14.9875C27.225 14.9875 27.5 15.2625 27.5 15.675V18.0125C27.5 20.2125 25.575 22.1375 23.375 22.1375ZM8.9375 18.5625H7.5625C6.4625 18.5625 5.5 17.6 5.5 16.5V15.125C5.5 14.025 6.4625 13.0625 7.5625 13.0625H8.25C8.6625 13.0625 8.9375 13.3375 8.9375 13.75C8.9375 14.1625 8.6625 14.4375 8.25 14.4375H7.5625C7.15 14.4375 6.875 14.7125 6.875 15.125V16.5C6.875 16.9125 7.15 17.1875 7.5625 17.1875H8.25V15.8125C8.25 15.4 8.525 15.125 8.9375 15.125C9.35 15.125 9.625 15.4 9.625 15.8125V17.875C9.625 18.2875 9.35 18.5625 8.9375 18.5625Z" fill="white"/>
<path d="M25.4375 18.5625H24.0625C23.65 18.5625 23.375 18.2875 23.375 17.875V15.8125C23.375 15.4 23.65 15.125 24.0625 15.125C24.475 15.125 24.75 15.4 24.75 15.8125V17.1875H25.4375C25.85 17.1875 26.125 16.9125 26.125 16.5V15.125C26.125 14.7125 25.85 14.4375 25.4375 14.4375H24.75C24.3375 14.4375 24.0625 14.1625 24.0625 13.75C24.0625 13.3375 24.3375 13.0625 24.75 13.0625H25.4375C26.5375 13.0625 27.5 14.025 27.5 15.125V16.5C27.5 17.6 26.5375 18.5625 25.4375 18.5625ZM32.3125 19.9375C32.175 19.9375 32.0375 19.9375 32.0375 19.8C31.7625 19.6625 31.625 19.525 31.625 19.25V17.1875H30.9375C29.8375 17.1875 28.875 16.225 28.875 15.125V9.625C28.875 8.525 29.8375 7.5625 30.9375 7.5625H40.5625C41.6625 7.5625 42.625 8.525 42.625 9.625V15.125C42.625 16.225 41.6625 17.1875 40.5625 17.1875H36.7125L32.725 19.8C32.5875 19.9375 32.45 19.9375 32.3125 19.9375ZM30.9375 8.9375C30.525 8.9375 30.25 9.2125 30.25 9.625V15.125C30.25 15.5375 30.525 15.8125 30.9375 15.8125H32.3125C32.725 15.8125 33 16.0875 33 16.5V18.0125L36.025 15.95C36.1625 15.8125 36.3 15.8125 36.4375 15.8125H40.5625C40.975 15.8125 41.25 15.5375 41.25 15.125V9.625C41.25 9.2125 40.975 8.9375 40.5625 8.9375H30.9375Z" fill="white"/>
</svg>
