<svg width="25" height="26" viewBox="0 0 25 26" fill="none" xmlns="http://www.w3.org/2000/svg">
<path d="M12.5268 0.262695C5.79165 0.262695 0.312134 5.86584 0.312134 12.7529C0.312134 19.6395 5.79165 25.2432 12.5268 25.2432C19.2614 25.2432 24.7414 19.6395 24.7414 12.7529C24.7414 5.86584 19.2624 0.262695 12.5268 0.262695ZM17.9758 9.89425C17.9812 10.018 17.9841 10.1428 17.9841 10.2676C17.9841 14.0666 15.157 18.4456 9.98455 18.4456C8.39684 18.4456 6.91884 17.9712 5.67504 17.1552C5.89497 17.1818 6.11883 17.1954 6.34565 17.1954C7.66325 17.1954 8.87507 16.7356 9.83744 15.9648C8.60742 15.9416 7.56878 15.1105 7.21109 13.9679C7.38231 14.0011 7.55894 14.0198 7.73951 14.0198C7.99585 14.0198 8.2448 13.9856 8.48048 13.9196C7.19436 13.656 6.2256 12.4943 6.2256 11.1007C6.2256 11.0886 6.2256 11.0761 6.22609 11.0645C6.60494 11.2793 7.0384 11.4091 7.49892 11.4237C6.74516 10.909 6.24872 10.0286 6.24872 9.03142C6.24872 8.50416 6.38698 8.0101 6.62905 7.58548C8.01504 9.32524 10.0874 10.4693 12.4234 10.5901C12.3752 10.3793 12.3511 10.1604 12.3511 9.9345C12.3511 8.34719 13.6097 7.05972 15.162 7.05972C15.9708 7.05972 16.7005 7.40888 17.2141 7.96734C17.8552 7.83854 18.4555 7.60007 19.0001 7.26952C18.7886 7.94118 18.3443 8.50416 17.7622 8.86036C18.3315 8.79093 18.8747 8.63698 19.377 8.40806C19.0021 8.98362 18.5253 9.49026 17.9758 9.89425Z" fill="#ADC9FF"/>
</svg>
