<svg width="20" height="25" viewBox="0 0 20 25" fill="none" xmlns="http://www.w3.org/2000/svg">
<path d="M1.96669 9.07849C0.0171126 12.5967 1.2565 17.9357 3.41241 21.1729C4.48855 22.7913 5.57808 24.2441 7.07037 24.2441C7.0985 24.2441 7.1267 24.2436 7.15559 24.2424C7.85671 24.2133 8.36336 23.9888 8.85323 23.7719C9.40321 23.5282 9.97202 23.2762 10.8642 23.2762C11.713 23.2762 12.2547 23.52 12.7785 23.7557C13.2947 23.988 13.8265 24.2283 14.6122 24.2129C16.2932 24.1804 17.3252 22.6127 18.2358 21.2297C19.186 19.7858 19.6626 18.3838 19.8234 17.848L19.8299 17.8267C19.8605 17.7315 19.8173 17.6275 19.7295 17.5856C19.7271 17.5844 19.7182 17.5806 19.7157 17.5795C19.4197 17.4536 16.8231 16.2557 16.7958 12.9908C16.7705 10.3383 18.7437 8.93358 19.1395 8.67899L19.1579 8.66704C19.2008 8.63834 19.2306 8.59281 19.2408 8.54076C19.2509 8.48879 19.2403 8.4347 19.2116 8.39098C17.8496 6.31822 15.762 6.00583 14.9215 5.96825C14.7996 5.95559 14.6737 5.94922 14.5473 5.94922C13.5601 5.94922 12.6145 6.33693 11.8548 6.64845C11.3303 6.86349 10.8774 7.04921 10.5649 7.04921C10.2139 7.04921 9.75835 6.86121 9.23083 6.64357C8.52539 6.35242 7.72583 6.0225 6.87939 6.0225C6.8592 6.0225 6.83931 6.02274 6.81973 6.02313C4.85163 6.05324 2.99195 7.22416 1.96669 9.07849Z" fill="#ADC9FF"/>
<path d="M14.923 0.262846C13.7313 0.313329 12.3017 1.07631 11.4472 2.11727C10.721 2.99222 10.0116 4.45104 10.1985 5.92149C10.2102 6.01349 10.2822 6.0845 10.3712 6.09165C10.4516 6.09818 10.5338 6.10148 10.6156 6.10156C11.7808 6.10156 13.0379 5.43105 13.8964 4.35141C14.8 3.21138 15.2568 1.74832 15.1186 0.437807C15.1077 0.335111 15.0209 0.258836 14.923 0.262846Z" fill="#ADC9FF"/>
</svg>
