<svg width="25" height="13" viewBox="0 0 25 13" fill="none" xmlns="http://www.w3.org/2000/svg">
<path d="M24.4544 5.87023C24.4541 5.86994 24.4538 5.8696 24.4535 5.86931L19.4672 0.841144C19.0937 0.464467 18.4895 0.465869 18.1177 0.844432C17.7459 1.22295 17.7473 1.83517 18.1209 2.2119L21.4686 5.58773H1.2592C0.732158 5.58773 0.304932 6.02064 0.304932 6.55469C0.304932 7.08874 0.732158 7.52164 1.2592 7.52164H21.4686L18.1209 10.8975C17.7474 11.2742 17.7459 11.8864 18.1177 12.2649C18.4895 12.6436 19.0938 12.6449 19.4673 12.2682L24.4535 7.24006C24.4538 7.23977 24.4541 7.23944 24.4544 7.23915C24.8281 6.86116 24.8269 6.24695 24.4544 5.87023Z" fill="white"/>
</svg>
