<svg width="25" height="26" viewBox="0 0 25 26" fill="none" xmlns="http://www.w3.org/2000/svg">
<path d="M10.2164 15.4902C12.0492 14.5184 13.866 13.5556 15.6996 12.5833C13.8605 11.602 12.0442 10.6336 10.2164 9.6582C10.2164 11.6089 10.2164 13.5398 10.2164 15.4902Z" fill="#ADC9FF"/>
<path d="M12.4421 0.262695C5.6964 0.262695 0.227478 5.85474 0.227478 12.7529C0.227478 19.6511 5.6964 25.2432 12.4421 25.2432C19.1879 25.2432 24.6568 19.6511 24.6568 12.7529C24.6568 5.85474 19.1879 0.262695 12.4421 0.262695ZM20.7646 16.922C20.5532 17.8599 19.8029 18.5517 18.9 18.6547C16.7614 18.8993 14.5972 18.9006 12.4416 18.8993C10.2861 18.9006 8.12134 18.8993 5.9823 18.6547C5.07935 18.5517 4.3296 17.8599 4.11868 16.922C3.81803 15.586 3.81803 14.1281 3.81803 12.7529C3.81803 11.3778 3.82152 9.91934 4.12217 8.58381C4.3331 7.64593 5.08285 6.95388 5.9858 6.85064C8.12483 6.60633 10.2896 6.60505 12.4451 6.60633C14.6002 6.60505 16.7649 6.60633 18.9032 6.85064C19.8067 6.95388 20.5569 7.64567 20.7679 8.58381C21.0685 9.91959 21.066 11.3778 21.066 12.7529C21.066 14.1281 21.0653 15.5863 20.7646 16.922Z" fill="#ADC9FF"/>
</svg>
