<svg width="61" height="61" viewBox="0 0 61 61" fill="none" xmlns="http://www.w3.org/2000/svg">
<g clip-path="url(#clip0)">
<path d="M56.6415 7.38069C56.6195 5.56607 56.4285 3.65864 54.3646 3.28752C51.7584 2.81894 49.1023 3.17005 46.483 3.12978C43.5994 3.08546 40.6845 3.43418 37.8099 3.64959C34.7723 3.87726 31.7645 3.73477 28.7345 3.61468C25.8723 3.50126 23.0033 3.593 20.1429 3.55189C20.0434 3.01791 19.8912 2.49846 19.6059 2.02368C18.5259 0.227292 16.2923 0.00938511 14.3911 9.2196e-05C12.8569 -0.00717534 11.3051 0.412912 10.9494 2.07873C10.8294 2.64071 10.7754 3.21723 10.7545 3.79684C9.79782 3.69617 8.8161 3.81734 7.85524 3.81996C6.72532 3.82306 5.54238 3.86821 4.42544 4.04751C2.08672 4.42304 0.710417 4.95298 0.65323 7.5127C0.636431 8.2721 0.498587 9.1853 0.957633 9.8426C1.57228 10.7224 2.82741 10.8278 3.79328 11.0121C5.20497 11.2815 6.52147 11.5319 7.96211 11.5328C8.70959 11.5334 9.8145 11.7571 10.6009 11.5078C10.6014 11.5751 10.6003 11.6423 10.6011 11.7098C10.6215 13.6259 11.3491 14.7625 13.2329 15.4217C15.169 16.0992 17.6844 15.9501 19.3259 14.6402C20.2768 13.8816 20.6703 12.8885 20.8091 11.8165C21.9724 11.5425 23.4501 11.798 24.6217 11.7787C25.9512 11.7568 27.2772 11.8918 28.6123 11.8922C31.5345 11.8929 34.4594 11.7895 37.3849 11.7901C40.2583 11.7907 43.1228 11.9318 45.9913 11.9003C47.3977 11.8848 48.7946 11.9013 50.1977 11.8222C51.5028 11.7486 52.9291 11.8955 54.2113 11.6004C56.1765 11.148 56.6631 9.16708 56.6415 7.38069ZM10.6003 10.1823C10.5956 10.1831 10.5913 10.183 10.5865 10.1839C8.91785 10.5174 6.73795 10.2401 5.11145 9.93803C4.38672 9.8034 3.49984 9.77695 2.81371 9.49567C1.7411 9.0558 1.89526 8.05121 1.95638 7.09762C2.09018 5.01302 5.39178 5.3135 6.85196 5.20436C8.14546 5.10762 9.45982 5.14718 10.7484 4.95214C10.752 5.16195 10.7565 5.3714 10.7618 5.57942C10.6743 7.11203 10.6151 8.64477 10.6003 10.1823ZM18.0801 13.8397C16.7677 14.6483 14.3828 14.7273 13.0502 13.8509C11.3255 12.7167 11.9304 9.81115 11.9118 8.01344C11.9103 7.86464 11.9092 7.71655 11.9079 7.56798C11.9789 6.70171 11.9771 5.8277 11.9974 4.95334C12.0163 4.13901 12.0266 3.28514 12.2385 2.49429C12.4589 1.67163 13.1107 1.52663 13.8894 1.41655C14.9823 1.26202 16.2025 1.32695 17.2143 1.80137C19.398 2.82526 19.1099 6.0879 19.3301 8.07147C19.5458 10.0163 20.051 12.6254 18.0801 13.8397ZM54.9946 9.13634C54.3612 10.7288 52.136 10.3061 50.7092 10.3595C45.6966 10.5473 40.6946 10.3632 35.676 10.3669C32.9235 10.369 30.1756 10.4875 27.425 10.4736C26.0187 10.4664 24.6259 10.3694 23.214 10.3698C22.4376 10.37 21.6098 10.2614 20.8712 10.4754C20.86 9.85511 20.8085 9.2301 20.7661 8.62666C20.6913 7.56155 20.5339 6.50525 20.3888 5.45146C20.3552 5.2077 20.3286 4.95989 20.3017 4.71124C22.0319 4.92701 23.8095 4.92248 25.545 4.93165C28.0931 4.945 30.617 5.16004 33.1613 5.16052C35.6122 5.161 38.0283 4.94488 40.4713 4.82455C43.0356 4.69838 45.6073 4.6425 48.1662 4.50287C49.276 4.44222 50.3851 4.36514 51.496 4.43734C52.5954 4.50882 54.6104 4.24195 55.0858 5.45003C55.4619 6.40577 55.3659 8.20323 54.9946 9.13634Z" fill="black"/>
<path d="M17.3389 4.90511C16.9198 4.42271 16.0559 4.58212 15.4679 4.52898C14.8417 4.47227 13.9633 4.47632 13.4329 4.85173C13.2485 4.98231 13.2492 5.21773 13.4329 5.34843C14.0292 5.77257 14.8859 5.64675 15.5799 5.74552C16.1497 5.82666 16.9231 5.99012 17.3389 5.50474C17.496 5.32138 17.4991 5.08942 17.3389 4.90511Z" fill="black"/>
<path d="M17.3389 7.4222C16.9198 6.9398 16.0559 7.09933 15.4679 7.04607C14.8417 6.98936 13.9633 6.99341 13.4329 7.36882C13.2485 7.4994 13.2492 7.73482 13.4329 7.86552C14.0292 8.28953 14.8859 8.16384 15.5799 8.26261C16.1497 8.34374 16.9231 8.5072 17.3389 8.02183C17.496 7.83847 17.4991 7.60651 17.3389 7.4222Z" fill="black"/>
<path d="M17.3389 9.93929C16.9198 9.45689 16.0559 9.6163 15.4679 9.56316C14.8417 9.50645 13.9633 9.5105 13.4329 9.88591C13.2485 10.0165 13.2492 10.2519 13.4329 10.3826C14.0292 10.8067 14.8859 10.6809 15.5799 10.7797C16.1497 10.8608 16.9231 11.0243 17.3389 10.5389C17.496 10.3556 17.4991 10.1236 17.3389 9.93929Z" fill="black"/>
<path d="M57.0658 21.2833C56.945 19.4141 56.678 17.4421 54.4864 17.2001C52.825 17.0167 50.9035 17.122 49.2309 17.1991C48.2524 17.2442 47.2177 17.2994 46.2272 17.4503C46.1319 17.1202 46.0073 16.7992 45.8257 16.4973C44.7457 14.7009 42.5121 14.483 40.611 14.4737C39.0767 14.4662 37.5249 14.8863 37.1693 16.5521C37.0667 17.033 37.0137 17.5247 36.9869 18.0197C34.6889 17.4327 32.3491 17.5512 29.9525 17.4473C27.4108 17.3371 24.8743 17.2612 22.3324 17.1489C16.8865 16.9081 11.3545 17.3657 5.92768 17.7578C4.15965 17.8855 2.28093 18.3784 1.8724 20.3434C1.49628 22.1516 1.26431 24.7233 3.15613 25.7468C5.26408 26.8869 8.17526 26.4593 10.465 26.4606C13.3483 26.4623 16.2574 26.5822 19.1351 26.4182C22.2204 26.2425 25.2867 26.5819 28.3608 26.5656C31.1868 26.5507 34.0036 26.6662 36.8382 26.5893C36.9552 28.2614 37.7067 29.2839 39.4528 29.895C41.389 30.5725 43.9044 30.4234 45.5459 29.1135C46.3416 28.4786 46.7459 27.6791 46.9385 26.807C48.2076 26.8154 49.4773 26.802 50.7461 26.8017C52.2143 26.8014 53.8153 26.89 55.2293 26.4142C57.3005 25.7172 57.1851 23.1321 57.0658 21.2833ZM36.8207 25.1597C32.4855 25.2904 28.2011 25.1281 23.8705 24.9622C21.6085 24.8756 19.358 25.102 17.1011 25.0748C14.5933 25.0448 12.0847 25.0605 9.57658 25.0621C8.37327 25.0628 7.14792 25.1319 5.94758 25.0281C5.3439 24.9759 4.68946 24.9016 4.13213 24.6418C3.07416 24.1488 3.00351 23.2989 3.0881 22.1859C3.14017 21.5012 3.22297 20.9396 3.52964 20.3205C3.89778 19.5772 4.19646 19.469 4.95443 19.299C5.99571 19.0655 7.22512 19.0381 8.29333 19.0181C13.0813 18.9286 17.8039 18.3719 22.6056 18.5782C27.3762 18.7833 32.1908 18.9561 36.9644 18.9072C36.964 19.2906 36.9722 19.6735 36.9819 20.0527C36.8849 21.7527 36.826 23.4531 36.8207 25.1597ZM44.3002 28.3128C42.9879 29.1214 40.6029 29.2004 39.2703 28.324C37.5458 27.1898 38.1505 24.2842 38.1319 22.4865C38.1304 22.3379 38.1293 22.1897 38.128 22.0413C38.199 21.175 38.1972 20.301 38.2175 19.4266C38.2364 18.6123 38.2467 17.7584 38.4586 16.9674C38.679 16.1448 39.3308 15.9998 40.1096 15.8896C41.8114 15.6489 44.3104 15.9862 44.9028 17.8324C45.3691 19.2858 45.3824 21.0327 45.5502 22.5446C45.778 24.5976 46.4553 26.9849 44.3002 28.3128ZM55.5691 23.7565C55.3675 25.2187 54.0084 25.289 52.7471 25.3392C50.8655 25.4139 48.9769 25.3488 47.0918 25.3476C47.1028 24.5981 47.0376 23.833 46.9862 23.0998C46.9113 22.0347 46.754 20.9784 46.6089 19.9246C46.5469 19.4751 46.5078 19.013 46.4475 18.555C47.7892 18.6832 49.1431 18.553 50.4947 18.5771C51.6292 18.5975 52.764 18.5711 53.8982 18.5873C55.473 18.6098 55.5816 19.9996 55.6741 21.2832C55.7334 22.1074 55.6814 22.9421 55.5691 23.7565Z" fill="black"/>
<path d="M43.5589 19.3783C43.1398 18.8959 42.2759 19.0554 41.6879 19.0021C41.0617 18.9454 40.1833 18.9495 39.6529 19.3249C39.4685 19.4555 39.4692 19.6909 39.6529 19.8216C40.2492 20.2457 41.1059 20.1199 41.7999 20.2187C42.3698 20.2998 43.1431 20.4633 43.5589 19.9779C43.716 19.7945 43.7191 19.5626 43.5589 19.3783Z" fill="black"/>
<path d="M43.5589 21.8953C43.1398 21.4129 42.2759 21.5725 41.6879 21.5192C41.0617 21.4625 40.1833 21.4666 39.6529 21.842C39.4685 21.9725 39.4692 22.208 39.6529 22.3387C40.2492 22.7627 41.1059 22.637 41.7999 22.7358C42.3698 22.8169 43.1431 22.9804 43.5589 22.495C43.716 22.3116 43.7191 22.0797 43.5589 21.8953Z" fill="black"/>
<path d="M43.5589 24.4124C43.1398 23.93 42.2759 24.0894 41.6879 24.0363C41.0617 23.9796 40.1833 23.9836 39.6529 24.3591C39.4685 24.4896 39.4692 24.7251 39.6529 24.8558C40.2492 25.2799 41.1059 25.1541 41.7999 25.2528C42.3698 25.334 43.1431 25.4974 43.5589 25.0121C43.716 24.8287 43.7191 24.5967 43.5589 24.4124Z" fill="black"/>
<path d="M53.226 59.4303C52.519 59.3262 51.8009 59.2905 51.0791 59.2839C51.311 57.5477 50.8376 55.4563 50.6814 53.7342C50.6057 52.8996 50.661 51.7897 50.3061 51.0138C49.8508 50.0187 48.7238 49.3331 47.9668 48.5976C45.9708 46.6583 43.9139 44.7801 41.9286 42.8245C40.994 41.9039 40.055 40.9898 39.0726 40.1208C38.295 39.4329 37.5324 38.5174 36.6453 37.9827C36.0795 37.6416 35.6695 37.6587 35.1213 37.9971C34.026 38.6731 32.9816 39.796 32.0177 40.6449C30.9077 41.6225 29.789 42.5826 28.6668 43.546C28.0885 44.0426 27.5345 44.5666 26.9662 45.0746C26.5748 45.4244 25.4834 46.7407 24.926 46.7478C24.0665 46.7588 22.8633 44.7523 22.3251 44.1168C21.5954 43.2552 20.878 42.3948 20.1189 41.563C20.5149 40.7085 21.0801 39.9097 21.8954 39.1369C23.6642 37.4604 25.9723 36.559 28.3197 36.0168C30.9251 35.415 33.1972 35.7742 35.7412 36.3738C37.723 36.841 39.7182 36.9213 41.7396 36.8027C43.8256 36.6804 46.1222 36.0178 47.8785 34.8593C48.3426 34.5531 49.4493 33.7506 49.6938 32.9899C49.707 32.991 49.7175 32.9937 49.7315 32.9944C50.171 33.0155 50.7427 32.7977 51.0418 32.4748C51.6564 31.811 51.5483 30.3596 50.9092 29.7288C50.1048 28.9351 48.8607 29.2006 48.2793 30.0849C47.9962 30.5156 47.9901 31.0394 48.1863 31.5068C48.3094 31.7998 48.5443 32.0473 48.6602 32.3403C48.7446 32.5543 48.7196 32.7346 48.6531 32.9113C48.5106 33.0817 48.3463 33.3552 48.2346 33.4687C47.8102 33.8998 47.2967 34.2283 46.7637 34.5061C45.5925 35.1162 44.1999 35.5915 42.8946 35.8165C40.237 36.2746 37.5374 35.9349 34.9519 35.2694C30.7896 34.198 25.6938 35.0424 22.2404 37.7076C21.1325 38.5627 20.1514 39.6094 19.4543 40.8233C18.5652 39.739 17.2457 37.5974 15.8765 37.7336C14.9575 37.8249 13.9967 38.9351 13.3753 39.5289C12.3171 40.5399 11.2696 41.5577 10.2347 42.5929C9.17694 43.6509 8.10027 44.722 7.11272 45.8446C6.59041 46.4383 6.01425 46.9862 5.50231 47.5879C5.35374 47.7624 5.20017 48.0019 5.0379 48.2394C5.04791 47.8552 5.05816 47.4709 5.06828 47.0866C5.14727 44.0586 5.11475 41.0081 5.09771 37.9782C5.08353 35.4675 4.92996 32.7885 5.24294 30.2973C5.31407 29.731 4.39407 29.6263 4.25789 30.164C3.72069 32.2855 3.79098 34.7518 3.76358 36.9295C3.72891 39.6905 3.63896 42.4523 3.65993 45.2127C3.68137 48.0436 3.50112 50.8687 3.57605 53.7021C3.60929 54.9587 3.65945 56.2213 3.72617 57.4766C3.76727 58.249 3.63098 59.3115 4.19141 59.9386C4.65927 60.4622 5.36315 60.4949 6.01342 60.5581C7.37007 60.6903 8.74327 60.7895 10.1055 60.8415C12.7178 60.9411 15.3271 60.8033 17.9377 60.8574C23.4597 60.972 28.9917 60.9558 34.5169 60.9861C37.6063 61.003 40.7408 61.034 43.8249 60.8648C45.4437 60.7761 47.0609 60.8409 48.6815 60.826C50.1367 60.8126 51.5867 60.642 53.0389 60.8137C53.8194 60.9059 54.0113 59.5458 53.226 59.4303ZM48.9372 30.7529C49.1904 29.8063 50.3049 30.0266 50.528 30.8351C51.0214 32.6223 48.5682 32.133 48.9372 30.7529ZM5.03659 54.5135C4.95808 52.8162 4.97237 51.1196 5.00943 49.4232C5.33885 49.181 5.59452 48.8336 5.89106 48.5351C6.75507 47.6655 7.61812 46.7833 8.49427 45.9263C10.2418 44.217 11.9422 42.4609 13.7121 40.7727C14.3887 40.1273 15.44 38.7274 16.3708 39.1417C17.1573 39.4916 17.9596 40.9381 18.5257 41.5626C18.653 41.7031 18.7764 41.8466 18.9026 41.9879C18.8665 42.0818 18.8249 42.173 18.7924 42.2685C17.9742 44.6711 18.4948 47.3659 17.7696 49.8298C16.4116 54.4435 10.3009 59.6193 5.21149 58.1966C4.88647 57.1462 5.0877 55.6188 5.03659 54.5135ZM24.1182 59.4652C23.7896 59.4543 23.4604 59.4473 23.132 59.4348C18.2328 59.2488 13.3327 59.6065 8.43446 59.2996C7.5819 59.2462 6.44292 59.387 5.74631 58.9258C8.63021 59.6845 11.9956 58.0605 14.2029 56.2273C15.7203 54.9669 17.2414 53.466 18.0364 51.6335C18.8532 49.751 19.1454 47.7457 19.2507 45.7082C19.3044 44.6667 19.4192 43.7207 19.6573 42.8403C20.7949 44.1501 21.8995 45.4867 23.0374 46.7999C23.5027 47.3368 23.9066 47.6751 24.3001 47.8382C24.1776 51.7068 23.9451 55.5961 24.1182 59.4652ZM34.623 54.8211C34.5626 56.376 34.6717 58.0094 34.5119 59.5625C31.3407 59.6032 28.1634 59.5825 24.9969 59.4922C24.8672 55.6467 25.056 51.7929 24.9791 47.9448C25.5102 47.8933 26.0742 47.5412 26.7921 46.9158C28.9145 45.0671 31.011 43.1897 33.1276 41.3348C33.6301 40.8946 34.1543 40.4808 34.6598 40.0443C34.8303 39.897 35.3 39.3248 35.609 39.1333C35.2033 42.6513 34.9898 46.2427 34.8282 49.7735C34.7513 51.4562 34.6884 53.1385 34.623 54.8211ZM49.8305 58.9264C49.7547 59.0342 49.7236 59.1655 49.7319 59.2993C48.6463 59.3329 47.5592 59.3963 46.4911 59.3857C43.8806 59.3598 41.233 59.4074 38.6223 59.4795C37.5321 59.5096 36.44 59.5322 35.3471 59.5497C35.4592 58.159 35.3349 56.7389 35.4048 55.3464C35.4929 53.5869 35.5225 51.8184 35.5854 50.0568C35.7133 46.4776 36.3955 42.7401 36.1536 39.1507C36.8642 39.4659 37.769 40.5916 38.2104 40.9832C40.2164 42.7626 42.0263 44.7447 43.9868 46.5724C44.988 47.5059 46.0186 48.409 46.9889 49.3736C48.1053 50.4838 49.1518 51.1158 49.3302 52.8033C49.4446 53.8846 49.5171 54.9693 49.5911 56.0535C49.6513 56.9357 49.9184 58.0308 49.8305 58.9264Z" fill="black"/>
<path d="M60.2852 44.9584C59.5883 43.9657 58.4025 43.6835 57.5606 42.9585C58.208 41.6874 60.0234 40.1606 58.8177 38.9299C58.1542 38.2526 56.753 38.0427 55.8839 37.7045C54.8371 37.2974 53.8196 36.8515 52.7846 36.417C51.8863 36.0399 48.8944 34.4365 48.2305 35.8418C47.9024 36.5363 48.1508 37.8692 48.2108 38.5985C48.2635 39.2389 48.3543 39.9419 48.5206 40.6077C48.5233 40.7113 48.5248 40.8154 48.531 40.917C48.6059 42.1418 48.7475 43.3614 48.8967 44.579C49.1155 46.3645 49.211 48.3871 51.5214 47.6907C51.8909 47.5793 52.2233 47.3998 52.5722 47.2337C53.0608 47.001 53.2932 46.8504 53.6504 46.9454C54.6226 47.2038 55.0884 48.9223 56.0219 49.3135C56.8178 49.6471 57.3388 49.0203 57.8214 48.5104C58.6469 47.638 59.3643 46.6645 60.1787 45.7834C60.3702 45.5762 60.4611 45.209 60.2852 44.9584ZM57.2593 47.0154C56.3428 48.0642 56.6658 47.9582 55.7152 46.9935C54.3624 45.6203 54.1706 44.9119 52.3382 45.777C52.059 45.9088 51.2733 46.38 50.9601 46.3672C50.3637 46.343 50.5051 46.0858 50.3924 45.4564C50.1209 43.9385 49.9342 42.4065 49.8013 40.8707C49.7358 40.1133 49.7569 39.3185 49.6393 38.5691C49.6164 38.4233 49.3191 36.6693 49.434 36.7006C49.7909 36.7975 50.1255 36.9289 50.4769 37.0397C52.5729 37.6949 54.5535 38.7006 56.6233 39.439C56.8784 39.53 57.2421 39.6115 57.4104 39.875C57.721 40.3614 57.2363 40.761 57.0131 41.203C56.738 41.7074 56.1616 42.3605 56.1085 42.9385C56.0025 44.092 57.8647 44.551 58.7726 45.2892C58.2548 45.8514 57.76 46.4425 57.2593 47.0154Z" fill="black"/>
</g>
<defs>
<clipPath id="clip0">
<rect width="61" height="61" fill="white"/>
</clipPath>
</defs>
</svg>
