<svg width="71" height="71" viewBox="0 0 71 71" fill="none" xmlns="http://www.w3.org/2000/svg">
<g clip-path="url(#clip0)">
<path d="M70.9907 17.9286C70.9657 15.615 70.8017 13.2844 70.667 10.9722C70.5884 9.62378 70.5064 7.9722 69.4456 6.98014C68.1353 5.75483 65.8633 5.23676 64.1564 5.07257C62.0208 4.86733 59.8367 4.72644 57.69 4.70093C53.8321 4.65503 49.9773 4.85 46.1228 4.83031C42.2878 4.81062 38.4528 4.61412 34.6154 4.61426C26.1288 4.61454 17.6994 4.84251 9.2272 5.257C6.05924 5.4119 2.503 5.85606 1.34564 9.23564C0.751295 10.9708 0.677521 13.1584 0.510977 14.9883C0.34041 16.8634 0.154312 18.7269 0.0860859 20.6113C-0.195418 28.3797 0.308793 36.1442 0.230582 43.9215C0.212971 45.6719 0.301721 47.5576 0.570744 49.2911C0.830615 50.9652 1.68927 51.8627 3.22076 52.5085C6.64984 53.9544 11.0595 53.7163 14.7126 53.7424C17.9788 53.7658 21.2442 53.808 24.5095 53.8533C24.3312 55.6506 24.282 57.5108 24.3698 59.2989C24.4069 60.0571 24.461 60.7389 24.792 61.3133C24.4161 61.276 24.04 61.2426 23.6643 61.2191C22.1848 61.1268 20.2922 61.1964 19.2407 62.4381C18.3389 63.5031 18.7038 65.1218 19.9293 65.6898C21.6808 66.5014 24.0001 66.3841 25.8804 66.3752C31.0124 66.3511 36.1598 66.1808 41.2891 66.2249C43.7552 66.2461 46.4946 66.5724 48.9248 66.1395C50.3865 65.8791 51.7261 65.0328 51.261 63.3525C50.7031 61.3369 48.2926 61.1143 46.5495 61.1989C46.2333 61.2143 45.9205 61.2331 45.609 61.2542C46.1267 60.4625 46.2027 59.5307 46.2078 58.4937C46.2146 57.0838 46.3322 55.5071 46.1322 54.0613C48.4547 54.0567 50.7777 54.0626 53.0908 54.1455C56.5368 54.2689 60.9471 54.9831 64.1819 53.5014C67.5968 51.9371 68.4363 48.2285 69.1809 44.8893C70.095 40.7892 70.4438 36.439 70.643 32.2488C70.8685 27.5039 71.042 22.6772 70.9907 17.9286ZM48.3775 62.579C48.8442 62.7198 49.8991 63.019 49.8747 63.6825C49.8682 63.8607 49.755 64.0159 49.6371 64.1497C48.8546 65.0383 48.2148 64.8815 47.1237 64.8823C42.5578 64.8859 37.9999 64.9426 33.4345 64.9459C31.1799 64.9476 28.9311 64.9552 26.6782 65.0215C25.0419 65.0698 22.2453 65.4396 20.789 64.5751C19.0773 63.5591 21.2035 62.6936 22.1891 62.5744C24.4643 62.2991 26.7643 62.6859 29.0137 63.0045C31.1959 63.3136 33.3913 63.3231 35.5919 63.2851C37.3152 63.2553 39.0491 63.3207 40.7678 63.2181C43.2563 63.0693 45.8658 61.9308 48.3775 62.579ZM25.6117 53.8684C30.6209 53.9394 35.6302 54.0171 40.6414 54.0592C41.9502 54.0703 43.2617 54.068 44.5742 54.0645C44.6016 55.0238 44.6733 55.9893 44.6903 56.9475C44.7222 58.738 45.0827 60.5607 43.0447 61.309C40.7351 62.157 37.7706 61.781 35.3269 61.8142C32.7708 61.8488 30.0764 61.9146 27.5903 61.2424C26.4109 60.9236 26.0359 60.7458 25.8503 59.5316C25.771 59.0127 25.7814 58.4826 25.7669 57.9595C25.7289 56.5972 25.7296 55.2277 25.6117 53.8684ZM67.4519 45.6862C67.0276 47.502 66.5948 49.5041 65.2756 50.9103C62.6404 53.7189 57.9154 52.6678 54.4909 52.6729C51.4856 52.6774 48.4679 52.5662 45.4594 52.5978C45.334 52.5664 45.2006 52.5677 45.0751 52.6017C44.5365 52.6096 43.9981 52.6211 43.4603 52.6406C35.9164 52.9142 28.3136 52.3627 20.7636 52.3672C16.8837 52.3694 13.0041 52.2608 9.12777 52.0984C7.32878 52.0231 5.15538 51.9118 3.51572 51.0699C1.50844 50.0391 1.82004 47.5224 1.69745 45.5747C1.67762 45.2598 1.66445 44.9434 1.65017 44.6272C3.81359 44.8389 6.0566 44.4385 8.21406 44.3202C10.9512 44.1701 13.6841 44.1601 16.4245 44.1671C19.5194 44.1748 22.6143 44.1604 25.709 44.1697C28.6235 44.1783 31.5162 44.5286 34.4287 44.5907C40.1935 44.7136 45.958 44.6603 51.7203 44.8625C54.604 44.9637 57.4856 44.9486 60.3709 44.8868C62.7946 44.8348 65.2257 44.9803 67.6409 44.8136C67.5785 45.1042 67.52 45.3949 67.4519 45.6862ZM69.2401 28.2635C69.2261 32.0157 68.8913 35.7254 68.4957 39.4529C68.3835 40.5104 68.4864 43.053 67.4819 43.5504C66.6131 43.9806 65.2168 43.5568 64.2848 43.5601C62.9802 43.5651 61.6753 43.5436 60.3708 43.5762C57.486 43.6483 54.6034 43.6633 51.7201 43.5672C46.0561 43.3783 40.3876 43.4038 34.7204 43.3278C31.917 43.2903 29.1287 42.9311 26.3254 42.9212C23.2333 42.9103 20.1408 42.9418 17.0486 42.9494C14.2934 42.9563 11.5411 42.9495 8.78997 43.1105C6.41119 43.2498 3.99705 43.6364 1.61078 43.5736C1.52148 40.4858 1.63047 37.3536 1.60413 34.2828C1.5757 30.9712 1.32817 27.668 1.329 24.3552C1.32997 21.0291 1.54769 17.7347 1.89853 14.4285C2.0806 12.7137 2.14273 10.1352 3.18942 8.69287C4.40627 7.01633 7.32268 6.84729 9.22692 6.7394C17.6906 6.2596 26.1341 5.94981 34.6151 5.88602C41.7492 5.83235 48.8481 6.30952 55.9865 6.08044C59.3812 6.24227 63.1402 5.91958 66.3604 7.05169C67.1395 7.32557 68.274 7.76807 68.7239 8.53992C69.1278 9.23245 69.1187 10.2029 69.1598 10.9722C69.262 12.8952 69.3523 14.8134 69.4663 16.7339C69.6935 20.5628 69.2545 24.4319 69.2401 28.2635Z" fill="black"/>
<path d="M38.0162 46.8774C37.5385 46.1423 36.6309 45.7245 35.7615 45.6614C35.0471 45.6095 34.5633 45.9229 34.0596 46.2664C33.7911 46.3871 33.545 46.5464 33.3273 46.7378C33.3227 46.7424 33.3169 46.746 33.313 46.7508C32.6111 47.3762 32.2193 48.3301 32.4327 49.3692C32.7831 51.0757 35.2604 52.3376 36.7867 51.3948C38.2906 50.4658 39.0413 48.4551 38.0162 46.8774ZM36.8663 50.1132C36.3562 50.6105 35.8156 50.9132 35.0805 50.7429C34.4422 50.5951 33.6928 50.1086 33.3441 49.5348C32.6808 48.4434 33.4026 47.5021 34.3327 46.8887C34.9269 46.6872 35.4777 46.4162 36.2027 46.675C37.6472 47.1905 37.9433 49.0636 36.8663 50.1132Z" fill="black"/>
<path d="M10.3623 21.6178C10.47 19.2166 10.7479 16.6919 10.6509 14.2962C10.5785 12.5115 9.10008 11.6931 7.32009 11.8494C5.36426 12.021 5.72107 15.1256 5.68973 16.5146C5.67198 17.3007 5.62233 18.0874 5.56229 18.8743C5.4838 19.6987 5.40503 20.523 5.32821 21.3474C5.04185 24.4173 5.19481 27.5229 5.19106 30.6029C5.18954 31.9393 5.03866 33.2464 5.16596 34.5785C5.2292 35.2398 5.28536 36.3871 5.7495 36.8855C6.19449 37.3635 6.75889 37.2209 7.37958 37.222C8.19747 37.2235 9.34886 37.4189 9.84392 36.6254C10.2751 35.9347 10.0876 34.8231 10.0558 34.0634C9.99479 32.6067 10.0243 31.1693 10.0762 29.7131C10.1723 27.0145 10.2412 24.3151 10.3623 21.6178ZM6.10366 29.4507C6.75556 29.5641 7.43755 29.4698 8.09444 29.5474C8.50199 29.5955 8.79764 29.6466 9.10008 29.5596C9.04642 30.5483 9.00454 31.5437 9.00995 32.5363C8.48868 32.538 7.96464 32.55 7.44393 32.56C6.95955 32.5692 6.51677 32.5206 6.05055 32.561C6.06622 31.7213 6.11587 30.8776 6.10574 30.0363C6.10325 29.8408 6.10519 29.646 6.10366 29.4507ZM9.10951 35.2659C8.85991 36.1648 7.92858 36.5126 7.04011 36.2133C5.96555 35.8514 6.10103 34.6404 6.05873 33.7041C6.05332 33.586 6.05568 33.4672 6.05333 33.3489C6.62424 33.4474 7.20167 33.4966 7.78062 33.4984C8.20024 33.4998 8.63332 33.5632 9.03089 33.4934C9.05391 34.0086 9.24888 34.7643 9.10951 35.2659ZM8.83397 28.6898C8.56661 28.663 6.10103 28.4634 6.10103 28.6784C6.09895 27.5624 6.10519 26.4471 6.12363 25.333C6.63977 25.4858 7.2154 25.473 7.74623 25.479C8.24642 25.4847 8.73815 25.5127 9.23474 25.4389C8.91399 25.8766 9.71704 28.7781 8.83397 28.6898ZM9.34997 21.9157C9.32168 22.7791 9.30019 23.6422 9.27869 24.5051C8.29191 24.5274 7.0849 24.4225 6.13556 24.7176C6.15719 23.5868 6.18409 22.4564 6.21585 21.3265C6.22375 21.2117 6.22958 21.0971 6.2372 20.9822C6.6718 21.005 7.09739 20.9311 7.55057 20.9869C8.15933 21.0618 8.79584 21.0274 9.3992 20.9145C9.38034 21.2495 9.36079 21.5847 9.34997 21.9157ZM9.44857 20.0923C8.75327 19.9926 8.03356 20.0917 7.32897 20.0371C6.96107 20.0085 6.62992 20.0647 6.29004 20.1353C6.33677 19.3931 6.38475 18.6502 6.42816 17.9106C6.46019 17.3649 6.47378 16.8055 6.49583 16.2454C6.95455 16.3547 7.50453 16.3372 7.90737 16.3479C8.42503 16.3616 9.11229 16.4756 9.66808 16.4018C9.633 17.6252 9.53108 18.8653 9.44857 20.0923ZM8.1671 15.4333C7.60756 15.4374 7.0745 15.3564 6.53812 15.4238C6.56946 14.9612 6.61578 14.5024 6.69468 14.0555C6.84861 13.1839 6.83571 12.8549 8.20399 12.9273C9.38297 12.9897 9.63009 13.7357 9.6685 14.8065C9.67682 15.0408 9.67848 15.2771 9.67932 15.5135C9.19133 15.3966 8.66854 15.4297 8.1671 15.4333Z" fill="black"/>
<path d="M56.8847 27.3464C56.895 26.0191 56.7535 24.7622 56.61 23.4466C56.5196 22.6181 56.4386 22.0601 55.7192 21.5751C54.7621 20.93 53.5114 21.0254 52.4002 21.05C51.7507 21.0643 51.1005 21.0448 50.4506 21.0278C49.2664 20.9286 48.0812 20.8442 46.8925 20.7951C46.8937 19.6796 46.8563 18.6252 46.8629 17.7555C46.8732 16.4285 46.7317 15.1714 46.5882 13.8558C46.4978 13.0273 46.4168 12.4692 45.6974 11.9843C44.7403 11.3392 43.4896 11.4346 42.3784 11.4591C41.7289 11.4734 41.0786 11.4539 40.4288 11.437C39.0687 11.323 37.7074 11.2256 36.3409 11.1828C34.4141 11.1223 30.55 10.9075 29.2079 12.632C28.6427 13.3584 28.6341 14.3395 28.5781 15.2131C28.4771 16.7823 28.5926 18.3299 28.699 19.8954C28.7239 20.2625 28.746 20.6284 28.7697 20.9948C28.4714 20.9895 28.173 20.9816 27.8749 20.9738C26.5148 20.8599 25.1534 20.7625 23.787 20.7197C21.8601 20.6592 17.996 20.4444 16.6539 22.1689C16.0887 22.8953 16.0801 23.8764 16.024 24.75C15.923 26.3191 16.0385 27.8668 16.1449 29.4323C16.2442 30.8944 16.3351 32.3499 16.4025 33.8133C16.4468 34.776 16.3662 36.1676 16.8886 37.0248C17.8435 38.5924 20.6929 38.4541 22.2392 38.6358C24.6821 38.9228 27.5156 39.3516 29.954 38.9968C34.3639 38.355 34.3888 32.9486 34.3271 29.0554C34.491 29.0684 34.6493 29.0821 34.7932 29.099C36.0365 29.2451 37.381 29.4274 38.723 29.5249C38.8215 30.9742 38.9115 32.4169 38.9783 33.8674C39.0226 34.8301 38.942 36.2215 39.4644 37.0789C40.4193 38.6466 43.2687 38.5082 44.815 38.6899C47.2579 38.9769 50.0913 39.4057 52.5297 39.0508C57.6609 38.3037 56.8558 31.1045 56.8847 27.3464ZM31.1568 37.5607C29.9075 38.2597 28.3064 38.0642 26.944 37.9789C25.7439 37.9037 24.5374 37.8372 23.3401 37.7271C22.0965 37.6127 20.7844 37.4985 19.5511 37.2891C17.7011 36.9751 17.5434 36.0376 17.4401 34.3052C17.2784 31.5942 16.9611 28.8443 16.9601 26.1284C16.9599 25.4524 16.8955 24.5788 17.0719 23.9238C17.5126 22.2878 18.1836 22.2029 19.393 21.9837C20.9273 21.7055 22.5257 21.6489 24.0815 21.6819C25.6501 21.7152 27.2432 21.8724 28.8309 21.9465C28.8777 22.7224 28.9209 23.4984 28.9566 24.2766C29.0009 25.2393 28.9203 26.6307 29.4427 27.4881C30.1426 28.6369 31.8588 28.869 33.3349 28.9827C33.3359 29.0203 33.3356 29.058 33.3366 29.0957C33.4 31.3946 33.5336 36.2307 31.1568 37.5607ZM29.7927 21.9794C30.432 21.9923 31.0693 21.9848 31.7029 21.9432C31.9203 22.0024 32.126 22.0821 32.3136 22.1908C33.267 22.7432 33.2344 24.8145 33.2874 25.8048C33.3249 26.51 33.3223 27.2185 33.3236 27.9266C32.9128 27.8755 32.5043 27.8201 32.1052 27.7524C30.2552 27.4383 30.0975 26.5009 29.9942 24.7685C29.9389 23.8423 29.8655 22.9116 29.7927 21.9794ZM39.2299 22.2229C38.6646 22.9492 38.656 23.9303 38.5999 24.804C38.5226 26.0057 38.5724 27.1948 38.6476 28.3889C37.729 28.3323 36.8092 28.2744 35.8943 28.1903C35.3752 28.1425 34.8437 28.0933 34.3116 28.0386C34.3084 27.7779 34.307 27.5284 34.3088 27.2924C34.3191 25.9652 34.1776 24.7083 34.0341 23.3927C33.9437 22.5641 33.8627 22.0061 33.1434 21.5212C32.1863 20.8761 30.9356 20.9715 29.8244 20.996C29.7889 20.9969 29.7533 20.9955 29.7178 20.9962C29.6076 19.5257 29.5148 18.0537 29.5142 16.5917C29.514 15.9156 29.4496 15.042 29.6261 14.3871C30.0668 12.751 30.7379 12.6661 31.9472 12.4468C33.4815 12.1685 35.08 12.112 36.6357 12.145C39.1546 12.1984 41.7361 12.572 44.2573 12.4064C44.4746 12.4656 44.6804 12.5454 44.868 12.6541C45.8215 13.2064 45.7888 15.2778 45.8417 16.268C45.9001 17.3619 45.8607 18.4631 45.891 19.559C45.9005 19.9075 45.9116 20.3149 45.9155 20.759C43.8899 20.6925 40.4753 20.6227 39.2299 22.2229ZM39.5359 26.1824C39.5356 25.5063 39.4713 24.6327 39.6478 23.9778C40.0885 22.3417 40.7596 22.2568 41.9689 22.0375C43.2583 21.8037 44.5929 21.7274 45.9095 21.7284C45.8571 24.1095 45.4779 27.0352 43.711 28.0239C42.493 28.7056 40.9409 28.5369 39.6011 28.449C39.5623 27.6918 39.5362 26.9358 39.5359 26.1824ZM53.7327 37.6146C52.4834 38.3137 50.8823 38.1181 49.5197 38.0328C48.3197 37.9577 47.1132 37.8911 45.9159 37.781C44.6723 37.6666 43.3602 37.5525 42.1269 37.3431C40.277 37.029 40.1192 36.0916 40.0159 34.3591C39.9213 32.7739 39.7747 31.1754 39.6681 29.578C40.6424 29.6149 41.6024 29.5916 42.5079 29.4597C46.1195 28.9342 46.7893 25.2125 46.88 21.7436C49.3282 21.8129 51.8318 22.1578 54.2788 21.9971C54.4961 22.0563 54.7019 22.1361 54.8895 22.2448C55.843 22.7971 55.8103 24.8684 55.8633 25.8587C55.9217 26.9525 55.8823 28.0537 55.9125 29.1497C55.9759 31.4486 56.1096 36.2846 53.7327 37.6146Z" fill="black"/>
<path d="M63.7758 12.8612C61.4277 12.4261 58.8976 12.527 56.5237 12.6428C55.0587 12.7142 53.595 12.8128 52.1298 12.8828C51.9821 12.8899 51.8236 12.9009 51.7078 12.9928C51.5919 13.0847 51.5569 13.2896 51.6789 13.3732C51.7265 13.4058 51.7861 13.4134 51.8434 13.4201C52.5409 13.5012 53.2698 13.6618 53.973 13.6618C55.1627 13.6705 56.3466 13.5694 57.5364 13.5664C59.5796 13.5609 61.7548 13.8011 63.7758 13.4798C64.0859 13.4305 64.0783 12.9172 63.7758 12.8612Z" fill="black"/>
<path d="M63.7758 14.8007C61.4277 14.3655 58.8976 14.4665 56.5237 14.5823C55.0587 14.6537 53.595 14.7523 52.1298 14.8223C51.9821 14.8294 51.8236 14.8403 51.7078 14.9323C51.5919 15.0242 51.5569 15.229 51.6789 15.3126C51.7265 15.3452 51.7861 15.3529 51.8434 15.3595C52.5409 15.4406 53.2698 15.6012 53.973 15.6012C55.1627 15.61 56.3466 15.5089 57.5364 15.5057C59.5796 15.5003 61.7548 15.7404 63.7758 15.4191C64.0859 15.37 64.0783 14.8567 63.7758 14.8007Z" fill="black"/>
<path d="M63.7758 16.7401C61.4277 16.305 58.8976 16.4059 56.5237 16.5217C55.0587 16.5931 53.595 16.6917 52.1298 16.7617C51.9821 16.7688 51.8236 16.7798 51.7078 16.8717C51.5919 16.9637 51.5569 17.1685 51.6789 17.2521C51.7265 17.2847 51.7861 17.2923 51.8434 17.299C52.5409 17.3799 53.2698 17.5407 53.973 17.5407C55.1627 17.5494 56.3466 17.4483 57.5364 17.4453C59.5796 17.4399 61.7548 17.68 63.7758 17.3587C64.0859 17.3095 64.0783 16.7961 63.7758 16.7401Z" fill="black"/>
</g>
<defs>
<clipPath id="clip0">
<rect width="71" height="71" fill="white"/>
</clipPath>
</defs>
</svg>
