<svg width="61" height="61" viewBox="0 0 61 61" fill="none" xmlns="http://www.w3.org/2000/svg">
<g clip-path="url(#clip0)">
<path d="M58.9525 0.00225409C50.6014 -0.103456 42.5157 3.52338 35.5465 7.83939C32.0688 9.99327 28.942 12.6201 26.138 15.5883C24.2219 17.6164 21.3112 20.3255 20.8268 23.1813C20.8258 23.1867 20.8274 23.1908 20.8268 23.1962C17.0831 22.5896 12.8236 23.8759 9.12693 24.5466C8.91995 24.5082 8.70917 24.5457 8.52314 24.68C8.4387 24.7165 8.37363 24.7682 8.33617 24.8368C6.54164 26.6967 4.86298 29.2125 3.81985 31.5597C3.73033 31.7613 3.74969 31.9616 3.82524 32.1304C3.67954 32.3323 3.72207 32.6942 4.01635 32.7587C6.91051 33.3894 9.74405 34.2872 12.6233 34.9719C10.0977 37.076 10.5088 40.339 12.5998 42.8637C14.8873 45.6251 19.2173 47.0568 22.5334 45.4594C22.4984 48.2276 23.5292 51.3163 24.6793 53.7159C24.9428 54.2654 25.6062 54.147 25.91 53.7549C27.2506 53.6803 28.3141 52.8175 29.3877 52.0255C31.0359 50.809 33.1586 50.2614 34.6792 48.8894C35.0808 48.5269 34.9068 47.8844 34.5119 47.619C34.5116 46.2508 34.3506 44.8848 34.1459 43.5309C33.9367 42.1469 33.9243 40.4707 33.3269 39.1648C49.3024 33.2599 56.7799 18.1529 59.2756 1.94884C60.2302 1.60473 60.1381 0.0174915 58.9525 0.00225409ZM32.3323 38.2673C32.0098 38.2543 31.7006 38.4083 31.6079 38.7654C31.5536 38.8717 31.5371 38.9895 31.5577 39.1073C31.4089 40.5247 31.9482 41.9297 32.2574 43.3192C32.5894 44.8134 32.9082 46.3156 33.3862 47.7695C32.1301 48.3317 30.9321 49.1132 29.7654 49.8227C28.4474 50.6236 27.4465 52.301 25.9437 52.7934C25.1571 50.0453 23.7666 47.4565 23.5574 44.5553C23.526 44.1217 23.1203 43.9957 22.8384 44.1496C22.6464 43.8731 22.3305 43.7023 21.9594 43.8531C19.2824 44.9429 16.5412 44.0544 14.4699 42.1497C12.3068 40.16 12.2258 37.5658 13.8585 35.2646L13.8601 35.2649C14.6743 35.4363 14.9959 34.2805 14.2032 34.0202C11.2487 33.0507 8.13046 32.4787 5.03631 32.1098C6.84544 30.281 8.23427 27.8471 9.74722 25.7866C9.78023 25.7418 9.78754 25.6964 9.80912 25.651C13.5686 25.8437 17.8142 25.5717 21.3769 24.6771C21.7883 24.5739 21.9569 24.1409 21.8727 23.7797C21.9093 23.7444 21.9477 23.7143 21.9794 23.6679C29.9711 12.0106 43.163 3.33164 57.3808 2.1501C56.2583 9.75518 53.9086 16.8558 49.9935 23.5165C46.0978 30.1439 38.8978 34.736 32.3323 38.2673Z" fill="black"/>
<path d="M46.9869 14.4716C46.8631 13.3751 46.3717 12.2888 45.4774 11.6114C44.7451 11.0568 43.5403 10.7171 42.6394 11.0761C37.6422 10.3755 36.7774 20.0256 42.7658 19.7793C45.4603 19.6685 47.2761 17.0302 46.9869 14.4716ZM42.7658 17.8851C41.0719 18.0924 40.3271 16.7975 40.4144 15.2874C40.4782 14.1827 41.1668 13.0738 42.1106 12.4202C42.1788 12.4793 42.249 12.5377 42.3375 12.5745C43.0337 12.863 43.7403 12.585 44.4171 13.0119C44.9546 13.3513 45.1012 14.123 45.1285 14.7011C45.1993 16.1908 44.3362 17.693 42.7658 17.8851Z" fill="black"/>
<path d="M14.5914 50.3513C14.2908 52.084 13.7095 53.5455 12.3924 54.5423C11.9512 52.7535 11.2683 51.2008 10.1125 49.6523C9.6173 48.9889 8.6056 49.199 8.55036 50.0755C8.32053 53.721 7.44215 56.6346 4.54069 58.7078C3.93119 55.5105 5.21621 52.3351 4.98003 49.0717C4.94448 48.579 4.6137 48.2425 4.11848 48.2102C3.73818 48.1702 3.35724 48.1499 2.97599 48.1438C3.33724 44.6421 5.01114 42.2431 7.81261 39.967C8.14752 39.6946 7.78881 39.1017 7.39168 39.2439C3.05853 40.7898 1.27035 44.6903 1.07639 49.072C1.05543 49.5431 1.50653 50.0139 1.98587 49.9815C2.40427 49.9326 2.82298 49.9142 3.24201 49.912C3.08329 53.5293 1.72937 57.0669 3.22709 60.562C3.41248 60.9944 4.0715 61.1182 4.44133 60.8804C7.7269 58.7672 9.21859 56.1143 9.87792 52.7065C10.3573 53.8077 10.6896 54.9524 10.896 56.2152C11.0001 56.852 11.7509 56.9698 12.2324 56.759C14.7514 55.6565 16.2126 53.309 16.2624 50.578C16.2799 49.6358 14.758 49.392 14.5914 50.3513Z" fill="black"/>
</g>
<defs>
<clipPath id="clip0">
<rect width="61" height="61" fill="white"/>
</clipPath>
</defs>
</svg>
