<svg width="68" height="74" viewBox="0 0 68 74" fill="none" xmlns="http://www.w3.org/2000/svg">
<path fill-rule="evenodd" clip-rule="evenodd" d="M59.3539 0C64.037 0 67.8326 3.79563 67.8326 8.47935V50.1043C67.8326 54.7874 64.037 58.5831 59.3539 58.5831H23.8952C19.212 58.5831 15.4164 54.7874 15.4164 50.1043V8.47935C15.4164 3.79563 19.212 0 23.8952 0H59.3539ZM30.062 44.7081H53.187C54.4635 44.7081 55.4995 43.6721 55.4995 42.3956C55.4995 41.1191 54.4635 40.0831 53.187 40.0831H30.062C28.7855 40.0831 27.7495 41.1191 27.7495 42.3956C27.7495 43.6721 28.7855 44.7081 30.062 44.7081ZM30.062 35.4581H53.187C54.4635 35.4581 55.4995 34.4221 55.4995 33.1456C55.4995 31.8691 54.4635 30.8331 53.187 30.8331H30.062C28.7855 30.8331 27.7495 31.8691 27.7495 33.1456C27.7495 34.4221 28.7855 35.4581 30.062 35.4581ZM30.062 26.2081H53.187C54.4635 26.2081 55.4995 25.1721 55.4995 23.8956C55.4995 22.6191 54.4635 21.5831 53.187 21.5831H30.062C28.7855 21.5831 27.7495 22.6191 27.7495 23.8956C27.7495 25.1721 28.7855 26.2081 30.062 26.2081ZM10.7918 50.1044C10.7918 57.3287 16.6685 63.2081 23.8956 63.2081H53.9581V65.5206C53.9581 70.1981 50.1568 74 45.4793 74H8.47935C3.80185 74 0 70.1981 0 65.5206V16.1875C0 11.51 3.80185 7.7082 8.47935 7.7082H10.8686C10.8621 7.81917 10.8471 7.92785 10.832 8.0367C10.812 8.18205 10.7918 8.32769 10.7918 8.47941V50.1044Z" fill="#ADC9FF"/>
</svg>
