<svg width="74" height="80" viewBox="0 0 74 80" fill="none" xmlns="http://www.w3.org/2000/svg">
<g clip-path="url(#clip0)">
<path d="M36.5562 0.975586C40.824 0.975586 44.7722 3.02443 48.1124 6.60803" stroke="#00B4FF" stroke-width="2" stroke-miterlimit="10" stroke-linecap="round" stroke-linejoin="round" stroke-dasharray="5.25 5.25"/>
<path d="M36.5565 79.0247C31.8347 79.0247 27.5039 76.5172 23.9561 72.1968" stroke="#3179FF" stroke-width="2" stroke-miterlimit="10" stroke-linecap="round" stroke-linejoin="round" stroke-dasharray="5.25 5.25"/>
<path d="M36.5566 74.689C46.3222 74.689 54.2388 59.1584 54.2388 40.0005C54.2388 20.8426 46.3222 5.31201 36.5566 5.31201C26.7911 5.31201 18.8745 20.8426 18.8745 40.0005C18.8745 59.1584 26.7911 74.689 36.5566 74.689Z" stroke="#3179FF" stroke-width="2" stroke-miterlimit="10" stroke-linecap="round" stroke-linejoin="round"/>
<path d="M2.76123 20.4874C5.16064 16.3305 9.60325 13.6858 15.4951 12.8296" stroke="#3179FF" stroke-width="2" stroke-miterlimit="10" stroke-linecap="round" stroke-linejoin="round" stroke-dasharray="5.25 5.25"/>
<path d="M70.3521 59.5125C68.0993 63.4156 64.0448 65.985 58.6821 66.9925" stroke="#00B4FF" stroke-width="2" stroke-miterlimit="10" stroke-linecap="round" stroke-linejoin="round" stroke-dasharray="5.25 5.25"/>
<path d="M66.5958 57.3454C71.4786 48.8884 61.9874 34.2674 45.3967 24.6884C28.8059 15.1094 11.3982 14.1999 6.51538 22.6569C1.63258 31.1138 11.1238 45.7349 27.7145 55.3138C44.3053 64.8928 61.7131 65.8023 66.5958 57.3454Z" stroke="#3179FF" stroke-width="2" stroke-miterlimit="10" stroke-linecap="round" stroke-linejoin="round"/>
<path d="M70.4282 20.4443C72.8286 24.6012 72.8972 29.7704 70.6933 35.3004" stroke="#3179FF" stroke-width="2" stroke-miterlimit="10" stroke-linecap="round" stroke-linejoin="round" stroke-dasharray="5.25 5.25"/>
<path d="M2.83661 59.4672C0.582876 55.565 0.38457 50.769 2.19282 45.6206" stroke="#00B4FF" stroke-width="2" stroke-miterlimit="10" stroke-linecap="round" stroke-linejoin="round" stroke-dasharray="5.25 5.25"/>
<path d="M45.4724 55.2679C62.0631 45.6889 71.5543 31.0679 66.6716 22.6109C61.7888 14.154 44.381 15.0635 27.7902 24.6425C11.1995 34.2214 1.70827 48.8425 6.59105 57.2994C11.4738 65.7564 28.8816 64.8469 45.4724 55.2679Z" stroke="#3179FF" stroke-width="2" stroke-miterlimit="10" stroke-linecap="round" stroke-linejoin="round"/>
<path d="M41.761 33.1922C40.9546 31.5634 38.9688 30.4121 36.6455 30.4121C33.6079 30.4121 31.1455 32.382 31.1455 34.8115C31.1455 38.1113 33.7122 38.8444 36.6455 39.2109C40.4443 39.6855 42.1454 41.1808 42.1454 43.6103C42.1454 46.0398 39.683 48.0097 36.6455 48.0097C34.3851 48.0097 32.4434 46.9185 31.5976 45.3593" stroke="#00B4FF" stroke-width="2" stroke-miterlimit="10" stroke-linecap="round" stroke-linejoin="round"/>
<path d="M36.646 50.5785V27.8457" stroke="#00B4FF" stroke-width="2" stroke-miterlimit="10" stroke-linecap="round" stroke-linejoin="round"/>
</g>
<defs>
<clipPath id="clip0">
<rect width="74" height="80" fill="white"/>
</clipPath>
</defs>
</svg>
