<svg width="90" height="80" viewBox="0 0 90 80" fill="none" xmlns="http://www.w3.org/2000/svg">
<path d="M84.7585 68.489C79.0356 68.948 73.8481 69.7498 69.92 71.7967C69.7543 71.8873 69.5871 71.978 69.42 72.0687C69.3307 72.1182 69.2401 72.165 69.1537 72.216V72.2146C67.468 73.124 65.6874 74.0249 63.8317 74.923C58.572 77.4672 54.3039 78.7647 49.1349 78.9106C42.7816 79.0891 31.7127 73.7515 23.2162 69.0812C6.87762 60.0974 -2.24784 54.3603 2.21715 50.7042C6.42998 47.2549 19.0359 54.9751 29.8329 60.4515" stroke="#3179FF" stroke-width="2" stroke-miterlimit="10" stroke-linecap="round" stroke-linejoin="round"/>
<path d="M64.7059 60.8227C57.0395 61.4333 52.1 63.6289 45.3883 65.9238C38.5237 68.271 34.1381 69.7683 32.9949 65.9748C31.7908 61.9829 40.0026 55.8917 48.628 52.4141C54.8439 49.9082 59.2352 44.9672 65.0232 44.208C69.7673 43.5847 74.092 44.7236 77.5229 45.8526C81.5856 47.1898 84.94 48.0298 88.0366 48.5384" stroke="#3179FF" stroke-width="2" stroke-miterlimit="10" stroke-linecap="round" stroke-linejoin="round"/>
<path d="M12.3232 47.4829C12.9451 46.8015 14.152 46.3964 15.893 46.3992C20.5747 46.4049 27.8558 51.3628 34.4102 55.5303" stroke="#3179FF" stroke-width="2" stroke-miterlimit="10" stroke-linecap="round" stroke-linejoin="round"/>
<path d="M23.0889 44.5293C23.6342 44.4061 24.2986 44.3707 25.0763 44.4386C28.816 44.763 32.9863 48.6331 38.5803 52.7368" stroke="#3179FF" stroke-width="2" stroke-miterlimit="10" stroke-linecap="round" stroke-linejoin="round"/>
<path d="M33.1763 44.0917C33.6905 43.9925 34.3223 43.9911 35.0645 44.1002C37.8594 44.5166 38.9955 46.6783 43.1941 50.0908" stroke="#3179FF" stroke-width="2" stroke-miterlimit="10" stroke-linecap="round" stroke-linejoin="round"/>
<path d="M35.5698 16.3811L46.7493 27.562L68.7526 5.55859" stroke="#3179FF" stroke-width="2" stroke-miterlimit="10" stroke-linecap="round" stroke-linejoin="round"/>
<path d="M59.2267 5.55708C55.8765 2.76504 51.5674 1.08643 46.8658 1.08643C36.1963 1.08643 27.5454 9.73592 27.5454 20.4068C27.5454 31.0763 36.1949 39.7272 46.8658 39.7272C57.5367 39.7272 66.1862 31.0777 66.1862 20.4068C66.1862 19.3926 66.1083 18.3967 65.9567 17.4236" stroke="#00B4FF" stroke-width="2" stroke-miterlimit="10" stroke-linecap="round" stroke-linejoin="round"/>
</svg>
