<svg width="147" height="79" viewBox="0 0 147 79" fill="none" xmlns="http://www.w3.org/2000/svg">
<path d="M83.4289 27.8907L87.5501 23.3091C88.6874 22.045 90.7695 21.8469 92.1759 22.869C93.5824 23.8911 93.8029 25.7624 92.6656 27.0264L89.8901 30.1114" stroke="#00B4FF" stroke-width="2" stroke-miterlimit="10" stroke-linecap="round" stroke-linejoin="round"/>
<path d="M90.8094 30.9539L84.6576 26.5251" stroke="#00B4FF" stroke-width="2" stroke-miterlimit="10" stroke-linecap="round" stroke-linejoin="round"/>
<path d="M89.7731 30.2414L93.0523 26.5962C94.3998 25.0979 96.8819 24.8736 98.549 26.0856C100.216 27.2967 100.478 29.5141 99.1294 31.0125" stroke="#00B4FF" stroke-width="2" stroke-miterlimit="10" stroke-linecap="round" stroke-linejoin="round"/>
<path d="M85.805 25.2484L84.3555 24.196" stroke="#00B4FF" stroke-width="2" stroke-miterlimit="10" stroke-linecap="round" stroke-linejoin="round"/>
<path d="M87.5234 23.3382L86.075 22.2859" stroke="#00B4FF" stroke-width="2" stroke-miterlimit="10" stroke-linecap="round" stroke-linejoin="round"/>
<path d="M80.2607 70.8459H63.5843C60.4565 70.8459 57.9211 68.5673 57.9211 65.7562V28.1794" stroke="#3179FF" stroke-width="2" stroke-miterlimit="10" stroke-linecap="round" stroke-linejoin="round"/>
<path d="M68.7087 25.6475H61.1793C59.5476 25.6475 58.0898 26.72 57.9347 28.1797C57.7571 29.8544 59.2177 31.2638 61.0447 31.2638H63.5839H114.751C117.879 31.2638 120.414 33.5424 120.414 36.3544V38.024" stroke="#3179FF" stroke-width="2" stroke-miterlimit="10" stroke-linecap="round" stroke-linejoin="round"/>
<path d="M117.291 31.8052V28.8252C117.291 27.0699 115.708 25.6462 113.754 25.6462H112.66" stroke="#3179FF" stroke-width="2" stroke-miterlimit="10" stroke-linecap="round" stroke-linejoin="round"/>
<path d="M67.8018 31.2644L98.2023 1.09717L119.736 18.6257L107 31.2644" stroke="#3179FF" stroke-width="2" stroke-miterlimit="10" stroke-linecap="round" stroke-linejoin="round"/>
<path d="M92.9698 6.28946C96.1603 8.8864 101.09 8.6672 103.98 5.7998" stroke="#3179FF" stroke-width="2" stroke-miterlimit="10" stroke-linecap="round" stroke-linejoin="round"/>
<path d="M113.959 13.9231C111.069 16.7905 111.313 21.2208 114.503 23.8186" stroke="#3179FF" stroke-width="2" stroke-miterlimit="10" stroke-linecap="round" stroke-linejoin="round"/>
<path d="M63.1142 31.2635L93.5149 1.09717" stroke="#3179FF" stroke-width="2" stroke-miterlimit="10" stroke-linecap="round" stroke-linejoin="round"/>
<path d="M140.471 75.8468H88.5277C85.5344 75.8468 83.1074 73.6657 83.1074 70.9755V45.1691C83.1074 42.4789 85.5344 40.2976 88.5277 40.2976H140.471C143.464 40.2976 145.891 42.4789 145.891 45.1691V70.9746C145.891 73.6657 143.464 75.8468 140.471 75.8468Z" stroke="#3179FF" stroke-width="2" stroke-miterlimit="10" stroke-linecap="round" stroke-linejoin="round"/>
<path d="M113.401 66.5358H91.2681C90.7047 66.5358 90.2477 66.1251 90.2477 65.6186V61.8097C90.2477 61.3033 90.7047 60.8926 91.2681 60.8926H113.4C113.963 60.8926 114.42 61.3033 114.42 61.8097V65.6186C114.42 66.1259 113.963 66.5358 113.401 66.5358Z" stroke="#00B4FF" stroke-width="2" stroke-miterlimit="10" stroke-linecap="round" stroke-linejoin="round"/>
<path d="M83.1063 46.7866H145.891" stroke="#3179FF" stroke-width="2" stroke-miterlimit="10" stroke-linecap="round" stroke-linejoin="round"/>
<path d="M122.425 60.8933H138.748" stroke="#00B4FF" stroke-width="2" stroke-miterlimit="10" stroke-linecap="round" stroke-linejoin="round"/>
<path d="M83.1063 55.2507H145.891" stroke="#3179FF" stroke-width="2" stroke-miterlimit="10" stroke-linecap="round" stroke-linejoin="round"/>
<path d="M122.425 66.5356H128.546" stroke="#3179FF" stroke-width="2" stroke-miterlimit="10" stroke-linecap="round" stroke-linejoin="round"/>
<path d="M59.4714 74.2569C55.6137 76.4439 48.6647 77.9029 40.7325 77.9029C28.6081 77.9029 18.7789 74.4937 18.7789 70.2875V56.6628" stroke="#3179FF" stroke-width="2" stroke-miterlimit="10" stroke-linecap="round" stroke-linejoin="round"/>
<path d="M9.53674 53.0076V60.1324" stroke="#00B4FF" stroke-width="2" stroke-miterlimit="10" stroke-linecap="round" stroke-linejoin="round"/>
<path d="M12.5103 62.8041C12.5103 61.3283 11.1796 60.1323 9.53763 60.1323C7.89569 60.1323 6.56494 61.3283 6.56494 62.8041C6.56494 64.2797 7.89569 65.4757 9.53763 65.4757C11.1796 65.4757 12.5103 64.2797 12.5103 62.8041Z" stroke="#00B4FF" stroke-width="2" stroke-miterlimit="10" stroke-linecap="round" stroke-linejoin="round"/>
<path d="M11.5194 64.7937L12.9867 69.0376H6.08716L7.55528 64.7937" stroke="#00B4FF" stroke-width="2" stroke-miterlimit="10" stroke-linecap="round" stroke-linejoin="round"/>
<path d="M53.0728 60.2148L40.7326 65.4834L1.09702 48.5629L40.7326 32.5327L54.3101 38.024" stroke="#3179FF" stroke-width="2" stroke-miterlimit="10" stroke-linecap="round" stroke-linejoin="round"/>
</svg>
