<svg width="67" height="77" viewBox="0 0 67 77" fill="none" xmlns="http://www.w3.org/2000/svg">
<path d="M33.5507 31.4419L28.6 29.9122C26.8472 29.4567 24.9233 29.5005 23.2135 30.0338L21.5671 30.5466" stroke="#3179FF" stroke-width="2" stroke-miterlimit="10" stroke-linecap="round" stroke-linejoin="round"/>
<path d="M38.467 36.0664C37.5554 43.1324 36.7112 45.6433 36.171 48.0332C35.7909 49.7158 36.8666 51.4219 38.5735 51.7148C39.5085 51.8753 40.6252 51.9103 41.8739 51.6553" stroke="#3179FF" stroke-width="2" stroke-miterlimit="10" stroke-linecap="round" stroke-linejoin="round"/>
<path d="M23.5376 35.1992C23.5376 35.1992 26.8459 38.5041 30.1639 35.209" stroke="#3179FF" stroke-width="2" stroke-miterlimit="10" stroke-linecap="round" stroke-linejoin="round"/>
<path d="M46.4828 31.4419L51.4335 29.9122C53.1863 29.4567 55.1101 29.5005 56.82 30.0338L58.4663 30.5466" stroke="#3179FF" stroke-width="2" stroke-miterlimit="10" stroke-linecap="round" stroke-linejoin="round"/>
<path d="M46.6871 60.3457C44.6646 61.0483 42.562 61.2877 40.2249 61.2877H39.8087C37.4716 61.2877 35.369 61.0483 33.3466 60.3457" stroke="#3179FF" stroke-width="2" stroke-miterlimit="10" stroke-linecap="round" stroke-linejoin="round"/>
<path d="M56.4953 35.1992C56.4953 35.1992 53.1871 38.5041 49.869 35.209" stroke="#3179FF" stroke-width="2" stroke-miterlimit="10" stroke-linecap="round" stroke-linejoin="round"/>
<path d="M27.5577 69.7803C28.9685 71.1495 30.3364 72.1538 31.4825 73.0666C34.5837 75.5375 37.6838 75.8334 39.8088 75.8334H40.2241C42.3492 75.8334 45.4503 75.5375 48.5505 73.0666C51.9272 70.3759 57.2326 66.89 59.8822 55.6355C62.6014 44.0851 62.9169 43.8681 64.0543 39.7118C65.1925 35.5563 65.3087 29.7106 64.8789 26.7182C64.1207 21.4291 61.3977 1.16602 40.2241 1.16602H39.8079C18.6344 1.16602 15.9114 21.4291 15.1531 26.7182C14.7379 29.6104 14.8327 35.171 15.8684 39.2923" stroke="#3179FF" stroke-width="2" stroke-miterlimit="10" stroke-linecap="round" stroke-linejoin="round"/>
<path d="M5.68927 43.7942H23.5047C25.8301 43.7942 27.7157 45.6724 27.7157 47.9885V61.9065C27.7157 64.2227 25.8301 66.1009 23.5047 66.1009H21.409C21.1256 66.1009 20.896 66.3295 20.896 66.6118V72.0857C20.896 72.5402 20.344 72.768 20.0216 72.4468L13.8007 66.2508C13.7049 66.1554 13.574 66.1009 13.4382 66.1009H5.68927C3.36391 66.1009 1.47821 64.2227 1.47821 61.9065V47.9885C1.47821 45.6714 3.36391 43.7942 5.68927 43.7942Z" stroke="#00B4FF" stroke-width="2" stroke-miterlimit="10" stroke-linecap="round" stroke-linejoin="round"/>
<path d="M8.97345 54.4055L13.4043 58.8178L20.145 52.104" stroke="#00B4FF" stroke-width="2" stroke-miterlimit="10" stroke-linecap="round" stroke-linejoin="round"/>
<path d="M4.51263 14.9575L5.43203 14.0417" stroke="#3179FF" stroke-width="2" stroke-miterlimit="10" stroke-linecap="round" stroke-linejoin="round"/>
<path d="M9.47375 10.0158L10.3932 9.1001" stroke="#3179FF" stroke-width="2" stroke-miterlimit="10" stroke-linecap="round" stroke-linejoin="round"/>
<path d="M10.3932 14.9575L9.47375 14.0417" stroke="#3179FF" stroke-width="2" stroke-miterlimit="10" stroke-linecap="round" stroke-linejoin="round"/>
<path d="M5.43203 10.0158L4.51263 9.1001" stroke="#3179FF" stroke-width="2" stroke-miterlimit="10" stroke-linecap="round" stroke-linejoin="round"/>
<path d="M1.41742 29.1111L1.1712 28.866" stroke="#3179FF" stroke-width="2" stroke-miterlimit="10" stroke-linecap="round" stroke-linejoin="round"/>
<path d="M4.94103 32.6204L4.69482 32.3752" stroke="#3179FF" stroke-width="2" stroke-miterlimit="10" stroke-linecap="round" stroke-linejoin="round"/>
<path d="M1.41742 32.3752L1.1712 32.6204" stroke="#3179FF" stroke-width="2" stroke-miterlimit="10" stroke-linecap="round" stroke-linejoin="round"/>
<path d="M4.94103 28.866L4.69482 29.1111" stroke="#3179FF" stroke-width="2" stroke-miterlimit="10" stroke-linecap="round" stroke-linejoin="round"/>
</svg>
