<svg width="21" height="21" viewBox="0 0 21 21" fill="none" xmlns="http://www.w3.org/2000/svg">
<path d="M4.92188 10.5C4.92188 9.45953 5.20853 8.48487 5.70654 7.65033V4.11035H2.16657C0.761578 5.93505 0 8.15888 0 10.5C0 12.8411 0.761578 15.0649 2.16657 16.8896H5.70654V13.3496C5.20853 12.5151 4.92188 11.5404 4.92188 10.5Z" fill="#FBBD00"/>
<path d="M10.5 16.0778L8.03906 18.5387L10.5 20.9996C12.8411 20.9996 15.0649 20.2381 16.8896 18.8331V15.2969H13.3534C12.5116 15.7967 11.5328 16.0778 10.5 16.0778Z" fill="#0F9D58"/>
<path d="M5.70641 13.3496L2.16643 16.8896C2.4446 17.2509 2.7475 17.5968 3.07525 17.9246C5.05844 19.9078 7.69521 21 10.4999 21V16.0781C8.4645 16.0781 6.68061 14.9822 5.70641 13.3496Z" fill="#31AA52"/>
<path d="M21 10.4999C21 9.86108 20.9422 9.22107 20.8281 8.59771L20.7357 8.09326H10.5V13.0151H15.4814C14.9977 13.9774 14.2539 14.7625 13.3534 15.2972L16.8896 18.8334C17.2508 18.5552 17.5968 18.2523 17.9246 17.9245C19.9078 15.9413 21 13.3045 21 10.4999Z" fill="#3C79E6"/>
<path d="M14.4443 6.55565L14.8794 6.99066L18.3597 3.5104L17.9246 3.07539C15.9415 1.09221 13.3047 0 10.5 0L8.03906 2.46094L10.5 4.92188C11.9899 4.92188 13.3907 5.50208 14.4443 6.55565Z" fill="#CF2D48"/>
<path d="M10.4999 4.92188V0C7.69527 0 5.0585 1.09221 3.07527 3.07535C2.74751 3.40311 2.44461 3.74907 2.16644 4.11038L5.70642 7.65036C6.68066 6.01781 8.46456 4.92188 10.4999 4.92188Z" fill="#EB4132"/>
</svg>
