<svg width="73" height="37" viewBox="0 0 73 37" fill="none" xmlns="http://www.w3.org/2000/svg">
<g clip-path="url(#clip0)">
<path d="M13.505 20.054L9.052 20.35L12.848 9.58301L1.241 11.359L0 23.384L2.774 23.273L2.263 37L13.505 20.054Z" fill="#EC1B2E"/>
<path d="M1.24106 10.3602L12.7021 8.80617L7.30006 6.25317C7.30006 6.25317 7.99356 1.77617 4.05156 0.222168L3.57706 1.73917C3.57706 1.73917 6.13206 2.29417 5.76706 6.36417L1.24106 10.3602Z" fill="#EC1B2E"/>
<path d="M20.367 27.5652C20.294 27.4912 20.294 27.4172 20.294 27.2692V9.87917C20.294 9.76817 20.3305 9.65717 20.367 9.58317C20.44 9.50917 20.513 9.47217 20.6225 9.47217H22.046C22.2285 9.47217 22.338 9.54617 22.4475 9.73117L29.1635 22.5702C29.2 22.6072 29.2365 22.6442 29.2365 22.6442C29.273 22.6442 29.273 22.6072 29.273 22.5332V9.91617C29.273 9.80517 29.3095 9.69417 29.346 9.62017C29.419 9.54617 29.492 9.50917 29.6015 9.50917H31.0615C31.171 9.50917 31.244 9.54617 31.317 9.62017C31.39 9.69417 31.39 9.76817 31.39 9.91617V27.3062C31.39 27.4172 31.3535 27.5282 31.317 27.6022C31.244 27.6762 31.171 27.7132 31.0615 27.7132H29.638C29.4555 27.7132 29.346 27.6392 29.2365 27.4542L22.5205 14.5042C22.484 14.4302 22.4475 14.4302 22.4475 14.4302C22.411 14.4302 22.411 14.4672 22.411 14.5412L22.4475 27.2692C22.4475 27.3802 22.411 27.4912 22.3745 27.5652C22.3015 27.6392 22.2285 27.6762 22.119 27.6762H20.659C20.513 27.6762 20.44 27.6392 20.367 27.5652Z" fill="#231F20"/>
<path d="M44.0556 27.3803L43.2891 24.4573C43.2526 24.3833 43.2161 24.3463 43.1796 24.3463H37.0476C37.0111 24.3463 36.9746 24.3833 36.9381 24.4573L36.1351 27.3803C36.0621 27.6023 35.9526 27.6763 35.7701 27.6763H34.2006C33.9451 27.6763 33.8721 27.5283 33.9451 27.2323L38.6901 9.80528C38.7631 9.58328 38.8726 9.50928 39.0551 9.50928H41.0626C41.2451 9.50928 41.3911 9.62028 41.4276 9.80528L46.2091 27.2323C46.2091 27.2693 46.2456 27.3063 46.2456 27.3803C46.2456 27.5653 46.1361 27.6763 45.9536 27.6763H44.3841C44.2381 27.6763 44.0921 27.5653 44.0556 27.3803ZM37.5951 22.3853H42.6321C42.7051 22.3853 42.7416 22.3483 42.7051 22.2373L40.1501 12.5433C40.1501 12.4693 40.1136 12.4323 40.0771 12.4323C40.0406 12.4323 40.0406 12.4693 40.0041 12.5433L37.4856 22.2373C37.4856 22.3483 37.5221 22.3853 37.5951 22.3853Z" fill="#231F20"/>
<path d="M50.6619 27.1581C49.8589 26.6771 49.2019 25.9741 48.7639 25.0491C48.3259 24.1241 48.1069 23.0881 48.1069 21.9041V15.2441C48.1069 14.0601 48.3259 12.9871 48.7639 12.0991C49.2019 11.2111 49.8589 10.5081 50.6619 10.0271C51.4649 9.54611 52.4139 9.28711 53.4724 9.28711C54.5309 9.28711 55.4434 9.54611 56.2829 10.0271C57.0859 10.5081 57.7064 11.1741 58.1809 12.0251C58.6189 12.8761 58.8379 13.8381 58.8379 14.9111V15.0591C58.8379 15.1701 58.8014 15.2811 58.7649 15.3551C58.6919 15.4291 58.6189 15.4661 58.5094 15.4661H57.0494C56.9399 15.4661 56.8669 15.4291 56.7939 15.3921C56.7209 15.3551 56.7209 15.2811 56.7209 15.2071V14.9851C56.7209 13.9491 56.4289 13.0981 55.8449 12.4691C55.2609 11.8031 54.4579 11.5071 53.5089 11.5071C52.5234 11.5071 51.7569 11.8401 51.1364 12.5061C50.5524 13.1721 50.2604 14.0971 50.2604 15.2071V22.0151C50.2604 23.1251 50.5524 24.0501 51.1729 24.7161C51.7934 25.3821 52.5964 25.7151 53.5819 25.7151C54.5674 25.7151 55.2974 25.4191 55.8814 24.8271C56.4289 24.2351 56.7209 23.4211 56.7209 22.3851V20.4241C56.7209 20.3501 56.6844 20.2761 56.6114 20.2761H53.7644C53.6549 20.2761 53.5819 20.2391 53.5089 20.1651C53.4359 20.0911 53.4359 20.0171 53.4359 19.8691V18.5371C53.4359 18.4261 53.4724 18.3151 53.5089 18.2411C53.5819 18.1671 53.6549 18.1301 53.7644 18.1301H58.5094C58.6189 18.1301 58.6919 18.1671 58.7649 18.2411C58.8379 18.3151 58.8379 18.3891 58.8379 18.5371V21.7191C58.8379 23.7171 58.3634 25.2341 57.4144 26.3071C56.4654 27.3801 55.1514 27.8981 53.5089 27.8981C52.4139 27.8981 51.4649 27.6391 50.6619 27.1581Z" fill="#231F20"/>
<path d="M70.7735 27.3803L70.007 24.4573C69.9705 24.3833 69.934 24.3463 69.8975 24.3463H63.7655C63.729 24.3463 63.6925 24.3833 63.656 24.4573L62.8895 27.3803C62.8165 27.6023 62.707 27.6763 62.5245 27.6763H60.955C60.6995 27.6763 60.6265 27.5283 60.6995 27.2323L65.4445 9.80528C65.5175 9.58328 65.627 9.50928 65.8095 9.50928H67.817C67.9995 9.50928 68.1455 9.62028 68.182 9.80528L72.9635 27.2323C72.9635 27.2693 73 27.3063 73 27.3803C73 27.5653 72.8905 27.6763 72.708 27.6763H71.1385C70.956 27.6763 70.81 27.5653 70.7735 27.3803ZM64.2765 22.3853H69.3135C69.3865 22.3853 69.423 22.3483 69.3865 22.2373L66.8315 12.5433C66.8315 12.4693 66.795 12.4323 66.7585 12.4323C66.722 12.4323 66.722 12.4693 66.6855 12.5433L64.167 22.2373C64.2035 22.3483 64.2035 22.3853 64.2765 22.3853Z" fill="#231F20"/>
</g>
<defs>
<clipPath id="clip0">
<rect width="73" height="37" fill="white"/>
</clipPath>
</defs>
</svg>
