<svg width="49" height="49" viewBox="0 0 49 49" fill="none" xmlns="http://www.w3.org/2000/svg">
<g clip-path="url(#clip0)">
<path d="M40.8874 8.77357L40.892 8.67661C40.9105 8.27406 40.7784 7.8838 40.5384 7.63153C40.327 7.4105 40.0455 7.29832 39.7015 7.29832H33.9217L33.9187 7.03879C33.9151 6.69076 33.9125 6.34274 33.9121 5.99371C33.9121 5.87649 33.8968 5.76109 33.8639 5.63057L33.8536 5.59247L33.8562 5.55306C33.8761 5.15001 33.7451 4.75854 33.504 4.50536C33.2932 4.28322 33.0112 4.17074 32.6663 4.17074C31.5741 4.17074 30.4819 4.1658 29.3902 4.16127L29.1338 4.16026L29.1292 3.90385C29.1082 2.7725 29.0349 1.82589 28.8994 0.924838C28.8124 0.351652 28.2075 0.00876863 27.6716 0.00876863L27.5979 0.00927257L27.5349 0.00262051L22.4282 0C22.0493 0 21.737 0.142011 21.5236 0.411218C21.2674 0.736262 21.1735 1.21682 21.28 1.66594L21.2985 1.74345L21.2701 1.81843C21.2125 1.97304 21.1826 2.12806 21.1826 2.27904V4.04425L20.9121 4.03589C19.801 4.00192 18.6901 3.96322 17.579 3.9092L17.5244 3.90819C17.419 3.90819 17.3144 3.9228 17.1954 3.95425L17.1608 3.96372L17.125 3.96322H17.1245C16.5035 3.96322 15.8527 4.35448 15.8442 5.21411C15.8396 5.65556 15.8222 6.0952 15.7956 6.53323L15.7808 6.77896L15.5347 6.77946C13.6254 6.7849 11.583 6.81988 9.58037 7.03637C9.51385 7.04383 9.45368 7.06046 9.39331 7.07628L9.30784 7.08939C8.68164 7.08939 8.05604 7.47551 8.05604 8.33917V13.2919C8.05604 13.5701 8.12558 13.8154 8.26256 14.0199L8.30711 14.0859V14.1656C8.30549 25.2914 8.26669 35.3386 7.80447 45.6238C7.79863 45.7486 7.81163 45.873 7.84469 46.0148L7.85668 46.0674L7.8469 46.1212C7.78502 46.4646 7.84005 46.7784 8.00303 47.0052C8.14967 47.2109 8.38028 47.3378 8.68758 47.3839C18.7563 48.8767 28.6898 48.9991 39.7013 49.0001C40.4976 49.0001 40.7582 48.3942 40.833 48.1336L40.8498 48.0759L40.8907 48.0308C41.0944 47.8062 41.1978 47.519 41.1978 47.1771V9.64317C41.1978 9.33123 41.1134 9.06454 40.9461 8.85017L40.8874 8.77357ZM23.6745 2.60358H26.6061L26.6178 2.85253C26.6353 3.19208 26.645 3.53174 26.647 3.8718L26.6492 4.13819L25.7335 4.12871C25.1326 4.12287 24.5321 4.11722 23.9319 4.10674L23.6745 4.1018V2.60358ZM17.93 12.1047C18.0235 11.3984 18.1125 9.68822 18.1831 8.31407C18.2157 7.68152 18.2445 7.12899 18.2676 6.79478L18.2855 6.54019L18.5401 6.55117C22.8868 6.73773 27.1773 6.76817 31.1663 6.7723H31.4252L31.4278 7.03123C31.4579 9.83185 31.5121 11.7861 31.5838 12.5341L31.6119 12.8327L31.312 12.8206C29.0303 12.7272 26.7083 12.6623 24.4631 12.6001C22.3685 12.5413 20.2742 12.4827 18.1799 12.4013L17.8927 12.3903L17.93 12.1047ZM38.7076 46.3949H38.4456C28.5606 46.3884 19.6386 46.2818 10.5551 45.0341L10.3192 45.0018L10.3291 44.7633C10.7621 34.6256 10.7982 24.5125 10.7987 13.2918C10.7987 13.0137 10.7292 12.7677 10.5912 12.5622L10.5471 12.4962V9.54873L10.7897 9.53079C12.407 9.41146 14.0039 9.39009 15.214 9.38415L15.5123 9.38314L15.4749 9.68026C15.4634 9.77269 15.4488 10.4638 15.4378 11.0194C15.4189 11.9302 15.4084 12.3716 15.3933 12.4802C15.3602 12.7217 15.3692 12.9602 15.4204 13.187L15.4314 13.2389L15.4219 13.2914C15.3433 13.7237 15.4513 14.1886 15.7033 14.5051C15.9183 14.7756 16.2279 14.9276 16.5984 14.9443C19.2329 15.0648 21.9148 15.1362 24.5076 15.2047C27.1032 15.2733 29.7871 15.3447 32.4265 15.4657L32.4951 15.4674C32.8697 15.4674 33.1139 15.3247 33.2766 15.1466C33.5013 15.0537 33.6957 14.8886 33.8104 14.6671C33.8211 14.645 33.8309 14.6225 33.8411 14.5995C33.8632 14.5465 33.8847 14.493 33.897 14.4355C33.921 14.3289 33.9328 14.2215 33.9502 14.1146C34.1134 13.8976 34.1963 13.6529 34.1657 13.4144C34.1411 13.2204 34.1221 12.5032 34.0987 11.51C34.0838 10.903 34.0694 10.3302 34.0577 10.1865L34.0331 9.9019H38.7074V46.3949H38.7076Z" fill="#00B4FF"/>
<path d="M33.1304 19.7418C33.0133 19.7973 32.9135 19.867 32.8249 19.9549C28.165 24.6126 24.1953 28.4834 20.0308 32.1777L17.9099 29.6032C17.6633 29.3033 17.3843 29.2404 17.1941 29.2404C16.9787 29.2404 16.7596 29.3228 16.5741 29.4722L16.541 29.4907C15.3483 30.2584 14.2346 30.9007 13.135 31.4554C12.8044 31.6229 12.6089 31.911 12.591 32.2524C12.4464 32.6311 12.539 33.0267 12.8456 33.32C13.83 34.2617 14.7464 35.3038 15.6328 36.312C16.606 37.4186 17.6122 38.5635 18.7185 39.5876C18.7605 39.6265 18.8034 39.6608 18.8469 39.6909C19.0344 39.9315 19.2955 40.0675 19.57 40.0675C19.7699 40.0675 19.9631 39.998 20.145 39.8608C23.235 37.529 25.9856 34.9034 28.0368 32.8767C28.63 32.2903 29.2257 31.7057 29.8209 31.1196C31.9489 29.029 34.1497 26.8666 36.2323 24.6704C36.3556 24.5402 36.441 24.3897 36.487 24.2231C36.6862 23.9001 36.6739 23.526 36.4498 23.1885C35.7358 22.1127 35.1129 21.1037 34.5469 20.1049C34.3605 19.7748 34.0467 19.5854 33.6885 19.5854C33.4882 19.5859 33.2871 19.6442 33.1304 19.7418ZM29.6543 28.3053C28.839 29.1088 28.0252 29.9114 27.2176 30.7199C24.9339 33.0052 22.4411 35.4141 19.6715 37.5781C18.7869 36.706 17.9509 35.7591 17.1416 34.8404C16.5242 34.1409 15.8885 33.4197 15.2298 32.7302C15.7863 32.4231 16.3501 32.0915 16.9403 31.7272L19.1566 34.4187C19.404 34.7182 19.6835 34.7816 19.8741 34.7816C20.1112 34.7816 20.3463 34.6843 20.5407 34.5088C20.6042 34.4726 20.6613 34.4305 20.7158 34.3823C25.1662 30.4844 29.4459 26.299 33.4159 22.3407C33.6677 22.7558 33.9426 23.1909 34.2598 23.6811C32.7537 25.2493 31.1789 26.8021 29.6543 28.3053Z" fill="#00B4FF"/>
</g>
<defs>
<clipPath id="clip0">
<rect width="49" height="49" fill="white"/>
</clipPath>
</defs>
</svg>
