<svg width="54" height="54" viewBox="0 0 54 54" fill="none" xmlns="http://www.w3.org/2000/svg">
<path d="M12.3555 22.4006C13.9689 23.544 15.7943 24.1482 17.6353 24.1482C20.0464 24.1482 22.4218 23.134 24.3233 21.292C24.8324 20.7989 25.3641 20.2237 25.5067 20.0535C25.5652 19.9829 25.62 19.9003 25.6686 19.8095C27.4932 16.3617 27.189 12.7959 24.833 10.0263C24.2717 9.36623 23.7742 8.80724 23.5951 8.63457C23.5067 8.54966 23.3987 8.47377 23.2735 8.40975C21.6303 7.56477 19.9663 7.13623 18.329 7.13623C16.0781 7.13623 13.9044 7.9343 11.8689 9.50934C11.7806 9.57747 11.7051 9.65108 11.6452 9.72811C11.4995 9.91642 11.0273 10.5609 10.6087 11.1764C7.90534 15.1399 8.62386 19.7557 12.3555 22.4006ZM13.4545 11.6309C13.4942 11.5889 13.5299 11.5449 13.5617 11.5005C13.7298 11.2678 14.36 10.7372 15.0609 10.3854C16.6404 9.59117 18.4083 9.42112 20.1686 9.89051C20.997 10.1113 22.1422 10.8186 22.7208 11.4671C24.2139 13.1393 24.6856 15.0865 24.0838 17.0983C23.8721 17.8056 23.5042 18.5123 23.3538 18.6691C21.9931 20.4986 20.0775 21.4954 17.9419 21.4954C15.3355 21.4954 12.8621 19.9776 11.9267 17.8044C11.4236 16.6341 10.9519 14.2746 13.4545 11.6309Z" fill="#00B4FF"/>
<path d="M36.3959 13.1419C37.6042 13.9976 38.9724 14.4502 40.3529 14.4502C42.1592 14.4502 43.9378 13.6919 45.36 12.3141C45.7435 11.9432 46.1301 11.5242 46.2385 11.3941C46.2884 11.3341 46.3341 11.2659 46.3735 11.1913C47.7418 8.60695 47.5118 5.9321 45.7431 3.85286C45.3287 3.36578 44.9596 2.95082 44.8251 2.82095C44.751 2.74916 44.6599 2.68559 44.5556 2.63207C43.3295 2.00153 42.0863 1.68164 40.8619 1.68164C39.1772 1.68164 37.5528 2.27737 36.0327 3.45297C35.9586 3.5106 35.8954 3.57291 35.8444 3.63865C35.7361 3.77742 35.3878 4.25355 35.0777 4.70845C33.0492 7.68516 33.5904 11.1533 36.3959 13.1419ZM37.3846 5.21608C37.4187 5.17956 37.4484 5.14304 37.4756 5.10538C37.5764 4.96603 38.0133 4.58611 38.5256 4.33002C39.6557 3.76259 40.9179 3.64093 42.1778 3.9768C42.7631 4.13292 43.5734 4.63302 43.9841 5.0926C45.0614 6.29946 45.389 7.64602 44.9554 9.09449C44.7909 9.64354 44.5283 10.1124 44.4525 10.1918C43.4685 11.5122 42.1018 12.2241 40.5789 12.2241C38.7193 12.2241 36.9558 11.1442 36.2905 9.59835C35.9334 8.7706 35.6014 7.10005 37.3846 5.21608Z" fill="#00B4FF"/>
<path d="M53.2918 18.4085C53.2745 18.2513 53.2229 18.0994 53.1382 17.9562C52.2151 16.3894 50.6324 15.6086 48.727 15.8419C48.72 15.8424 48.7136 15.8437 48.7078 15.8447C48.6812 15.8419 48.6539 15.8396 48.6245 15.8396C47.2325 15.8396 45.8375 15.8243 44.4415 15.8085C43.0419 15.7932 41.6406 15.7778 40.2404 15.7778C37.657 15.7778 34.254 15.8242 30.8302 16.1861C30.6911 16.1748 30.5423 16.1907 30.3962 16.2354C29.0643 16.6419 27.9905 17.5622 27.4493 18.7609C27.3956 18.8792 27.3589 19.002 27.3389 19.126C27.2743 19.2676 27.2397 19.4227 27.2366 19.5864C27.2231 20.2973 27.2059 21.0083 27.1894 21.7185C27.1651 22.7512 27.1442 23.7971 27.1282 24.8471C27.2261 24.8479 27.3247 24.8491 27.4227 24.8496C27.5224 24.8502 27.622 24.8514 27.7217 24.8525C28.0891 24.8559 28.4561 24.862 28.8227 24.8696C28.9212 24.8719 29.0198 24.8774 29.1178 24.8797C29.2168 24.882 29.3164 24.8869 29.4155 24.8899C29.4307 23.8033 29.4526 22.7207 29.477 21.6526C29.4921 21.01 29.5066 20.3667 29.5198 19.724C29.8369 19.1016 30.3126 18.6783 30.935 18.4654C34.3217 18.1099 37.6928 18.0643 40.2543 18.0643C41.6503 18.0643 43.0476 18.0796 44.4431 18.095C45.8149 18.1104 47.1853 18.1238 48.5177 18.1238C48.6057 18.1342 48.7007 18.1368 48.8016 18.1238C48.9743 18.1029 49.1413 18.091 49.303 18.091C50.1623 18.091 50.7541 18.4156 51.1649 19.113C51.1864 19.1488 51.209 19.1822 51.2321 19.2139C51.5236 23.0202 51.6784 26.9626 51.7055 31.2546C50.7505 31.257 49.6709 31.2685 48.59 31.3173C48.5245 28.8612 48.3988 25.6975 48.2858 23.6669C48.2453 22.9471 47.6564 22.5702 47.0953 22.5702C46.7732 22.5702 46.4718 22.6925 46.2707 22.9049C46.076 23.1109 45.9827 23.3856 45.9994 23.6995C46.135 26.1138 46.3002 30.383 46.3426 33.1155C44.5286 33.1074 42.7141 33.09 40.9002 33.0732C39.6344 33.0605 38.3688 33.0523 37.102 33.0431C37.1131 33.1421 37.1229 33.2412 37.1333 33.3408C37.1425 33.4393 37.1501 33.5384 37.1589 33.6376C37.1866 33.9644 37.2092 34.2925 37.2255 34.6211C37.2308 34.7201 37.2376 34.8186 37.2417 34.9178C37.2458 35.0168 37.2475 35.1153 37.2516 35.2145C38.4692 35.2244 39.6874 35.2279 40.9056 35.2406C43.1704 35.2638 45.4339 35.287 47.6986 35.2899H47.7004C48.0945 35.2899 48.4259 35.1028 48.6103 34.7765C48.794 34.4508 48.8022 34.0243 48.6359 33.6888L48.6335 33.4836C49.8604 33.4286 51.0819 33.421 52.226 33.421C52.4376 33.421 52.6328 33.3655 52.798 33.2612C52.8183 33.2617 52.8385 33.2623 52.8589 33.2623C53.1788 33.2623 53.4824 33.1423 53.6911 32.9319C53.8939 32.7291 54.0006 32.4579 53.9999 32.1473C53.9901 27.471 53.8283 23.1716 53.5056 19.0046C53.4888 18.784 53.4153 18.5791 53.2918 18.4085ZM48.6308 16.1362V16.1368V16.1362Z" fill="#00B4FF"/>
<path d="M33.5546 25.8357C33.9672 26.1188 34.3352 26.4347 34.6615 26.7806C34.7617 26.8867 34.8679 26.9901 34.9605 27.1016C35.0676 27.2308 35.1626 27.3682 35.2607 27.5044C35.249 26.1124 35.2392 24.8026 35.2375 23.8246C35.2351 22.6804 33.8415 22.4579 33.2596 23.04C33.0574 23.2431 32.9508 23.5149 32.9514 23.8259C32.9525 24.3022 32.9548 24.8594 32.9588 25.4647C33.0609 25.5212 33.1594 25.5794 33.2567 25.6394C33.3587 25.7021 33.4566 25.7687 33.5546 25.8357Z" fill="#00B4FF"/>
<path d="M35.5122 35.9485C35.5064 35.6993 35.5001 35.4513 35.4931 35.2033C35.4902 35.1036 35.4878 35.0051 35.485 34.9065C35.4821 34.8068 35.4763 34.7084 35.4729 34.6097C35.4608 34.2812 35.4497 33.9532 35.4318 33.6258C35.4265 33.526 35.4161 33.4281 35.4103 33.3289C35.4045 33.2293 35.3946 33.1297 35.3883 33.0312C35.3704 32.7785 35.3565 32.5257 35.3321 32.2743C35.3235 32.1792 35.309 32.0818 35.2991 31.9857C35.2492 31.5232 35.1866 31.0515 35.0812 30.5879C35.0551 30.4719 35.0198 30.3584 34.9885 30.2448C34.9068 29.9492 34.8101 29.6595 34.6849 29.3831C34.5244 29.0295 34.3261 28.6951 34.0723 28.395C33.9309 28.228 33.7577 28.0704 33.5728 27.9192C33.4766 27.8404 33.3792 27.7622 33.2744 27.688C33.1782 27.6213 33.0778 27.5571 32.9759 27.495C32.7627 27.3645 32.5396 27.2453 32.3089 27.1401C31.9408 26.9708 31.5601 26.839 31.1869 26.7471C30.9129 26.6796 30.6427 26.6292 30.3895 26.6113C30.0628 26.5887 29.733 26.5811 29.4027 26.5757C29.3052 26.5739 29.208 26.5699 29.1105 26.5699C29.0096 26.5693 28.9089 26.5723 28.8081 26.5723C28.44 26.574 28.0727 26.5774 27.7041 26.5864C27.6056 26.5888 27.5065 26.5911 27.4079 26.5936C27.3088 26.596 27.2097 26.5983 27.1106 26.6006C26.6201 26.6119 26.1304 26.6215 25.645 26.6174C24.7929 26.6096 23.9406 26.6 23.0879 26.5911C22.2435 26.5818 21.3995 26.5729 20.5552 26.565C17.1605 26.5354 13.7634 26.536 10.3713 26.6884C8.46687 26.7738 6.56487 26.9069 4.66903 27.108C4.52364 27.0914 4.36501 27.1033 4.19439 27.1555C2.54575 27.6591 1.14635 28.7909 0.430674 30.376C0.364824 30.5219 0.322027 30.6738 0.303768 30.8256C0.229016 30.9716 0.180969 31.142 0.177432 31.3414C0.0693555 36.8533 -0.159921 42.3581 0.177432 47.8659C0.206419 48.3405 0.46514 48.6617 0.798041 48.8314C0.968429 48.9937 1.20227 49.1014 1.50653 49.1014C3.68756 49.1014 5.86768 49.0916 8.04667 48.9907C8.05157 49.7215 8.05454 50.4006 8.05568 50.9866C8.05625 51.19 8.10259 51.3627 8.17734 51.5105C8.30824 51.8842 8.63144 52.1828 9.14683 52.1833C15.3126 52.1904 21.4779 52.3108 27.6435 52.3179C28.608 52.319 28.8984 51.2771 28.5171 50.646C28.5153 50.4025 28.5118 50.1442 28.5084 49.8764C30.2741 49.7866 32.0411 49.7721 33.8098 49.7714C34.0891 49.7714 34.3094 49.681 34.4756 49.5419C35.1097 49.6353 35.8237 49.2708 35.822 48.442C35.8139 44.8334 35.6701 41.2362 35.5582 37.6305C35.5378 37.0705 35.5255 36.5095 35.5122 35.9485ZM28.4618 47.7331C28.3713 44.1312 28.1883 39.615 28.037 36.9127C27.9547 35.435 25.6475 35.4268 25.7313 36.9127C25.9188 40.2704 26.1578 46.4436 26.2048 50.1652C20.9221 50.1454 15.6391 50.0631 10.3565 50.0447C10.34 46.3369 10.2699 40.3689 10.2641 37.1051C10.2609 35.618 7.95502 35.618 7.95788 37.1051C7.96278 39.5343 8.0025 43.4648 8.02977 46.8457C6.16635 46.9314 4.30224 46.9512 2.43744 46.954C2.1761 41.7772 2.37684 36.6015 2.47944 31.4212C2.94883 30.4534 3.69064 29.7482 4.72313 29.4078C7.99246 29.0631 11.2795 28.9222 14.566 28.8746C16.6405 28.8445 18.7157 28.8538 20.7904 28.8722C22.014 28.8839 23.2377 28.8978 24.4609 28.9099C25.3504 28.9198 26.24 28.9123 27.1296 28.9053C27.2275 28.9048 27.3254 28.9041 27.424 28.9035C27.5237 28.9029 27.6234 28.9024 27.7231 28.9011C28.047 28.9 28.3704 28.8966 28.6944 28.8966C28.7379 28.8966 28.782 28.8966 28.8253 28.8953C28.9262 28.8953 29.0264 28.8953 29.1283 28.8942C29.2252 28.8942 29.323 28.8953 29.4209 28.8966C29.8556 28.9 30.2937 28.9273 30.7116 29.0171C31.1996 29.1226 31.658 29.3162 32.0387 29.6882C32.2415 29.8864 32.3957 30.095 32.5198 30.3124C32.5922 30.4387 32.6536 30.5679 32.7047 30.7012C32.7405 30.7963 32.7719 30.8925 32.7985 30.9904C32.8256 31.0879 32.8478 31.1869 32.8674 31.2877C32.9149 31.5391 32.9439 31.801 32.9589 32.0787C32.9625 32.1395 32.9665 32.2009 32.97 32.2624C32.9764 32.3609 32.9828 32.4595 32.9886 32.558C32.9944 32.6588 33.0013 32.7585 33.0077 32.8594C33.0105 32.9121 33.014 32.9649 33.0176 33.017C33.0471 33.4887 33.0743 33.9599 33.1045 34.4322C33.1329 34.8784 33.1618 35.3258 33.1844 35.7731C33.185 35.7853 33.1863 35.7976 33.1868 35.8108C33.3096 38.3237 33.3896 40.8371 33.451 43.351C33.4858 44.7754 33.4985 46.1999 33.5056 47.6243C31.823 47.6281 30.1418 47.6462 28.4618 47.7331Z" fill="#00B4FF"/>
</svg>
