<svg width="49" height="49" viewBox="0 0 49 49" fill="none" xmlns="http://www.w3.org/2000/svg">
<path d="M35.9065 3.41251C35.7677 3.42323 35.6462 3.45962 35.5349 3.50713C35.2597 2.49694 34.8796 1.51646 34.3717 0.58044C34.0945 0.0706246 33.6265 -0.0668868 33.1944 0.0292138C33.109 0.0107216 33.018 0 32.9196 0H16.0667C15.9685 0 15.8777 0.0107216 15.7922 0.0292138C15.3604 -0.0669852 14.8919 0.0706246 14.6147 0.58044C14.1072 1.51489 13.7283 2.49389 13.4526 3.50261C13.3442 3.45746 13.2272 3.42323 13.093 3.413C10.3486 3.20024 6.49412 3.24116 5.49112 6.41494C4.63654 9.11864 6.67816 12.4427 7.94311 14.6732C9.82489 17.9905 12.0726 21.0891 13.8706 24.4556C14.9432 26.4643 16.4224 29.3567 13.0931 29.4857C11.6891 29.5407 11.684 31.7244 13.0931 31.6699C16.9022 31.5221 17.6099 29.4492 17.0663 26.9352C18.2068 29.66 19.5847 32.2748 21.2327 34.6244C21.7267 35.5964 22.2654 36.5384 22.9717 37.3695C22.1888 38.8934 21.6329 40.5173 21.3171 42.2305L21.2684 42.2295C18.726 42.2295 15.9753 43.14 15.8797 45.6959C15.8598 46.2268 16.0556 46.7093 16.4621 47.1314C18.2421 48.9785 23.5809 49 23.8076 49C24.0838 49 24.3205 48.992 24.5099 48.9785C24.5578 48.9745 24.605 48.9684 24.65 48.9605C24.6959 48.9695 24.7437 48.9749 24.7921 48.9785C24.9779 48.992 25.2157 49 25.4914 49C25.7187 49 31.0565 48.9785 32.8357 47.1314C33.2419 46.7098 33.4381 46.2269 33.4187 45.6959C33.3227 43.14 30.5726 42.2295 28.0298 42.2295L27.826 42.2315C27.788 42.2325 27.7536 42.241 27.7171 42.2445C27.5298 40.3574 26.9729 38.5988 26.0768 36.9889C26.6457 36.1443 27.2366 35.3147 27.885 34.5285C28.0124 34.3746 28.1022 34.2013 28.1582 34.022C29.6565 31.7863 30.9138 29.3253 31.9727 26.7765C31.3648 29.3608 32.0192 31.519 35.9071 31.6699C37.3162 31.7244 37.3107 29.5402 35.9071 29.4857C32.5775 29.3567 34.0575 26.4638 35.1294 24.4556C36.927 21.089 39.1753 17.9905 41.0569 14.6732C42.322 12.4427 44.3635 9.11913 43.5089 6.41494C42.5057 3.24067 38.6511 3.19975 35.9065 3.41251ZM13.1145 18.9015C11.1935 15.8475 8.92713 12.7517 7.81819 9.2832C6.61422 5.5158 10.1144 5.37249 13.0305 5.59302C12.4999 9.46675 13.2126 13.6165 14.0363 17.2992C14.4873 19.3174 15.053 21.371 15.7363 23.4008C14.8647 21.6492 13.8055 20.0001 13.1145 18.9015ZM27.4608 44.7489C27.5821 44.7828 27.7089 44.8068 27.8469 44.8068H27.8474L28.0048 44.8058C29.3029 44.8058 30.3728 45.0445 30.7289 45.4142C30.8133 45.5016 30.8478 45.586 30.8462 45.6819C30.7334 45.9267 29.3888 46.4316 25.9543 46.4316C25.4514 46.4316 25.0448 46.4187 24.8645 46.4052C24.7886 46.3991 24.7169 46.4002 24.6495 46.4072C24.5808 46.4003 24.5109 46.3992 24.433 46.4052C24.2537 46.4182 23.8473 46.4316 23.3441 46.4316C19.9096 46.4316 18.5655 45.9267 18.4554 45.696C18.4513 45.5861 18.4856 45.5016 18.57 45.4143C18.9082 45.0637 19.8902 44.8334 21.0982 44.8098C21.4211 45.8843 23.3113 45.7428 23.3933 44.3952C23.5031 42.5986 23.919 40.897 24.6089 39.3125C25.1931 40.7321 25.4763 42.2754 25.4438 43.9557C25.4213 45.1244 26.8119 45.3842 27.4608 44.7489ZM26.0112 33.0159C25.8373 33.0659 25.679 33.1538 25.5471 33.2722C25.22 33.3312 24.8938 33.3786 24.5663 33.4065C24.5659 33.4065 24.5654 33.4065 24.5649 33.4065C24.4532 33.4054 24.356 33.3961 24.2549 33.3885C24.1633 33.379 24.0719 33.3695 23.9802 33.357C23.6313 33.3017 23.3204 33.1757 22.985 32.948C22.9251 32.8636 22.8616 32.7881 22.7904 32.7292C20.0353 28.5569 18.2311 23.7384 16.8773 18.9629C15.4585 13.959 14.0274 7.32735 16.3603 2.34448H32.6263C34.9594 7.32735 33.5283 13.9595 32.1093 18.9629C30.7239 23.8469 28.8743 28.7793 26.0112 33.0159ZM41.1821 9.28271C40.0733 12.7517 37.8071 15.8475 35.8856 18.901C35.1787 20.0246 34.0869 21.7253 33.2053 23.5215C33.9086 21.4522 34.491 19.3578 34.9515 17.2984C35.7741 13.6159 36.4873 9.46675 35.957 5.59302C38.8759 5.3714 42.3878 5.5101 41.1821 9.28271Z" fill="#00B4FF"/>
<path d="M31.7557 4.35117C31.6369 3.62141 30.9995 3.44288 30.4531 3.6342C30.3278 3.58148 30.1845 3.5498 30.0201 3.5498H26.8804C25.4718 3.5498 25.4718 5.73386 26.8804 5.73386H29.7593C30.2163 9.17803 30.0072 12.5743 29.1036 15.9546C28.7394 17.3172 30.8463 17.8946 31.2099 16.5352C32.2877 12.502 32.4255 8.46648 31.7557 4.35117Z" fill="#4CACF8"/>
</svg>
