<svg width="56" height="56" viewBox="0 0 56 56" fill="none" xmlns="http://www.w3.org/2000/svg">
<g clip-path="url(#clip0)">
<path d="M56.3244 20.7653L56.3244 20.7653C56.7351 21.08 56.9753 21.4576 57.0824 21.8665C57.1889 22.2728 57.1616 22.7004 57.0544 23.115C56.8406 23.9412 56.3023 24.7431 55.7986 25.2899L55.7986 25.29C54.4648 26.7373 52.683 27.8466 50.7664 28.3284M56.3244 20.7653L50.7298 28.1829M56.3244 20.7653C55.5183 20.1482 54.5253 20.134 53.6061 20.2834L53.6059 20.2834M56.3244 20.7653L53.6059 20.2834M50.7664 28.3284L50.7298 28.1829M50.7664 28.3284C50.7665 28.3284 50.7666 28.3284 50.7667 28.3283L50.7298 28.1829M50.7664 28.3284C50.4124 28.4181 50.0953 28.349 49.8428 28.1905M50.7298 28.1829C50.4113 28.2637 50.1311 28.1989 49.9094 28.0551M49.8428 28.1905C49.8484 28.1926 49.8541 28.1947 49.8597 28.1966L49.9094 28.0551M49.8428 28.1905C49.7078 28.1406 49.5763 28.0616 49.4518 27.9465L49.4515 27.9462C48.8835 27.4186 48.4865 26.795 48.4254 25.9848M49.8428 28.1905C49.8378 28.1874 49.8328 28.1842 49.8278 28.181L49.9094 28.0551M49.9094 28.0551L48.4254 25.9848M48.4254 25.9848L48.575 25.9733M48.4254 25.9848L49.5536 27.8363C49.0041 27.3259 48.6323 26.7351 48.575 25.9733M48.4254 25.9848C48.4254 25.9847 48.4254 25.9847 48.4254 25.9846L48.575 25.9733M48.4254 25.9848C48.3841 25.4479 48.5468 24.9476 48.7785 24.4951M48.575 25.9733C48.5342 25.4431 48.7068 24.9437 48.9548 24.4819M27.1776 21.7661C27.2168 21.7994 27.2558 21.8328 27.2946 21.8663C27.2851 21.8733 27.2755 21.8803 27.266 21.8872L27.1776 21.7661ZM27.1776 21.7661C27.2191 21.7357 27.2606 21.7054 27.3021 21.6751C27.293 21.6673 27.2838 21.6595 27.2746 21.6517L27.1776 21.7661ZM31.9054 26.3426C31.9443 26.3741 31.9833 26.4054 32.0227 26.4366C32.0206 26.4388 32.0186 26.4411 32.0166 26.4433L31.9054 26.3426ZM31.9054 26.3426C31.939 26.3055 31.9727 26.2684 32.0063 26.2313C32.0041 26.2295 32.002 26.2278 31.9998 26.226L31.9054 26.3426ZM48.9548 24.4819L48.8337 24.5704C48.8153 24.5453 48.7969 24.5202 48.7785 24.4951M48.9548 24.4819C48.7471 24.1978 48.535 23.9169 48.3229 23.6359C48.1236 23.372 47.9243 23.108 47.7287 22.8415M48.9548 24.4819L48.8227 24.4109C48.8077 24.4388 48.793 24.4668 48.7785 24.4951M48.7785 24.4951C48.5956 24.2463 48.4094 23.9994 48.2225 23.7518L48.2032 23.7263C48.0187 23.4819 47.8335 23.2367 47.6512 22.9892M47.7287 22.8415L47.7246 22.9914C47.7001 22.9907 47.6756 22.99 47.6512 22.9892M47.7287 22.8415C44.7921 22.7604 42.4092 21.6598 40.3844 20.0148M47.7287 22.8415L47.6078 22.9302C47.6222 22.9499 47.6367 22.9695 47.6512 22.9892M47.6512 22.9892C44.7622 22.8926 42.4045 21.8189 40.3994 20.2194M40.3844 20.0148L40.4945 20.1166C40.4628 20.1509 40.4311 20.1851 40.3994 20.2194M40.3844 20.0148C38.6094 21.933 36.8531 23.8767 35.0955 25.8218C34.5905 26.3807 34.0854 26.9397 33.5797 27.4983L38.8924 18.6571M40.3844 20.0148L40.2898 20.1312C40.3262 20.1608 40.3627 20.1902 40.3994 20.2194M40.3994 20.2194C38.6574 22.1035 36.9332 24.0117 35.2072 25.9219C34.7021 26.4809 34.1968 27.0401 33.6909 27.5989L33.6099 27.6883L33.5052 27.6285C32.8787 27.2704 32.3243 26.8748 31.811 26.4592L31.6878 26.3594L31.7943 26.2419C32.3693 25.6071 32.9435 24.9715 33.5176 24.336C35.235 22.4352 36.9516 20.5353 38.6858 18.6595M38.6858 18.6595C38.7188 18.6938 38.7518 18.7279 38.785 18.7619L38.8924 18.6571M38.6858 18.6595C38.718 18.6247 38.7501 18.59 38.7823 18.5553L38.8924 18.6571M38.6858 18.6595C38.1445 18.0964 37.6326 17.4961 37.1419 16.8726M38.8924 18.6571C38.318 18.0685 37.7764 17.4365 37.2578 16.7773C37.2192 16.8091 37.1806 16.8409 37.1419 16.8726M37.1419 16.8726C34.4296 19.1006 31.6051 21.2101 28.7564 23.2924L28.6514 23.3692L28.5605 23.276C28.0927 22.7965 27.6074 22.3276 27.0805 21.8804L26.9353 21.7572L27.0891 21.6449C30.0442 19.488 32.9722 17.3074 35.78 15.0014M37.1419 16.8726C37.111 16.8333 37.0802 16.794 37.0494 16.7545C34.3396 18.9805 31.5169 21.0887 28.6679 23.1713L35.78 15.0014M35.78 15.0014C35.8059 15.0393 35.8319 15.0771 35.8578 15.1149L35.9814 15.03L35.8861 14.9142C35.8508 14.9433 35.8154 14.9723 35.78 15.0014ZM35.78 15.0014C34.7324 13.467 33.7784 11.8591 32.8699 10.3173L32.8699 10.3173C32.5921 9.84566 32.6782 9.36475 32.933 9.01885M35.78 15.0014L32.9991 10.2412C32.7517 9.82107 32.8324 9.39795 33.065 9.09284M32.933 9.01885L32.9299 9.02727C32.9292 9.0292 32.9289 9.02972 32.929 9.02956L33.065 9.09284M32.933 9.01885C32.9372 9.01316 32.9415 9.0075 32.9457 9.00188L33.065 9.09284M32.933 9.01885L32.9335 9.01756C32.9367 9.00876 32.9427 8.9925 32.9523 8.97456L32.9528 8.97359C34.3161 6.47052 36.4277 4.60751 39.1914 3.79489M33.065 9.09284C33.0683 9.08574 33.0708 9.07884 33.0733 9.07197C33.0765 9.06313 33.0797 9.05436 33.0845 9.04534C34.4311 6.57303 36.5126 4.7389 39.2337 3.93879M39.1914 3.79489C39.1913 3.79489 39.1913 3.7949 39.1913 3.79491L39.2337 3.93879M39.1914 3.79489L39.2337 3.93879M39.1914 3.79489C39.8222 3.60908 40.3239 3.9365 40.5613 4.38016M39.2337 3.93879C39.7918 3.7744 40.2324 4.06596 40.4392 4.47024M40.4392 4.47024L40.5449 4.36386L40.5613 4.38016M40.4392 4.47024L48.0293 12.0148C48.148 12.1328 48.2277 12.2615 48.2775 12.3932M40.4392 4.47024L40.5727 4.40193C40.569 4.39464 40.5652 4.38739 40.5613 4.38016M40.5613 4.38016L48.1351 11.9084L48.1351 11.9084C48.2584 12.0311 48.3457 12.1652 48.4034 12.3041M48.4034 12.3041C48.3943 12.2961 48.3852 12.2882 48.3761 12.2802L48.2775 12.3932M48.4034 12.3041C48.4084 12.3161 48.4132 12.3282 48.4178 12.3403L48.2775 12.3932M48.4034 12.3041C49.7191 13.4524 51.0289 14.6117 52.2839 15.833M48.2775 12.3932C49.6021 13.5492 50.9188 14.7138 52.1794 15.9405M52.1794 15.9405L52.2839 15.833M52.1794 15.9405C52.4028 16.1576 52.4934 16.4107 52.4934 16.6576M52.1794 15.9405L52.284 15.833C52.284 15.833 52.2839 15.833 52.2839 15.833M52.2839 15.833C52.5323 16.0744 52.6393 16.3602 52.6433 16.6414M52.4934 16.6576L52.64 16.6258C52.6411 16.631 52.6422 16.6362 52.6433 16.6414M52.4934 16.6576C52.5219 16.789 52.5312 16.9281 52.5174 17.0696L52.6667 17.0841C52.6815 16.9323 52.6725 16.783 52.6433 16.6414M52.4934 16.6576H52.6434C52.6434 16.6522 52.6434 16.6468 52.6433 16.6414M53.6059 20.2834C53.5693 20.2894 53.5338 20.2973 53.4998 20.306L53.6059 20.2834ZM51.081 25.1269L51.0809 25.1271C50.9458 25.3209 50.8462 25.482 50.799 25.6291C50.7585 25.7555 50.7582 25.8663 50.8111 25.9789C50.8321 25.9772 50.8646 25.9713 50.9107 25.9571C51.0308 25.9203 51.1997 25.8417 51.4052 25.7259C51.8137 25.4956 52.3389 25.1342 52.8551 24.7237C53.3714 24.3132 53.8728 23.8581 54.236 23.4421C54.4179 23.2339 54.5616 23.0394 54.6555 22.8684C54.727 22.7382 54.7636 22.6324 54.7736 22.5505C54.5318 22.4518 54.2809 22.5363 53.9644 22.6492L53.949 22.6548C53.6298 22.7688 53.2305 22.9114 52.8462 22.6584L52.8462 22.6584C52.4756 22.4142 52.1222 22.1475 51.7735 21.8843L51.7731 21.884C51.423 21.6198 51.0774 21.359 50.7166 21.1211C50.3099 20.8533 50.0227 20.4127 50.1046 19.9084C50.1037 19.8957 50.1025 19.8835 50.101 19.8691C50.1 19.8588 50.0988 19.8474 50.0976 19.834C50.0944 19.7991 50.0917 19.756 50.0962 19.709L50.0962 19.7089L50.3437 17.1382C50.3417 17.135 50.3391 17.1311 50.3359 17.1265C50.3158 17.0978 50.2824 17.0585 50.2357 17.0098C50.1432 16.9131 50.0138 16.7945 49.8761 16.6741C49.7391 16.5541 49.5969 16.4349 49.4799 16.3371C49.4692 16.3282 49.4586 16.3193 49.4482 16.3107C49.3486 16.2275 49.2661 16.1585 49.2321 16.126L49.2319 16.1258C49.0928 15.9924 48.9536 15.8589 48.8144 15.7254C48.4806 15.4053 48.1467 15.0851 47.8131 14.7644C46.9008 13.8874 45.9901 13.0075 45.0849 12.1222C43.811 10.8766 42.5481 9.61913 41.286 8.36238C40.9704 8.04815 40.6548 7.73397 40.3392 7.42002C40.1139 7.19629 39.8887 6.97238 39.6634 6.74851C39.4995 6.58556 39.3356 6.42263 39.1717 6.2598C37.461 6.94477 36.1271 8.13546 35.1782 9.75643C35.1787 9.75799 35.1793 9.75963 35.1799 9.76135C35.1919 9.79568 35.2144 9.84504 35.2475 9.90809C35.313 10.0329 35.4098 10.1923 35.5143 10.3563C35.6183 10.5197 35.728 10.6845 35.8184 10.8195C35.8319 10.8397 35.8451 10.8594 35.8578 10.8785C35.9283 10.9836 35.9849 11.0682 36.0082 11.107L36.0083 11.1071C36.311 11.6126 36.623 12.1129 36.9409 12.6095L51.081 25.1269ZM51.081 25.1269C51.4231 24.6343 51.4806 23.9602 50.957 23.505M51.081 25.1269L49.3001 21.3241M49.3001 21.3241L49.3002 21.3242C49.557 21.688 49.8269 22.0427 50.099 22.3991L50.1359 22.4476C50.3899 22.7802 50.6454 23.1149 50.8909 23.4572C50.8947 23.4597 50.8992 23.4625 50.9046 23.4661C50.9183 23.475 50.9377 23.488 50.957 23.505M49.3001 21.3241C49.1341 21.0895 48.8885 20.9458 48.6223 20.8539C48.3565 20.7622 48.0586 20.7182 47.7735 20.6905L47.7734 20.6905M49.3001 21.3241L47.7734 20.6905M50.957 23.505C50.9572 23.5052 50.9573 23.5053 50.9575 23.5055L50.8581 23.6178L50.9564 23.5045C50.9566 23.5047 50.9568 23.5048 50.957 23.505ZM47.7734 20.6905C47.6281 20.6765 47.4832 20.6666 47.3464 20.6572C47.3143 20.6551 47.2826 20.6529 47.2515 20.6507C47.0859 20.6391 46.936 20.6271 46.8068 20.608L46.8066 20.608M47.7734 20.6905L46.8066 20.608M46.8066 20.608C45.8861 20.4736 44.9781 20.2964 44.1364 19.9301L44.1363 19.9301M46.8066 20.608L44.1363 19.9301M44.1363 19.9301C42.1109 19.0496 40.3138 17.323 38.9698 15.5758L38.9698 15.5758M44.1363 19.9301L38.9698 15.5758M38.9698 15.5758C38.2414 14.6294 37.5892 13.6212 36.941 12.6096L38.9698 15.5758ZM44.0765 20.0677C44.9371 20.4422 45.8612 20.6216 46.7849 20.7564C46.9464 20.7803 47.1357 20.7932 47.337 20.807L44.0765 20.0677ZM44.0765 20.0677C42.0184 19.173 40.2027 17.4245 38.8509 15.6672L44.0765 20.0677ZM52.4321 19.5273C52.4089 19.5105 52.3856 19.4936 52.3624 19.4768L52.2745 19.5984L52.4238 19.6128C52.4266 19.5843 52.4293 19.5558 52.4321 19.5273ZM50.3507 17.1507C50.3507 17.1507 50.3505 17.1503 50.3501 17.1494C50.3503 17.1496 50.3503 17.1498 50.3504 17.15C50.3506 17.1504 50.3507 17.1507 50.3507 17.1507Z" fill="#00B4FF" stroke="#4CACF8" stroke-width="0.3"/>
<path d="M23.5189 37.1594L23.5125 37.146L23.5036 37.1341C23.2425 36.7845 22.9224 36.4607 22.5837 36.2022L22.4797 36.1228L22.387 36.215C21.7806 36.8178 21.1742 37.4182 20.5589 38.0087C19.4671 35.9883 18.0332 34.2303 16.3428 32.6998C16.3207 32.6712 16.2991 32.6421 16.2765 32.6115L16.2734 32.6073C16.2718 32.6052 16.2702 32.6031 16.2687 32.601C17.0835 31.9488 17.9071 31.3058 18.7366 30.6701L18.8501 30.5832L18.7687 30.4657C18.3903 29.9192 18.0255 29.3572 17.679 28.7749L17.5929 28.6301L17.4591 28.7323C12.3615 32.625 7.48113 36.7711 3.32397 41.7104L3.32386 41.7105C3.2319 41.82 3.17141 41.9328 3.12739 42.0426C2.97312 42.302 2.94671 42.628 3.12117 42.982L3.12119 42.982C4.47561 45.7278 6.55717 47.9972 9.37414 49.2945C9.59011 49.3942 9.79862 49.4205 9.99257 49.3983C10.2401 49.4295 10.5056 49.3746 10.762 49.1951L10.762 49.1951C15.4879 45.882 19.7723 42.077 23.839 38.0413L23.9252 37.9558L23.8595 37.8537C23.854 37.8452 23.849 37.8374 23.8443 37.8303C23.8281 37.8054 23.8163 37.7873 23.8066 37.7683C23.7476 37.6471 23.6912 37.5265 23.6342 37.4046C23.5963 37.3236 23.5582 37.242 23.5189 37.1594ZM18.3873 40.0338C15.6924 42.4945 12.8884 44.8309 9.9008 46.958C8.06052 45.9866 6.57607 44.4945 5.56263 42.6736C8.26373 39.5462 11.2633 36.7393 14.424 34.1029C14.4555 34.1322 14.4869 34.1622 14.5188 34.1928C14.5276 34.2013 14.5365 34.2099 14.5454 34.2185C14.5967 34.2679 14.6498 34.319 14.7048 34.369C16.083 36.1622 17.3634 38.0215 18.3873 40.0338Z" fill="#00B4FF" stroke="#4CACF8" stroke-width="0.3"/>
<path d="M32.8261 29.2748L32.8264 29.275C33.3883 29.7748 33.953 30.2727 34.5179 30.7709C36.873 32.8475 39.2327 34.9281 41.4136 37.1647C43.3921 39.1934 45.3929 41.3654 46.6743 43.9453C47.4769 45.561 47.325 47.1639 46.685 48.6124C46.0469 50.0567 44.9221 51.3528 43.7652 52.3763C43.613 52.5115 43.4514 52.5839 43.2906 52.6085C43.0464 52.7283 42.752 52.7572 42.4409 52.6318L42.4407 52.6317C35.7315 49.9161 31.2381 44.6647 27.1251 39.0673L27.1251 39.0673C26.4802 38.1893 25.8438 37.3028 25.2099 36.4152L25.2099 36.4152C25.132 36.3061 25.0542 36.1971 24.9764 36.088C24.6567 35.6399 24.337 35.192 24.0168 34.7451C22.7297 32.9492 21.4334 31.1736 20.0691 29.4852C20.0331 29.4408 19.9975 29.3968 19.9621 29.353C19.9082 29.2863 19.8547 29.2201 19.8003 29.1537C19.7236 29.0971 19.6492 29.0314 19.5831 28.9512L19.5826 28.9506L18.9169 28.1343C18.8986 28.1119 18.8802 28.0896 18.8618 28.0671C18.8273 28.0251 18.7925 27.9829 18.758 27.9401C18.1191 27.1559 17.4991 26.4014 16.8539 25.6762L16.8538 25.6761C16.5748 25.362 16.2925 25.0529 16 24.7504L32.8261 29.2748ZM32.8261 29.2748C32.6762 29.142 32.5274 29.0088 32.3781 28.8753L32.3494 28.8496C31.8489 28.4017 31.3533 27.9484 30.8589 27.4939C29.6601 26.3905 28.4909 25.2628 27.3701 24.0923C27.3701 24.0923 27.3701 24.0923 27.3701 24.0923L27.3475 24.0687C26.8946 23.5955 26.4447 23.1254 26.0135 22.6384L26.0135 22.6384L26.012 22.6366C26.0003 22.6238 25.9887 22.6142 25.9847 22.6109L25.9825 22.609C25.9304 22.5544 25.8757 22.5077 25.819 22.4673M32.8261 29.2748L25.819 22.4673M25.819 22.4673C25.1427 21.7932 24.4932 21.1217 23.8887 20.4726C23.8315 20.4111 23.7799 20.3524 23.727 20.292C23.6827 20.2416 23.6374 20.19 23.5869 20.1346L23.5867 20.1344C22.6072 19.0646 21.6348 17.9377 20.6948 16.7642L20.5777 16.858L20.6948 16.7642C20.1739 16.1141 19.6504 15.4363 19.1379 14.7508L19.1378 14.7506C19.0921 14.6897 18.9888 14.5641 18.8592 14.4073L18.8592 14.4072C18.6854 14.1971 18.2464 13.6654 18.0055 13.3303C18.8343 10.3515 18.1931 7.60909 16.193 5.77564C14.0949 3.85167 11.0938 3.01211 7.73579 3.36537C7.02947 3.43919 6.50265 3.94461 6.402 4.64603C6.30936 5.29033 6.59844 5.94985 7.10042 6.32729C7.29379 6.58199 7.56014 6.77209 7.87446 6.879M25.819 22.4673L15.0124 23.7321C13.5581 22.2357 12.0568 20.6902 10.6325 19.0724C9.67357 19.3932 8.69774 19.5615 7.77439 19.5615C5.80103 19.5615 4.10381 18.8058 2.87565 17.3731C0.907522 15.0779 0.357081 11.8816 1.29729 8.39066C1.29994 8.37552 1.30382 8.36031 1.30644 8.35023C1.31098 8.33278 1.31682 8.31224 1.32333 8.29077L1.33993 8.22683L1.34073 8.22375L1.34076 8.22376C1.53618 7.53194 2.11824 7.07804 2.82299 7.07804C3.29172 7.07804 3.74493 7.27936 4.06672 7.6293M7.87446 6.879C7.87445 6.87899 7.87445 6.87899 7.87444 6.87899L7.92276 6.73699L7.87446 6.879ZM7.87446 6.879C8.55274 7.10981 9.23485 7.37935 9.77747 7.73356C10.3201 8.08775 10.7051 8.51461 10.8224 9.05441L10.8224 9.05445C10.901 9.41595 10.7365 9.79408 10.4871 10.1303C10.2411 10.462 9.93437 10.7229 9.78779 10.8382L9.78775 10.8382C9.0598 11.4114 7.97387 11.6497 7.08116 11.4237L7.08089 11.4236C6.38341 11.2484 5.83195 10.7896 5.4039 10.2424C4.9818 9.70281 4.68715 9.08649 4.4974 8.59996M4.4974 8.59996C4.46593 8.23935 4.31791 7.90244 4.06672 7.6293M4.4974 8.59996C4.49806 8.60759 4.49868 8.61522 4.49924 8.62287L4.34964 8.63384L4.48953 8.57971C4.49213 8.58644 4.49476 8.59319 4.4974 8.59996ZM4.06672 7.6293C4.06671 7.6293 4.06671 7.62929 4.06671 7.62929L3.9563 7.73083L4.06672 7.6293ZM16.4902 22.2966L16.4902 22.2966L17.4813 23.3173L17.4816 23.3176C17.9148 23.7665 18.3292 24.231 18.7344 24.6984L18.7344 24.6985C19.3097 25.3625 19.8646 26.0363 20.4049 26.7001L16.4902 22.2966ZM16.4902 22.2966L16.465 22.2707C14.874 20.6328 13.2339 18.9444 11.7216 17.1853L11.7215 17.1852M16.4902 22.2966L11.7215 17.1852M11.7215 17.1852L11.305 16.7013L11.234 16.6187M11.7215 17.1852L11.234 16.6187M11.234 16.6187L11.1336 16.6607M11.234 16.6187L11.1336 16.6607M11.1336 16.6607L10.5446 16.9064L10.5446 16.9064M11.1336 16.6607L10.5446 16.9064M10.5446 16.9064C9.6085 17.2971 8.65005 17.5013 7.77506 17.5013C6.39241 17.5013 5.2756 17.0065 4.44029 16.0319L4.44027 16.0319M10.5446 16.9064L4.44027 16.0319M4.44027 16.0319C2.89213 14.2263 2.77548 11.9948 3.0079 10.2992M4.44027 16.0319L3.0079 10.2992M3.0079 10.2992C3.86638 11.949 5.10321 13.0506 6.57928 13.4211C8.08099 13.7981 9.84557 13.4151 11.0632 12.4556L3.0079 10.2992ZM16.966 25.5765C17.6136 26.3045 18.2356 27.0614 18.8746 27.8457C18.9087 27.888 18.9426 27.9293 18.9769 27.9709L16.966 25.5765ZM15.0126 23.7323L15.9998 24.7502L15.0126 23.7323ZM10.9689 9.02256C11.1543 9.87457 10.1828 10.7182 9.88055 10.9561C9.11678 11.5575 7.98313 11.8067 7.04435 11.5691L10.9689 9.02256ZM20.5146 26.8346L20.4049 26.7002L11.0633 12.4556C12.4585 11.3565 13.1276 9.95827 12.8361 8.616L12.8361 8.61593C12.5991 7.52715 11.9231 6.74696 11.1594 6.18684C10.6723 5.82956 10.146 5.55917 9.66785 5.35281C11.7603 5.42893 13.4839 6.08637 14.801 7.29382L14.801 7.29382C16.8762 9.19599 16.2864 11.974 15.9218 13.1109L16.0647 13.1567L15.9218 13.1109C15.871 13.2693 15.8498 13.4238 15.8724 13.5915C15.8948 13.7573 15.9587 13.9262 16.0638 14.1157C16.271 14.4898 16.6574 14.9765 17.2714 15.72L17.2715 15.7201C17.29 15.7424 17.3075 15.7635 17.324 15.7835C17.4048 15.881 17.4622 15.9502 17.4874 15.9845L17.4881 15.9854C18.0142 16.6883 18.5521 17.3837 19.0872 18.0522C19.9342 19.1105 20.8086 20.1228 21.6883 21.1012C21.7739 21.1965 21.8604 21.2945 21.9474 21.393C22.0909 21.5555 22.2357 21.7195 22.38 21.8752L22.3801 21.8754C22.9166 22.4526 23.4866 23.0458 24.079 23.6422C24.0051 23.7607 23.91 23.897 23.8 24.0453C23.4086 24.5712 22.8226 25.2372 22.2352 25.8376C21.6957 26.389 21.1637 26.8762 20.7856 27.1483C20.7697 27.1339 20.7535 27.12 20.737 27.1068L20.5146 26.8347L20.5146 26.8346ZM25.7333 25.3356L25.7334 25.3358C26.946 26.5906 28.2243 27.7866 29.5241 28.9592C30.0229 29.4098 30.524 29.8582 31.0275 30.3037C31.6161 30.8247 32.2057 31.3445 32.7941 31.863C34.0856 33.0014 35.3689 34.1416 36.6053 35.3175L36.7087 35.2088L36.6053 35.3175C36.6669 35.3761 36.7286 35.4346 36.7902 35.4932C39.0041 37.5977 41.2504 39.7331 43.0973 42.1525C44.2702 43.69 44.9556 45.0768 44.9619 46.4305C44.9681 47.7563 44.3223 49.086 42.758 50.5258C36.934 47.9844 32.8656 43.3881 29.1506 38.3826L29.0301 38.472L29.1506 38.3826C28.317 37.2598 27.5019 36.1179 26.6887 34.9742C26.6293 34.8908 26.57 34.8073 26.5107 34.7238C26.1736 34.2492 25.8365 33.7746 25.4986 33.3014L25.3765 33.3886L25.4986 33.3014C24.3845 31.7413 23.2594 30.1966 22.0845 28.7146C22.9083 28.1163 23.8225 27.2059 24.5789 26.3285L24.4653 26.2306L24.5789 26.3285C24.9442 25.9047 25.2698 25.4909 25.5339 25.121C25.5389 25.1265 25.5439 25.132 25.549 25.1375C25.6107 25.2049 25.6741 25.2742 25.7333 25.3356Z" fill="#00B4FF" stroke="#4CACF8" stroke-width="0.3"/>
</g>
<defs>
<clipPath id="clip0">
<rect width="56" height="56" fill="white"/>
</clipPath>
</defs>
</svg>
