<svg width="38" height="38" viewBox="0 0 38 38" fill="none" xmlns="http://www.w3.org/2000/svg">
<path d="M33.1454 8.62772C32.9161 8.22303 32.5499 8 32.1144 8C31.8699 8 31.6231 8.07149 31.4184 8.19789C31.2747 8.26579 31.1527 8.35083 31.0458 8.45785C24.5411 14.9601 19.0079 20.3545 13.1889 25.5078L10.1344 21.7993C9.83788 21.4393 9.50748 21.3637 9.28283 21.3637C9.01276 21.3637 8.73636 21.4732 8.52597 21.6554L8.47625 21.6817C6.82152 22.7456 5.27388 23.6385 3.7459 24.4109C3.33868 24.6163 3.10139 24.9714 3.09037 25.3897C2.90168 25.8522 3.01193 26.34 3.38881 26.7001C4.75577 28.0081 6.02688 29.4537 7.25641 30.8519C8.60062 32.3807 9.99019 33.9618 11.5155 35.3742C11.5696 35.4252 11.6291 35.4708 11.6959 35.5151C11.9225 35.8181 12.2402 35.9907 12.5719 35.9907C12.8077 35.9907 13.0388 35.9066 13.259 35.7404C17.5226 32.5236 21.3261 28.8924 24.1639 26.0886C24.9965 25.2652 25.8331 24.4429 26.6703 23.6206C29.6026 20.7392 32.6347 17.7595 35.5031 14.7353C35.66 14.5703 35.7666 14.379 35.8201 14.1669C36.0711 13.7775 36.0593 13.3203 35.7855 12.907C34.795 11.4149 33.9309 10.0149 33.1454 8.62772ZM33.1329 13.51C31.0201 15.7145 28.806 17.897 26.6643 20.0091C25.5335 21.1234 24.4036 22.2379 23.2835 23.3591C20.0847 26.5605 16.5899 29.9371 12.6977 32.9635C11.4252 31.7205 10.2294 30.3643 9.07189 29.0517C8.16882 28.0276 7.23689 26.9713 6.26999 25.9693C7.14342 25.4929 8.02978 24.9737 8.96887 24.3893L12.1377 28.2361C12.4346 28.5974 12.766 28.673 12.9917 28.673C13.2802 28.673 13.569 28.551 13.8081 28.33C13.8928 28.2818 13.9688 28.228 14.039 28.1666C20.2617 22.7147 26.2368 16.8643 31.7724 11.3436C32.1729 12.0086 32.6201 12.7207 33.1329 13.51Z" fill="#3179FF"/>
</svg>
